<?xml version="1.0" encoding="utf-8"?>
<!-- Generator: Adobe Illustrator 19.0.0, SVG Export Plug-In . SVG Version: 6.00 Build 0)  -->
<svg version="1.1" id="Layer_1" xmlns="http://www.w3.org/2000/svg" xmlns:xlink="http://www.w3.org/1999/xlink" x="0px" y="0px"
	 viewBox="0 0 1200 534.6" style="enable-background:new 0 0 1200 534.6;" xml:space="preserve">
<style type="text/css">
	.st0{fill:#D71F26;}
</style>
<g id="XMLID_1816_">
	<g id="XMLID_1339_">
		<path id="XMLID_24_" class="st0" d="M600,269.1c-216.5,0-433-82.4-597.8-247.2L14.7,9.4c322.7,322.7,847.8,322.7,1170.5,0
			l12.5,12.5C1033,186.7,816.5,269.1,600,269.1z"/>
	</g>
	<g id="XMLID_1340_">
		<path id="XMLID_21_" class="st0" d="M592,405.4c-139.3,0-271.7-32.5-386.5-96.3l8.6-15.5c175,97.3,392.3,120,611.6,64l4.4,17.2
			C749.9,395.2,669.9,405.4,592,405.4z"/>
	</g>
	<g id="XMLID_1341_">
		<path id="XMLID_11_" class="st0" d="M592.9,534.6c-60.3,0-119.5-6-176.6-18l3.6-17.3c81.4,17.1,167,21.8,254.4,14l1.6,17.6
			C648.1,533.4,620.3,534.6,592.9,534.6z"/>
	</g>
</g>
</svg>
