<?xml version="1.0" encoding="utf-8"?>
<!-- Generator: Adobe Illustrator 19.0.0, SVG Export Plug-In . SVG Version: 6.00 Build 0)  -->
<svg version="1.1" id="Layer_1" xmlns="http://www.w3.org/2000/svg" xmlns:xlink="http://www.w3.org/1999/xlink" x="0px" y="0px"
	 viewBox="0 0 453.7 1178.8" style="enable-background:new 0 0 453.7 1178.8;" xml:space="preserve">
<g id="XMLID_53_">
	<path id="XMLID_130_" d="M245.8,10.5c0.8,6.6,2.3,13.1,2.4,19.7c0.3,22.7-0.2,45.3,0.3,68c0.1,4.2,2.2,9,4.9,12.3
		c20.3,24.2,44.1,46.1,60.8,72.4c36.2,56.8,37.7,117.3,8.6,178.3c-1.1,2.2-2.1,4.5-4.1,8.9c6.2-3.4,10.6-5.8,14.9-8.3
		c24.3-13.8,48.6-27.5,72.8-41.5c2-1.1,3.7-4.5,3.7-6.9c0.3-20.4,0.1-40.8,0.3-61.3c0.1-11.5,5.6-18.7,15.4-21.3
		c14.8-3.9,27.2,5.3,27.4,20.7c0.3,22.4,0.1,44.8,0.1,67.2c0,29.9,0.4,59.9-0.1,89.8c-0.5,32.7-4.6,64.7-21.7,94.6
		c19.1,8,22.6,23.7,21.9,42.1c-0.8,20.7-0.1,41.4-1.1,62.1c-1.4,26.7-6.7,52.6-20.6,76.9c19.2,9.3,22.3,25.8,21.6,44.5
		c-0.9,23.2,0.9,46.6-1.5,69.6c-6.5,60.6-36.7,107.2-88.8,138.7c-36.5,22.1-74.2,42.4-111.1,63.9c-2.2,1.3-3.6,5.8-3.6,8.8
		c-0.2,48.4-0.1,96.8-0.2,145.2c0,17.3-12.3,27.1-27.9,22.7c-10.3-2.9-15-10.1-15.1-23.2c0-47.6-0.1-95.1,0.1-142.7
		c0-6.6-1.8-9.8-7.9-13.3c-42.8-24.7-87-47.5-127.1-76C25.5,890.4,3.5,843,0.7,787.7c-1.2-23.2-0.5-46.4-0.3-69.7
		c0.1-15.5,5.7-24.4,20.7-33.7c-0.7-1.9-1.3-3.9-2.2-5.8C6.4,653,0.3,625.9,0.3,597.5c0-18.2,0.4-36.4-0.2-54.6
		c-0.5-17.4,4.8-31.3,21.5-39.7C-0.9,462.6-0.1,418.6,0,374.6c0.1-40.3,0.2-80.6,0.2-120.9c0-9.2,3.4-16.4,11.5-20.8
		c7.5-4.1,15.2-3.4,22.2,1.3c6.9,4.6,9.2,11.6,9.2,19.6c0,19.6-0.1,39.2,0.2,58.8c0,2.6,1.2,6.4,3,7.4
		c27.3,15.8,54.8,31.3,82.3,46.8c1.4,0.8,2.9,1.6,6.2,3.3c-1.5-3.6-2.2-5.7-3.2-7.7c-35-69.1-25.3-147.1,25.7-204.7
		c14.7-16.5,29.9-32.6,44.5-49.1c2.1-2.4,3.2-6.4,3.2-9.6c0.3-22.9,0-45.9,0.3-68.8c0.1-6.6,1.6-13.2,2.4-19.7
		c2.4-2.4,4.7-4.7,7.1-7.1c7.9,0,15.8,0,23.7,0C241.1,5.7,243.5,8.1,245.8,10.5z M226.4,144.7c-16.4,19-33.5,36-47.4,55.4
		c-45,62.8-27.1,147.5,35.7,195.8c13.9,10.7,9.8,10.6,24.4,0.1c49.4-35.6,71.9-102,54.5-158.6C281.9,199.2,252.5,174.4,226.4,144.7z
		 M44.8,547.3c-0.4,21.8-2.2,41.1-0.9,60.3c2.9,43.1,21.9,78.4,57.2,103.5c18.6,13.2,39,23.9,58.7,35.6c14.7,8.8,29.6,17.4,44.4,26
		c0.9-0.3,1.8-0.7,2.7-1c-1-21.4-0.9-42.9-3.1-64.1c-4-38.5-20.2-71.4-52.6-93.5C116.9,590.8,81,569.9,44.8,547.3z M44.6,729.9
		c-0.4,20.4-2.1,39.8-0.8,59c3.1,43.8,22.5,79.5,58.8,104.4c22.5,15.5,46.8,28.3,70.4,42.2c10.4,6.2,20.9,12.2,32.3,18.8
		c1.8-30.9,1.7-60.1-5.9-88.9c-6.6-24.7-19.2-45.8-38.5-62.7C126,772.4,83.6,754,44.6,729.9z M204.3,591.2c1-0.3,2-0.6,3-0.9
		c-1.4-23.3-1.6-46.8-4.4-69.9c-4.6-38-23.1-69.1-55-90.2c-33.5-22.1-68.6-41.6-103.1-62.3c-0.2-0.1-0.8,0.4-0.5,0.2
		c-0.3,19.4-1.8,38.4-0.6,57.3c2.6,40.8,19.1,75.6,52.1,100c23,17,48.7,30.4,73.3,45.2C180.7,577.7,192.6,584.4,204.3,591.2z
		 M410.6,728.6c-32.1,19-62.6,36.6-92.5,55c-18,11-33.9,24.7-45.8,42.5c-25.8,38.6-26.4,82.1-23.7,126.1c0,0.4,0.7,0.8,1.2,1.4
		c32.2-18.9,64.9-37.2,96.7-56.9c25.4-15.7,43-38.6,54.4-66.4C414.1,798,409.6,764.3,410.6,728.6z M246.8,771.4
		c1.2,0.6,2.4,1.2,3.5,1.8c33.8-20.6,68.2-40.1,101.2-62c34.3-22.8,53.2-56.2,57.4-97.1c2-19.4,1.5-39,2-58.6c0.1-2-0.6-4.1-1.1-7.1
		c-32.6,19.2-64.7,37.2-96,56.6c-33,20.4-54.9,50-61.5,88.1C247.7,718.7,248.4,745.3,246.8,771.4z M410.6,366.6
		c-32.1,18.8-63.1,36.1-93.3,54.7c-45.3,27.8-67.9,68.9-68.8,122c-0.2,13.7-0.1,27.4,0,41.1c0,2,0.4,4.1,0.7,7.6
		c31.5-18.7,62.2-36.5,92.4-55.1c17.3-10.6,32.5-23.9,44.1-40.7C412.7,457.1,412.5,412.8,410.6,366.6z"/>
</g>
</svg>
