<?xml version="1.0" encoding="utf-8"?>
<!-- Generator: Adobe Illustrator 19.0.0, SVG Export Plug-In . SVG Version: 6.00 Build 0)  -->
<svg version="1.1" id="Layer_1" xmlns="http://www.w3.org/2000/svg" xmlns:xlink="http://www.w3.org/1999/xlink" x="0px" y="0px"
	 viewBox="0 0 914 1000.2" style="enable-background:new 0 0 914 1000.2;" xml:space="preserve">
<g id="XMLID_53_">
	<path id="XMLID_145_" d="M353.5,871.4c-9.6,0-15.4,0-21.3,0c-90,0-180,0-270.1,0c-39.8,0-62-22.7-62.1-63.1
		c-0.1-43.6,20.9-66.1,61.9-66.5c8.5-0.1,17,0,27,0c0-8.6,0-14.7,0-20.7c0-71.6,0-143.2,0.1-214.8c0-36.6,19.1-55.3,56-55.4
		c41.9-0.1,41.9-0.1,41.9-41.3c0-37.3-0.1-74.7,0-112c0.1-35.7,20-56.1,56.1-56.3c58.3-0.3,116.6-0.1,174.9-0.1c5.6,0,11.1,0,18.7,0
		c0-12.8,0.6-24.4-0.4-35.8c-0.3-3.6-4.4-7.6-7.7-10.1c-35.8-26.6-47.6-70.3-28.2-110.5c11.5-23.9,24.4-47.2,37.4-70.4
		c10.7-19.2,28-19.1,38.6,0.1c12.3,22.4,24.5,44.9,36,67.7c20.8,41,9.6,85.4-27.1,113.2c-4.1,3.1-7.1,9.5-7.8,14.7
		c-1.2,9.5-0.4,19.2-0.4,30.9c6.2,0,11.2,0,16.1,0c57.8,0,115.6,0.1,173.4,0c40.7,0,60.4,19.3,60.5,59.8c0.1,45,0.3,90-0.2,135
		c-0.1,11.1,2.8,16,14.6,15.1c11.2-0.8,22.5-0.4,33.7-0.1c29.7,0.8,49.6,21,49.7,50.9c0.2,73.7,0.1,147.3,0.1,221c0,5.5,0,11,0,19
		c11.2,0,20.7-0.2,30.3,0c38.6,1,58.9,24.7,58.6,68.3c-0.3,37.7-22.6,61.1-59.5,61.2c-90,0.2-180,0.1-270.1,0.1c-6.6,0-13.1,0-23,0
		c3.7,6,5.6,9.9,8.2,13.1c26.9,33.1,59.4,59,98.9,75.7c11.4,4.8,18,12.3,15,24.8c-2.8,11.7-12,15.2-23.4,15.2
		c-135.5-0.1-271.1-0.1-406.6-0.1c-11.4,0-20.5-3.8-23.1-15.6c-2.8-12.7,4.6-19.6,15.7-24.5c38.1-16.8,70.5-41.1,96.6-73.6
		C345.7,882.6,348.3,878.5,353.5,871.4z M456.9,620.8c-42.6,32.2-67.5,32.2-116.5,0.4c-38.2,32.3-77.1,31.7-116.3-0.9
		c-27.6,27-59.5,29.9-95.7,16.1c0,29.4,0,56.8,0,84.2c0,21.2,0,21.3,21.9,21.3c205,0,410,0,614.9,0c4.1,0,8.5,0.8,12.2-0.5
		c3.1-1.1,7.8-4.5,7.8-6.9c0.5-32,0.3-63.9,0.3-96.2c-57.7,8.9-57.7,8.9-96.8-17.5c-38.1,32.9-77,31.9-115.4,0.3
		C530.9,654.8,493.1,650.7,456.9,620.8z M707.3,568.6c0.9,2,1.6,3.3,2.1,4.8c8,23.5,23.6,34.6,44.1,31.2
		c20.2-3.3,31.9-19.2,32.1-43.9c0.1-16.9,0.1-33.7,0-50.6c-0.1-18.7-1.2-19.7-20.2-19.7c-199.9,0-399.9,0-599.8,0
		c-8.2,0-16.7-1.4-24.4,0.5c-4.9,1.2-12,7.3-12.2,11.5c-1.1,22.4-1.3,45-0.1,67.4c1,18.7,15.8,33.1,33.1,35
		c18.9,2.1,33.9-7.2,40.8-25.4c1.4-3.7,2.7-7.4,3.8-10.5c13.2,0,25.3,0,37,0c7.6,24.5,18.8,35.1,37.3,36
		c18.6,0.9,30.1-8.1,39.3-29.6c1.4-3.2,6.1-6.6,9.6-7c10-0.9,20.2-0.3,30.4-0.3c4.3,21.7,15.1,35.7,36.8,36.7
		c24.8,1.2,36.2-14.6,41.7-36.8c6.9,0,13.1,0.5,19.1-0.1c11.7-1.3,19.4,0.5,23.3,14.4c4.5,15.8,19.3,23.6,36.1,22.6
		c22.5-1.3,32.7-16,37.5-36.8c7.2,0,13.9,0.6,20.4-0.1c11.6-1.3,17.9,1.8,21.8,14.3c5.1,16.5,21.9,24.8,39.3,22.4
		c20.7-2.8,30-17.2,34.5-36C683.2,568.6,695.4,568.6,707.3,568.6z M456.7,781.5C456.7,781.5,456.7,781.5,456.7,781.5
		c-26.1-0.1-52.1-0.1-78.2-0.1c-104.3,0-208.6-0.2-312.8,0.3c-7.8,0-20.7,3.2-22.2,7.9C40,800,39.9,813,43.3,823.3
		c1.6,4.8,14.4,8.3,22.1,8.3c261.2,0.4,522.4,0.3,783.6,0.3c20.6,0,25.4-4.9,25.5-25.1c0-20.3-4.5-25.3-25.2-25.3
		C718.5,781.5,587.6,781.5,456.7,781.5z M686.8,333.6c-25.1,0.2-46.4,6.7-66,18.3c-18,10.7-35,23.1-53,33.7
		c-69.5,40.9-140.5,42.1-211.9,5.5c-19.5-10-36.8-24-55.6-35.3c-22-13.3-45.5-22.5-74-21.9c0,33.6,0.8,66.2-0.3,98.8
		c-0.5,15.2,4.6,18.5,19,18.5c141.7-0.5,283.4-0.3,425-0.3c5.4,0,10.8-0.6,16.8-0.9C686.8,410.6,686.8,373,686.8,333.6z
		 M686.2,292.3c0.3-2.5,0.7-5,1-7.5c-8.2-1.3-16.4-3.6-24.6-3.6C538.8,280.9,415,281,291.2,281c-16.4,0-32.8-0.6-49.1,0.3
		c-5.3,0.3-10.3,4.5-15.5,6.9c0.5,1.8,1,3.6,1.5,5.4c45.8,0.8,84.1,20.4,120,46c10.4,7.4,21,15,32.5,20.1
		c61.7,27.4,121.3,23.9,177.5-14.7c31.4-21.5,62.8-42.3,101.4-48.7C668.3,294.8,677.3,293.6,686.2,292.3z M586.1,959.7
		c-2.2-3.4-3.1-5.1-4.3-6.5c-21.7-25-43.2-50.1-65.3-74.7c-3.5-3.8-10.1-6.7-15.3-6.8c-29.1-0.7-58.3-0.9-87.4,0.1
		c-6.3,0.2-13.8,4.8-18.2,9.7c-19.9,21.8-38.9,44.5-58.2,66.8c-2.8,3.2-5.8,6.3-10.5,11.3C414.4,959.7,499,959.7,586.1,959.7z
		 M456.8,61.7c-9.2,18.7-18.3,33.1-23.4,48.7c-5.4,16.7-2.1,33.5,11,46.9c8.4,8.6,16.8,8.3,25.3-0.2c12.5-12.4,16.9-35.1,9-52.9
		C472.9,91.3,465.7,78.9,456.8,61.7z"/>
</g>
</svg>
