<?xml version="1.0" encoding="utf-8"?>
<!-- Generator: Adobe Illustrator 19.0.0, SVG Export Plug-In . SVG Version: 6.00 Build 0)  -->
<svg version="1.1" id="Layer_1" xmlns="http://www.w3.org/2000/svg" xmlns:xlink="http://www.w3.org/1999/xlink" x="0px" y="0px"
	 viewBox="0 0 1200 1178.8" style="enable-background:new 0 0 1200 1178.8;" xml:space="preserve">
<path id="XMLID_155_" d="M1201.1,554.3c0,3.9,0,7.8,0,11.7c-6.3,5.7-12.5,11.5-20.8,19.1c0,1.2,0,5.9,0,10.6
	c-0.1,59.6,1.6,119.3-0.6,178.8c-3.5,95-48.9,165.8-132,211.2c-22.5,12.3-48.1,19.1-73.7,28.9c0.2,1.8,0.2,6.1,1,10.2
	c4.6,24.4,14.7,32.3,39,34.2c12.9,1,26.7,3.2,38.1,8.8c34.5,16.8,46.2,47,45.9,83.8c-0.1,14.4-4.1,24.9-18.6,29.5
	c-338.3,0-676.7,0-1015,0c-6.1-4.8-16.6-9-17.5-14.6c-4.1-25.4-4-51,17.5-70.2c10.1-9.1,21.2-17,32.1-25.3
	c21.3-16.2,33.5-37.3,36.2-64c7.4-72,15.1-144,22.6-216c11.5-110.7,22.8-221.4,34.1-332.2c0.3-3.3-0.1-6.9-1.2-10
	c-3.6-9.8-7.2-19.7-11.9-29c-2.1-4.1-6.4-8.9-10.6-10C87.2,390.4,36.1,342.1,11.7,265.3c-3.7-11.7-5.5-24.1-8.1-36.1
	c0-13.3,0-26.5,0-39.8c0.7-2.6,1.6-5.1,2-7.8C20.1,95.4,81,29.7,165.9,9.6c15-3.6,30.6-4.9,45.9-7.2c179.3,0,358.6,0,537.9,0
	c10.4,0.9,20.9,1.5,31.2,2.8c70.3,8.7,131.5,36.9,182.1,86.6c47.7,46.9,80.9,103.2,87.6,170c5.9,59.4,4.8,119.7,4.8,179.6
	c0,28.9-23.5,52.8-52.6,54.7c-32.6,2-65.4,1.1-98.1,1.5c-4.5,0.1-9,0.4-13.5,0.7c0,14.8,0,28.2,0,43c5.3,0,9.9,0,14.5,0
	c88.8,0,177.6,0.1,266.4-0.1C1184.3,541,1194.5,543.3,1201.1,554.3z M1017.4,311.1c-5.8,0-10.3,0-14.9,0c-136.8,0-273.6,0-410.4,0
	c-4.7,0-9.5,0.3-14-0.7c-9.9-2.3-15.7-8.8-15.4-19.1c0.3-9.6,5.5-16.2,15.3-17.9c5.3-0.9,10.8-1.1,16.3-1.1
	c134.9-0.1,269.7,0,404.6,0c4.9,0,9.8,0,14.7,0c0-3,0.2-4.1,0-5.3C989.4,135,879.5,42.6,745,42.2c-175.4-0.5-350.8-0.2-526.2,0.1
	c-14.7,0-29.7,1.6-44,5C69.9,71.8,14.1,180.3,57.3,276.9c24.7,55.3,68.8,87.3,128.5,96.9c12.5,2,19.7,7.8,23.1,19.6
	c2.4,8.6,5.2,17.1,8.2,25.6c4.9,14,11.1,18.5,26,18.6c18.7,0.1,37.4,0,56.1,0c40.2,0,40.5,4,53.8-38.4c6.7-21.4,9.9-23.3,32.7-23.3
	c204.6,0,409.2,0,613.9,0c3.5,0,7.3,0.8,10.4-0.3c2.9-1,7-4,7.1-6.3C1017.6,350.4,1017.4,331.4,1017.4,311.1z M226.9,476.4
	c-0.4,2.5-0.8,4.4-1,6.3c-5.7,55.8-11.3,111.6-17.1,167.4c-12.3,119.7-24.8,239.4-37.1,359.1c-3.9,37.6-19.9,68.4-50.2,91.4
	c-9,6.8-18.6,13-26.9,20.6c-5.2,4.8-8.5,11.7-13.9,19.5c328.3,0,652.8,0,977.2,0c0-26.3-18.3-43.3-46.5-43.4
	c-53.4-0.2-106.8,0.1-160.2-0.1c-120.4-0.4-228.4-37.3-322.1-112.8C418,894.6,353,778,338.3,635.4c-4.9-47.9-2.6-96.5-3.6-144.8
	c-0.1-4.5,0-9.1,0-14.3C298.1,476.4,263.2,476.4,226.9,476.4z M601.9,580.6c-0.4,2.3-0.9,4.2-0.9,6c0.3,65.1-0.8,130.2,1.3,195.2
	c2.9,86.1,68.7,164.8,152.1,186.5c29.1,7.6,58.6,7.5,88.2,7.1c41.3-0.6,82.8,1.3,123.7-3.2c91.4-10,170.8-96.2,173.9-187.9
	c2.2-65.8,1.1-131.7,1.5-197.6c0-1.9-0.5-3.8-0.8-5.9c-83.6,0-166.7,0-253.2,0c3.6,9.6,5.6,17.7,9.6,24.8
	c21.9,39.4,45.6,77.9,66.2,118.1c15.6,30.4,27.7,62.7,30.1,97.6c4.3,64.2-41.9,121.1-105.8,130.1c-61.8,8.7-122.2-33.6-136-95.3
	c-7.6-34.2,0.7-66.5,12.6-98.2c20.5-54.6,49.8-104.6,81.6-153.2c4.2-6.5,5.5-14.9,8.7-24.1C768,580.6,685.2,580.6,601.9,580.6z
	 M686.5,416.1c-2.1-0.9-2.8-1.4-3.5-1.4c-95.8-0.1-191.7-0.2-287.5-0.2c-2.4,0-6.4,1-7,2.6c-5.4,14-13.7,28-14.4,42.3
	c-2,38.9-0.8,77.9-0.6,116.9c0.3,58.1,8.3,115.1,29.6,169.3c61.1,155.1,171.9,255.3,333.3,298.6c23.6,6.3,27.7,3.4,31.8-21
	c0.6-3.7,0.4-7.5,0.6-10.4c-1.3-1.2-1.5-1.6-1.8-1.7c-3.8-0.9-7.6-1.8-11.4-2.7c-87.9-21.8-147.5-75.3-179.3-159.9
	c-13.9-36.9-14.1-75.4-13.9-114.1c0.3-51,0.1-102,0.1-152.8c-16-5.8-22-12.9-20.4-23.4c1.8-11.5,10.1-16.7,26.7-16.9
	c2.3,0,4.7,0,7,0c87.3,0,174.6,0,261.8,0c4.5,0,9,0,14.1,0c0-15.2,0-28.7,0-43.7c-4.7,0-8.9,0-13,0c-28.8,0-57.7,0.3-86.5-0.1
	c-40.8-0.6-65.3-25.5-65.5-66C686.4,426.4,686.5,421.3,686.5,416.1z M1017.6,415c-98.1,0-194.5,0-290.7,0
	c-6.3,35.1,5.6,44.9,32.9,43.7c28.8-1.2,57.6-0.3,86.5-0.3c48.3,0,96.6,0.1,144.9,0c13.8,0,23.1-5.7,24.9-16.4
	C1017.6,433.5,1017.1,424.5,1017.6,415z M851.5,672.7c-25,39.7-47.6,80.4-59.6,126c-5,19.1-6.6,38.2-0.2,57.5
	c9.1,27.5,35.5,51.4,59.8,53.1C851.5,830.4,851.5,751.6,851.5,672.7z M891.3,910.6c4.6-1.3,8.4-2,11.9-3.4
	c38.9-15.4,59.4-56.8,49.2-100.8c-11.1-47.9-34.5-90.5-59.2-132.4c-0.2-0.3-1.4,0.1-1.9,0.1C891.3,752.5,891.3,830.9,891.3,910.6z
	 M809.2,1015.1c-3.2,13.8-6.1,26.5-9.6,41.4c48.3,0,96.1,0,143.6,0c-3.2-13.6-6.5-27.4-9.8-41.4
	C891.9,1015.1,850.7,1015.1,809.2,1015.1z"/>
<path id="XMLID_134_" d="M426.7,311.1c-21.8,0-43.6,0.3-65.4-0.1c-7.7-0.2-12.2,1.5-16.2,9.2c-13.2,25.7-41.9,37.5-69.2,30
	c-26.2-7.3-45.1-32.1-44.7-58.9c0.4-28,20.2-52.5,47.8-58.9c25.8-6,53.2,6.2,66,30.6c4,7.6,8.5,9.4,16.3,9.3
	c41.7-0.3,83.3-0.1,125-0.1c3.1,0,6.2-0.1,9.3,0.1c14.3,0.8,22.8,8.5,22.4,20c-0.4,11.6-9.1,18.7-23.6,18.8
	C471.9,311.2,449.3,311.1,426.7,311.1z M291.9,269.9c-11.5,0-21.6,10-21.7,21.5c-0.1,12,10.3,22.3,22.3,22
	c11.5-0.3,21.4-10.5,21.2-22C313.6,279.9,303.4,269.9,291.9,269.9z"/>
<path id="XMLID_133_" d="M790.3,90.7c24.3,3.9,48.1,13.2,70.5,26.3c32.9,19.2,59.3,45.2,79.3,77.7c7.8,12.7,6.4,24.2-3.9,30.6
	c-9.8,6.1-20.7,2.8-28.4-9.5c-28.1-44.7-67.5-73.6-118.8-86.1c-2.6-0.6-5.2-1.5-7.7-2.6c-9.5-4.3-13.4-11.8-11-21.8
	C772.5,95.7,779.1,91,790.3,90.7z"/>
<path id="XMLID_132_" d="M685.3,124.4c-7.4,0-14.8,0.5-22.1-0.1c-10.8-0.9-18.2-9.3-18-19.2c0.3-10,7.9-18.2,18.8-18.5
	c14.3-0.5,28.7-0.6,43.1,0.1c10.8,0.5,17.9,8.9,17.7,19.3c-0.2,9.8-6.9,17.4-17.4,18.3C700.1,124.9,692.6,124.4,685.3,124.4
	C685.3,124.4,685.3,124.4,685.3,124.4z"/>
<path id="XMLID_131_" d="M1099.8,710.3c-2.1,31-2.6,62.3-7.1,93c-2.4,16.4-11.1,32.1-18.3,47.6c-4.6,10-15.8,13-24.9,8.7
	c-9.6-4.5-14.8-15.8-9-25.7c18.7-31.6,18.8-66,18.2-100.9c-0.5-28.1-0.7-56.1,0.3-84.2c0.3-7.3,3.9-16.6,9.3-21
	c12.1-10.1,28.8,0.4,29.3,18c0.6,21.4,0.2,42.9,0.2,64.3C1098.5,710.2,1099.1,710.2,1099.8,710.3z"/>
</svg>
