<?xml version="1.0" encoding="utf-8"?>
<!-- Generator: Adobe Illustrator 19.0.0, SVG Export Plug-In . SVG Version: 6.00 Build 0)  -->
<svg version="1.1" id="Layer_1" xmlns="http://www.w3.org/2000/svg" xmlns:xlink="http://www.w3.org/1999/xlink" x="0px" y="0px"
	 viewBox="0 0 506.5 907" style="enable-background:new 0 0 506.5 907;" xml:space="preserve">
<g id="XMLID_131_">
	<path id="XMLID_163_" d="M442.6,524.5c-3.6,29.8-7.1,58.3-10.4,86.9c-2.3,19.5-14.9,33.4-34.2,36.3c-4.3,0.6-5.5,2.3-6.1,6.1
		c-10.1,59.1-20.3,118.2-30.4,177.3c-2,11.3-3.8,22.7-5.9,34c-4.6,25.1-24.5,41.8-50.2,41.8c-34.6,0.1-69.1,0.1-103.7,0
		c-25.9-0.1-45.8-17.1-50.2-42.7c-12.1-69.9-24.2-139.9-36.2-209.9c-0.7-3.9-1.4-6.1-6.3-6.8c-19-2.7-31.7-16.6-34-35.7
		c-3.3-27.6-6.7-55.2-10-82.9c-0.1-1.2-0.4-2.3-0.9-4.4c-4.3,0-8.5,0-12.8,0C28,524.3,10.1,512,2.8,491c-7.1-20.2-0.4-41.2,17.3-56
		c1.7-1.4,3.2-5,2.6-6.8c-15.1-47.2,0.2-85.6,34-118.7c6.5-6.3,13.7-11.8,20.9-18c-9.4-14.1-15.8-29.2-16.7-46.1
		C58.9,212,74,186.3,98.1,164.9c15.6-13.8,33.9-23.1,52.8-31.7c9.2-4.2,17.9-10.3,25.4-17.1c11.4-10.4,13.7-24.1,5.7-37.3
		c-6.2-10.3-14.4-19.7-23.1-28.1c-11.3-10.9-11-20.8,2.9-28.5C195.7,3.5,232.2-2.2,270.3,0.6c32.1,2.4,62.6,10.6,88.5,30.6
		c8.8,6.8,16.8,15.2,23.1,24.4c16.1,23.7,14.9,52.1-1.8,75.5c-2.2,3.1-4.6,6.1-7.2,9.5c6.8,4.1,13.5,7.8,19.8,12
		c20.5,13.7,37.6,30.5,47.2,53.8c11,27,8.5,53-5.8,78.1c-1.2,2.1-2.5,4.1-3.7,6.2c-0.1,0.2-0.2,0.4-0.6,1.3c1.8,1.5,3.8,3.1,5.8,4.7
		c20.4,15.8,37.3,34.5,47.1,58.8c9.4,23.4,10.3,47.2,2.2,71c-1.5,4.4-0.9,6.6,2.8,9.5c16.9,13.1,23.4,34.3,17.1,54
		c-6.3,19.9-23.6,33.3-45,34.5C454.3,524.8,448.9,524.5,442.6,524.5z M97.3,313.8c-20,13.8-36.9,30.1-46.1,53
		c-6.9,17.2-7,34.5-1,52.1c1.8,5.1,4.3,6.8,9.8,6.8c128.6-0.2,257.2-0.1,385.9-0.1c1.2,0,2.6,0.4,3.6-0.1c2.4-1.3,5.8-2.6,6.7-4.7
		c5.5-12.9,6.8-26.5,4-40.2c-6.2-30.1-26.1-49.9-50.1-66.8c-1.2,0.8-2.2,1.4-3.2,2.2c-44.7,35.7-96.9,47.8-152.7,48.4
		c-8.9,0.1-14.8-6-14.9-14.2c-0.1-8.1,5.9-14,14.6-14.6c1.9-0.1,3.9,0.1,5.8-0.2c19-2.4,38.2-3.7,56.9-7.6
		c25.6-5.3,49.2-15.9,69.9-32.3c41.1-32.5,41.9-77.2,1.3-110.1c-10.7-8.7-23.5-14.7-35.3-22c-3.9-2.4-7.1-1.7-11.3,0.1
		c-10.9,4.9-22.1,9.3-33.4,13c-8.4,2.7-16.1-1.9-18.2-9.6c-2.2-8,1.8-15.1,10.2-18c1.4-0.5,2.8-0.8,4.1-1.2
		c17.3-5.5,33.6-13,46.5-26.3c18.6-19,18.6-40.9-0.2-59.7c-5-5-10.9-9.6-17-13.1C299.6,29.6,263.4,25.5,225.9,31
		c-11.7,1.7-23.1,5.3-36,8.4c22.1,26.1,34.3,52.4,17.7,84.4c6,1.3,11.5,2.1,16.7,3.7c7.7,2.4,11.6,9.5,9.8,16.9
		c-1.9,7.8-8.6,12.2-16.9,10.9c-2.8-0.5-5.6-1.5-8.5-1.6c-46.4-1.6-83.1,17.2-109.5,54.6c-15.1,21.5-13.3,44.8,2.2,65.8
		c7.3,9.9,17.1,17.9,26.3,26.3c6.8,6.2,8.6,14.3,3.5,21c-4.9,6.4-13.3,7.5-20.6,2.5C106.1,320.8,101.9,317.3,97.3,313.8z
		 M93.7,524.7c3.4,28.3,6.7,55.1,9.9,82c1.2,9.8,4.2,12.5,13.9,12.5c90.7,0,181.4,0,272.1,0c9.7,0,12.8-2.8,13.9-12.5
		c3.8-31.7,7.6-63.3,11.4-95c1.4-11.5,6.3-15.8,18.1-16c8.6-0.1,17.3,0.3,25.9-0.2c11.1-0.6,19.2-9.6,19.2-20.4
		c0-10.8-8.1-19.6-19.1-20.6c-2.6-0.2-5.3-0.2-7.9-0.2c-132,0-263.9,0-395.9,0c-2.4,0-4.8-0.1-7.2,0.1c-11.5,1-19.7,10.6-18.9,22.1
		c0.8,11.6,9.8,19,23.6,19c92.9,0,185.7,0,278.6,0c5.3,0,10.6-0.2,15.8,0.3c7.4,0.7,12.6,6.7,12.7,14.1c0.1,7.2-5.1,13.3-12.6,14.2
		c-3.1,0.4-6.2,0.3-9.3,0.3c-78.2,0-156.4,0-234.7,0C100.3,524.7,97.5,524.7,93.7,524.7z M144.1,648.5c0.2,2.4,0.2,4.1,0.4,5.7
		c11.8,68,23.6,136.1,35.5,204.1c2.4,13.8,9.7,19.8,23.8,19.8c33.3,0,66.7,0.1,100,0c13.5,0,21.1-6.3,23.4-19.5
		c10-57.4,19.9-114.8,29.9-172.2c2.2-12.5,4.2-24.9,6.4-37.9C290,648.5,217.4,648.5,144.1,648.5z"/>
</g>
</svg>
