<?xml version="1.0" encoding="utf-8"?>
<!-- Generator: Adobe Illustrator 19.0.0, SVG Export Plug-In . SVG Version: 6.00 Build 0)  -->
<svg version="1.1" id="Layer_1" xmlns="http://www.w3.org/2000/svg" xmlns:xlink="http://www.w3.org/1999/xlink" x="0px" y="0px"
	 viewBox="0 0 914 1178.8" style="enable-background:new 0 0 914 1178.8;" xml:space="preserve">
<g id="XMLID_53_">
	<path id="XMLID_132_" d="M479.9,2.9c21.7,5.7,44.3,9.1,64.9,17.3c152,60.8,197.9,251.7,91,375.7c-1.7,2-3.4,4-6.3,7.4
		c5,0.3,8.5,0.6,12,0.7c42.8,0.1,85.6-0.4,128.4,0.2c71.6,1,135.1,57.8,143.1,127.4c8.5,74-36.5,142-107.8,159.7
		c-20,5-41.6,4.3-62.5,5.3c-16.3,0.8-32.7,0.2-50.6,0.2c7.9,26.7,15.3,51.8,22.8,77c21.3,71.7,43,143.2,63.7,215
		c28,97.2-45.8,191.1-146.7,187.6c-58.4-2.1-112.6-41.9-131.3-98.2c-12.5-37.6-23-75.9-34.4-113.9c-0.9-2.9-1.2-6.2-2.8-8.7
		c-1.5-2.3-4.4-5.1-6.6-5c-2.2,0.1-5.2,3-6.3,5.4c-2.2,4.8-3.3,10.1-4.8,15.3c-10.1,34-19.6,68.2-30.4,102
		c-20.7,64.7-80.1,106-147.4,103.1c-64.8-2.7-119.5-49.1-135-114.5c-5.9-24.7-4.7-49.2,2.5-73.5c27.4-92.1,54.8-184.2,82.1-276.4
		c1.3-4.3,2.4-8.7,4.2-15.2c-5.9,0-10.6,0.2-15.3,0c-30.5-1.2-61.6,1.1-91.3-4.3C45.8,679.9-2.1,616.7,0.1,546.2
		c2.2-70.3,55.3-129.9,125-140c10.5-1.5,21.3-1.9,31.9-2c41.9-0.2,83.8-0.1,127.7-0.1c-2.6-3.3-3.9-5-5.2-6.6
		c-60.2-72-77-153.4-44-240.9c33-87.5,99.1-137.7,192.1-151.7c2.2-0.3,4.3-1.3,6.4-1.9C449.3,2.9,464.6,2.9,479.9,2.9z M703.7,651.1
		c3-26.4,3.4-26.2,17.1-48.6c2.2-3.6,1.5-11.5-1.1-15c-20.1-28.1-20.2-49.9-0.2-77.3c2.6-3.6,3.8-12.2,1.4-14.9
		c-11-13.1-16.4-27.9-16.9-44.5c-42.4,0-83.8,0-125.9,0c0,14.8,0.1,28.9,0,43c-0.3,23.5-17.6,33.6-38.1,22.1
		c-16.9-9.6-33.6-19.7-50.7-28.9c-3.5-1.9-9.4-2.1-13-0.5c-13.1,5.8-25.6,5.8-38.7-0.2c-3.6-1.6-9.4-1.3-12.9,0.6
		c-17.1,9.2-33.8,19.3-50.7,28.9c-21,11.9-38.2,1.7-38.4-22.7c-0.1-14,0-28,0-42.2c-42.7,0-84.1,0-125.4,0
		c-2.5,23.3-2.8,23.1-16.3,43.6c-2.3,3.6-2.2,11.5,0.3,15c21,30.1,21,47.5-0.5,79.1c-2.2,3.2-2.9,10.7-0.8,13.2
		c12,14.1,18,29.8,16.2,49.5c12.8,0,24.6,0,36.3,0c25.7,0.1,34.3,11.9,26.9,36.7c-23.1,77.5-46.2,154.9-69.2,232.4
		c-1.5,5-2.7,10.1-4.2,15.7c20.3,5.2,34.2,16.4,43.1,34.3c1.6,3.2,9.1,5.9,13.1,5.1c36.8-7.9,53.3-1.1,73.2,30.1
		c2.3,3.6,9.2,6,13.9,5.9c14.1-0.3,28.1-2.1,44.1-3.4c-0.1,0.3,1-2.5,1.8-5.3c6.1-20.4,11.9-41,18.4-61.3
		c9-27.8,36.8-42.8,64.5-34.8c18.7,5.4,30.5,18.1,36.1,36.6c6.9,22.9,13.8,45.8,19.5,64.8c16.8,1.4,30.9,2.2,44.9,4
		c7.2,0.9,11.4-1,14.9-7.2c16.6-29.4,38-37.9,71.2-29.7c4.1,1,12.1-0.9,13.5-3.8c9-18.3,22.9-30,43.2-35.1c-1.5-5.8-2.6-10.6-4-15.2
		c-23-77.5-46.1-154.9-69.2-232.4c-7.7-26,0.8-37.3,28.3-37.4C681.2,651.1,692.6,651.1,703.7,651.1z M574.9,390.1
		c60.8-41.9,88.8-132.5,64.3-208.2C612.8,100.5,537.3,47.1,451,48.9c-82.8,1.7-156.8,59.9-178.7,140.9
		c-22.8,84.6,15.9,164,67.1,200.1c14.4-11.7,20.6-12.3,37.1-2.9c16.2,9.3,32.2,19,48.7,27.8c3.5,1.9,9.5,1.8,13.2,0.2
		c12.7-5.6,24.8-5.5,37.6-0.2c4,1.7,10.3,1.3,14.1-0.7c15.9-8.3,31.2-17.6,46.7-26.6C553.9,377.6,559.7,378,574.9,390.1z
		 M166.1,449.9c-8.1,0-12.2,0-16.4,0c-58.2,0.5-103.4,44-103.8,99.8C45.5,606.6,90.1,650.6,149,650.9c4.7,0,9.3-2.9,14-4.5
		c-1.6-4.7-2.1-10.3-5-14.1c-18-23.3-18.3-50.6,0.5-73.5c5.9-7.1,6.5-12.6,0.4-20c-19.5-24.1-19.3-50.2-0.6-74.3
		C161.2,461,162.7,456.4,166.1,449.9z M748.6,451.6c3.2,5.4,5.1,9.7,7.9,13.3c18,23.2,18.3,50.6-0.6,73.4
		c-6.4,7.8-6.1,13.5,0.4,20.8c11.9,13.4,16.6,29.7,12.1,46.8c-2.7,10.3-9.9,19.4-14.5,29.2c-1.6,3.4-3,8.1-1.8,11.3
		c0.8,2.3,5.8,3.7,9.2,4.4c3.3,0.7,6.8,0.2,10.3-0.1c60.9-4.2,102.2-53.2,95.7-113.5C861.4,483.6,806.4,442.4,748.6,451.6z
		 M275.8,1130.7c41.1-0.1,80.3-27.2,93.8-65c3.3-9.2,0.2-12.9-9.3-11.2c-1.9,0.3-3.7,1-5.5,1.5c-27,7.5-53.1-2.9-66-27.6
		c-5.1-9.8-10.6-11.8-21-8.6c-25.1,7.6-50.4-2.2-63.7-23.5c-1.8-2.9-2.7-6.7-5-8.9c-2.8-2.6-6.6-4.9-10.3-5.3
		c-1.7-0.2-4.5,4.2-5.6,7c-2.1,5.3-3.5,10.9-4.9,16.4C162.3,1069.2,210.4,1130.9,275.8,1130.7z M638.7,1130.7
		c0.4,1.1,0.7,2.1,1.1,3.2c16.4-5.6,33.9-9.1,48.9-17.3c43.9-24.1,59.7-72.7,42.7-126c-1.1-3.4-4.5-8.3-6.9-8.3
		c-3.2,0-7.6,3.3-9.5,6.4c-19,30.6-37.1,38.4-71.8,30.1c-6.7-1.6-11.5-0.5-15.4,6.1c-18.3,30.8-37,38.4-71.7,30.3
		c-3.6-0.8-8.6-0.2-11.5,1.9c-1.5,1.1-0.8,7,0.4,10.1C559.2,1104.7,597.9,1130.8,638.7,1130.7z"/>
	<path id="XMLID_118_" d="M502.9,786.3c0.1,25.5-20.1,46.1-45.4,46.4c-25.4,0.3-46.2-20-46.5-45.3c-0.3-26.2,19.9-46.8,46-46.8
		C482.6,740.7,502.8,760.8,502.9,786.3z"/>
	<path id="XMLID_117_" d="M502.9,601.8c0.1,25.6-20,45.9-45.5,46.1c-26,0.2-46.6-20.3-46.4-46.4c0.2-25.3,20.9-45.9,46.1-45.8
		C482.4,555.8,502.9,576.4,502.9,601.8z"/>
	<path id="XMLID_116_" d="M457.1,347.9c-27.2-0.7-49.8-9.4-68.8-27c-11.4-10.6-12.8-24.3-3.7-34.3c8.9-9.7,22.2-9.7,33.7-0.2
		c25.6,21.1,52,21.2,77.6,0.2c12.1-9.9,25.7-9.7,34.5,0.6c8.6,10.2,6.8,23.9-4.8,34.3C505.7,339.5,482.3,347.9,457.1,347.9z"/>
	<path id="XMLID_115_" d="M514.3,212.9c0.5-12.2,11.2-22.2,23.3-21.9c12.7,0.3,22.9,11.3,22.4,24c-0.5,12.4-10.7,22.1-23.2,21.8
		C524.2,236.5,513.8,225.6,514.3,212.9z"/>
	<path id="XMLID_114_" d="M399.5,214.3c-0.1,12.4-10.2,22.4-22.7,22.5c-12.8,0.1-23.3-10.4-23.1-23.2c0.1-12.3,10.3-22.5,22.6-22.6
		C388.9,190.9,399.7,201.8,399.5,214.3z"/>
</g>
</svg>
