<?xml version="1.0" encoding="utf-8"?>
<!-- Generator: Adobe Illustrator 19.0.0, SVG Export Plug-In . SVG Version: 6.00 Build 0)  -->
<svg version="1.1" id="Layer_1" xmlns="http://www.w3.org/2000/svg" xmlns:xlink="http://www.w3.org/1999/xlink" x="0px" y="0px"
	 viewBox="0 0 641.7 630.4" style="enable-background:new 0 0 641.7 630.4;" xml:space="preserve">
<style type="text/css">
	.st0{fill:url(#XMLID_249_);}
	.st1{opacity:0.2;}
	.st2{fill:url(#XMLID_250_);}
	.st3{opacity:0.1;}
	.st4{opacity:0.4;fill:#FFFFFF;}
	.st5{opacity:0.3;fill:#FFFFFF;}
	.st6{opacity:0.2;fill:#FFFFFF;}
	.st7{fill:#FFFFFF;}
	.st8{opacity:0.3;fill:url(#XMLID_251_);}
	.st9{fill:url(#XMLID_252_);}
	.st10{opacity:0.3;}
	.st11{fill:url(#XMLID_253_);}
	.st12{fill:url(#XMLID_254_);}
	.st13{fill:url(#XMLID_255_);}
	.st14{fill:url(#XMLID_256_);}
	.st15{fill:url(#XMLID_257_);}
	.st16{fill:url(#XMLID_258_);}
	.st17{fill:url(#XMLID_259_);}
	.st18{fill:url(#XMLID_260_);}
	.st19{fill:url(#XMLID_261_);}
	.st20{fill:url(#XMLID_262_);}
	.st21{fill:url(#XMLID_263_);}
	.st22{fill:url(#XMLID_264_);}
	.st23{fill:url(#XMLID_265_);}
	.st24{fill:url(#XMLID_266_);}
	.st25{fill:url(#XMLID_267_);}
	.st26{fill:url(#XMLID_268_);}
	.st27{fill:url(#XMLID_269_);}
	.st28{fill:#FFCACF;}
	.st29{fill:url(#XMLID_270_);}
	.st30{opacity:0.3;fill:#070001;}
	.st31{opacity:0.2;fill:#070001;}
	.st32{opacity:0.7;fill:#FFFFFF;}
	.st33{opacity:0.6;fill:#FFFFFF;}
	.st34{fill:#702717;}
	.st35{fill:#531406;}
	.st36{fill:#8E3C2A;}
	.st37{fill:#B4050C;}
	.st38{opacity:0.2;fill:#020000;}
	.st39{opacity:0.3;fill:#020000;}
	.st40{fill:url(#XMLID_271_);}
	.st41{fill:url(#XMLID_272_);}
	.st42{fill:#95422E;}
	.st43{fill:#751F08;}
	.st44{fill:url(#XMLID_273_);}
	.st45{fill:#FFEDE7;}
	.st46{opacity:0.15;}
	.st47{opacity:0.5;fill:#FFFFFF;}
	.st48{opacity:0.1;fill:#FFFFFF;}
	.st49{fill:url(#XMLID_274_);}
	.st50{fill:url(#XMLID_275_);}
	.st51{fill:url(#XMLID_276_);}
	.st52{fill:url(#XMLID_277_);}
	.st53{fill:url(#XMLID_278_);}
	.st54{fill:url(#XMLID_279_);}
	.st55{fill:url(#XMLID_280_);}
	.st56{fill:url(#XMLID_281_);}
	.st57{fill:url(#XMLID_282_);}
	.st58{fill:url(#XMLID_283_);}
</style>
<g id="XMLID_1192_">
	<g id="XMLID_140_">
		<linearGradient id="XMLID_249_" gradientUnits="userSpaceOnUse" x1="257.4799" y1="136.7107" x2="643.4584" y2="373.5602">
			<stop  offset="0" style="stop-color:#FFAF15"/>
			<stop  offset="0.3648" style="stop-color:#FF9C15"/>
			<stop  offset="1" style="stop-color:#FF7215"/>
		</linearGradient>
		<path id="XMLID_193_" class="st0" d="M409,0.4c-126.6,0-229.3,102.7-229.3,229.3C179.8,356.3,282.4,459,409,459
			c126.6,0,229.3-102.7,229.3-229.3C638.3,103.1,535.7,0.4,409,0.4z M484.4,249.8c-5.3,5.3-35.5-7.2-44.7,5.3
			c-9.2,12.5-15.1,32.7-14.5,46.3c0.7,13.6-21.7-34.4-42.1-29.2c-20.4,5.3-31.6,12.1-29.6,6c2-6,25-48.8-1.3-57
			c-26.3-8.2-24.8-21.1-11.8-22c0,0,22.4-0.7,31.6-4.6c9.2-3.9,15.8-19.6,23.7-18c7.9,1.6,18.4,33.5,25,27.1
			c6.6-6.4,33.6-31.9,38.2-27.1c4.6,4.9-17.8,31.9-7.9,38.8C460.7,222.1,489.6,244.5,484.4,249.8z"/>
		<path id="XMLID_190_" class="st1" d="M626.5,208.4c-8.6-13.1-9.2-42.8-17.8-81c-8.6-38.2-40.1-51.3-86.2-90.1
			C476.5-1.6,439.6-0.9,409,0.4c-30.6,1.3-131.9,52-131.9,52c-113.2,65.8-80.9,169.7-84.2,189.5c-3.3,19.7,19.8,106.4,53.3,132.9
			c33.5,26.5,110.5,82.9,162.8,84.2c52.3,1.3,103-49.4,137.2-66.7c34.2-17.3,60.5-36,79.3-86.8C644.2,254.7,635,221.5,626.5,208.4z
			 M484.7,248.8c-4.4,7.5-38.5-3.9-48,13.5c-9.5,17.4-5.6,48.7-14.1,44.7c-8.6-4-27.3-32.2-42.1-29.3c-14.8,3-37.2,9.9-29.9-4.3
			c7.2-14.2-4.3-46.1-13.5-49.3c-9.2-3.3-25.3-31.3,6.9-31.6c0,0,30.3-3.9,35.5-12.5c5.3-8.5,16.8-17.8,25.3-4.9
			c8.6,12.8,13.5,26.6,20.1,17.4c6.6-9.2,42.8-35.2,33.2-8.9c-9.5,26.3-7.7,29.9,1.6,35.2C468.9,224.1,489.1,241.2,484.7,248.8z"/>
		<linearGradient id="XMLID_250_" gradientUnits="userSpaceOnUse" x1="294.6704" y1="125.3075" x2="648.6306" y2="433.2131">
			<stop  offset="0" style="stop-color:#FFC6BB"/>
			<stop  offset="1" style="stop-color:#FF5551"/>
		</linearGradient>
		<path id="XMLID_187_" class="st2" d="M619.7,218.9c-9.6-14.5-12.3-54-21.9-94.7c-9.6-40.7-38.6-38.2-74.6-78.6
			c-36-40.3-64.7-39.8-94.8-44.3c-30.1-4.5-121.2,47.6-146.5,57.9c-102.2,41.4-78.1,130.3-82.5,180.3c-4.4,50,31.6,117.5,59.7,135.1
			c28.1,17.5,71.1,61.4,120.2,75.4c49.1,14,104.4-21.9,138.6-57.7c34.2-35.8,86-31.8,101.8-72C635.5,280.2,629.3,233.3,619.7,218.9z
			 M467.3,262.3c-22.4,7.9-30.3,53.3-44.1,57.2c-13.8,3.9-17.8-42.1-64.5-34.9c-46.7,7.2-18.4-40.2-34.2-57.3
			c-15.8-17.1-32.9-50.6,4-47.4c0,0,22.4-2,38.2-17.8c15.8-15.8,28.9-21.6,55.3-6.9c26.3,14.7,62.5-19.9,64.5-6.2
			c2,13.7-28.9,38.1-6.6,65.7C502.1,242.5,489.6,254.4,467.3,262.3z"/>
		<path id="XMLID_184_" class="st3" d="M619.2,218.9c-9.6-14.5-12.3-54-21.9-94.7c-9.6-40.7-38.6-38.2-74.6-78.6
			C486.7,5.2,458,5.8,427.9,1.3c-30.1-4.5-121.2,47.6-146.5,57.9c-102.2,41.4-78.1,130.3-82.5,180.3c-4.4,50,31.6,117.5,59.6,135.1
			c28.1,17.5,71.1,61.4,120.2,75.4c49.1,14,104.4-21.9,138.6-57.7c34.2-35.8,86-31.8,101.8-72C635,280.2,628.8,233.3,619.2,218.9z
			 M567.7,289.8c-13.3,31.4-47,32.2-75.8,60.1c-28.8,27.9-72.1,77.3-113.4,66.3c-41.3-11-90.5-70.4-114.1-84.1
			c-23.6-13.7-53.9-66.4-50.2-105.5c3.7-39-16.6-108.5,69.4-140.8c21.3-8,97.9-48.7,123.2-45.2c25.3,3.6,49.5,3.1,79.7,34.6
			c30.3,31.5,54.6,29.5,62.7,61.3c8.1,31.8,10.3,62.7,18.4,74C575.8,221.8,581,258.4,567.7,289.8z"/>
		<path id="XMLID_183_" class="st4" d="M409,338.9c0,24.3-18.8,34.6-50.7,25.4c-26.9-7.8-50.6-1.1-50.6-25.4c0-24.3,34.2-44,62.2-44
			C397.9,294.9,409,314.6,409,338.9z"/>
		<path id="XMLID_182_" class="st5" d="M553.4,193.2c0,23.4-18.9,49-34.5,49c-15.6,0-40.2-29.7-40.2-53.2
			c0-23.5,24.6-43.6,40.2-43.6C534.6,145.4,553.4,169.8,553.4,193.2z"/>
		<path id="XMLID_181_" class="st4" d="M319.2,98c22.3-2.1,41.9-22.5,55.9-33.1c14-10.6,82-20.6,97.8,31.5
			c15.8,52.1-45.4,56-70.8,36.4c-25.4-19.6-44.5,44.4-80.4,30.2c-36-14.1-48.7,32.6-21.5,55.2c27.2,22.6,24.8,63.4-1.5,83.1
			c-26.3,19.8-72.1-14.4-69.3-69.9C233,156.2,238.3,105.7,319.2,98z"/>
		<path id="XMLID_180_" class="st6" d="M502.6,318.9c-12,15.5-50.5,36.6-62.4,20c-7.6-10.7,10.5-33.4,17.9-56.2
			c6-18.7,42.2-24.6,52.8-16.9C527.8,278.2,514.7,303.4,502.6,318.9z"/>
		<path id="XMLID_179_" class="st1" d="M215.6,113.5c0,0,12.5,2.6,29.6-17.8c17.1-20.4,62.5-28.3,77-38.2
			c14.5-9.9,93.4-45.4,96.1-38.8c2.6,6.6-42.1,24.3-55.9,30.3C348.5,55,264.9,98,243.2,113.6c-21.7,15.7-79.6,66.3-58.9,92
			c20.7,25.7,79.9-33.6,94.4-49.3c14.5-15.8,167.1-98,218.4-95.4c51.3,2.7,22.4,23.9,3.3,27.1c-19.1,3.2-108.6,40-162.5,60.4
			c-53.9,20.4-72.4,33.1-86.2,43.9c-13.8,10.7-80.5,59.4-71.8,82.5c8.7,23,25.8,23,64.6,0c38.8-23,98-63.8,119.7-62.5
			c21.7,1.3,45.4,2.4,71.1-27c25.7-29.4,61.8-39.5,133.6-46.1c71.7-6.6,32.2,20.5,20.4,23.1c-11.8,2.6-74.3,49.3-102.6,52.6
			c-28.3,3.3-94.1,32.2-117.1,35.5c-23,3.3-115.8,35.8-140.8,58.4c-25,22.6-38.8,34.4-16.4,59.4c22.4,25,26.3,31.6,62.5,12.5
			c36.2-19.1,163.8-86,189.5-99.2c25.7-13.3,142.8-42.2,152.7-30.4c9.8,11.8-14.5,19.7-36.9,27c-22.4,7.2-87.5,21.3-113.2,36.6
			c-25.7,15.3-62.5,30.5-88.8,34.4c-26.3,3.9-71.1,25.4-92.1,42.6c-21.1,17.2-29.6,36.3,5.9,34.3c35.5-2,54-17.1,73-20.4
			c19.1-3.3,144.7-41.4,178.9-53.3c34.2-11.9,69.7-21.8,67.1-10.3c-2.6,11.6-23.7,20.8-48.7,24.1c-25,3.3-70.4,20.4-71.1,47.4
			c-0.7,27,2,6.6,19.7-7.9c17.8-14.5,63.2-23.7,93.4-37.5c30.3-13.8,37.5-46.1-2.6-47.4c-40.1-1.3-90.8,29.2-126.3,38
			c-35.5,8.7-75.7,26.5-99.3,28.5c-23.7,2-37.5,11.2-53.9,17.8c-16.4,6.6-59.2,9.4-25-9.4c34.2-18.9,56.6-24.8,84.2-28.1
			c27.6-3.3,89.5-47.2,134.2-55.5c44.7-8.3,137.5-39.9,125-62.9c-12.5-23-46.7-11.9-75-11.9c-28.3,0-102,24.4-119.7,36.8
			c-17.8,12.5-93.4,40.1-122.4,62.8c-29,22.7-67.8,43.8-79,39.8c-11.2-4-30.3-18.5-24.3-34.6c5.9-16.1,31.1-32.6,73.2-48.2
			c42.1-15.6,111.4-45.1,181.2-61.2c78.5-18.1,113.5-53,142.3-70.5c22.5-13.7,9.2-45.7-32.3-40c-41.4,5.7-95.2,2.5-125.7,23.3
			c-30.5,20.8-52.6,48.8-69.7,50.8c-17.1,2-65.8,4-111.8,38.2s-89.5,45.9-80.9,27.6c8.6-18.4,66.5-60.5,105.3-76.9
			c38.8-16.5,96.7-46.3,149.3-62.6c52.6-16.4,108.6-36.1,87.5-61.7c-21.1-25.6-84.9-13.1-121.7,4c-36.8,17.1-123,51.3-139.5,75
			c-16.4,23.7-87.5,71.3-82.2,52.4c5.3-18.9,28.9-51.1,61.2-70.8c32.2-19.7,133.1-69.5,154.1-77.8c20.9-8.4,38-28.8,29.5-35.3
			c-8.6-6.6-50.7,2.6-71.7,11.2C347.2,28,310.3,49,296.5,52.3C282.7,55.6,194,108.8,215.6,113.5z"/>
		<path id="XMLID_169_" class="st7" d="M214.6,110.3c0,0,12.5,2.6,29.6-17.8c17.1-20.4,62.5-28.3,77-38.2
			c14.5-9.9,93.4-45.4,96.1-38.8c2.6,6.6-42.1,24.3-55.9,30.3c-13.8,5.9-97.4,48.9-119.1,64.6c-21.7,15.7-79.6,66.3-58.9,92
			c20.7,25.6,79.9-33.6,94.4-49.3c14.5-15.8,167.1-98,218.4-95.4c51.3,2.6,22.4,23.9,3.3,27.1c-19.1,3.2-108.6,40-162.5,60.4
			c-54,20.4-72.4,33.1-86.2,43.9c-13.8,10.7-80.5,59.4-71.8,82.4c8.7,23,25.8,23,64.6,0c38.8-23,98-63.8,119.7-62.5
			c21.7,1.3,45.4,2.4,71.1-27c25.7-29.4,61.8-39.5,133.6-46.1c71.7-6.6,32.2,20.5,20.4,23.1c-11.8,2.6-74.3,49.3-102.6,52.6
			c-28.3,3.3-94.1,32.2-117.1,35.5c-23,3.3-115.8,35.8-140.8,58.4c-25,22.5-38.8,34.4-16.4,59.4c22.4,25,26.3,31.6,62.5,12.5
			c36.2-19.1,163.8-85.9,189.5-99.2C489,264.9,606.1,236,616,247.8c9.8,11.8-14.5,19.7-36.9,27c-22.4,7.2-87.5,21.3-113.2,36.6
			c-25.7,15.3-62.5,30.5-88.8,34.4c-26.3,3.9-71.1,25.4-92.1,42.6c-21,17.2-29.6,36.3,5.9,34.3c35.5-2,53.9-17.1,73-20.4
			c19.1-3.3,144.7-41.4,179-53.3c34.2-11.8,69.7-21.8,67.1-10.2c-2.6,11.6-23.7,20.8-48.7,24.1c-25,3.3-70.4,20.4-71.1,47.4
			c-0.7,27,2,6.6,19.7-7.9c17.8-14.5,53-31.6,87.2-38.2c32.7-6.3,43.8-45.4,3.6-46.7c-40.1-1.3-90.8,29.2-126.3,38
			c-35.5,8.7-75.7,26.5-99.3,28.5c-23.7,2-37.5,11.2-54,17.8c-16.4,6.6-59.2,9.4-25-9.4c34.2-18.8,56.6-24.8,84.2-28.1
			c27.6-3.3,89.5-47.2,134.2-55.5c44.7-8.3,137.5-39.9,125-62.9c-12.5-23-46.7-11.8-75-11.8c-28.3,0-102,24.3-119.7,36.8
			c-17.8,12.5-93.4,40.1-122.4,62.8c-28.9,22.7-67.8,43.8-79,39.8c-11.2-4-30.3-18.5-24.3-34.6c5.9-16.1,31.1-32.6,73.2-48.2
			c42.1-15.6,111.4-45.1,181.2-61.2c78.5-18.1,113.5-53,142.3-70.5c22.5-13.7,9.2-45.7-32.3-40c-41.4,5.7-95.2,2.5-125.7,23.3
			c-30.5,20.8-52.6,48.9-69.7,50.8c-17.1,2-65.8,4-111.8,38.2c-46.1,34.2-89.5,46-80.9,27.6c8.6-18.4,66.5-60.5,105.3-76.9
			c38.8-16.4,96.7-46.3,149.3-62.6c52.6-16.4,108.6-36.1,87.5-61.7c-21.1-25.7-84.9-13.2-121.7,3.9c-36.8,17.1-123,51.3-139.5,75
			C260,160.3,189,207.9,194.2,189c5.3-18.9,28.9-51.1,61.2-70.8c32.2-19.7,133.1-69.5,154.1-77.8C430.4,32,447.5,11.6,439,5
			c-8.6-6.6-50.7,2.6-71.7,11.2c-21.1,8.6-57.9,29.6-71.7,32.9C281.7,52.4,193.1,105.6,214.6,110.3z"/>
		<linearGradient id="XMLID_251_" gradientUnits="userSpaceOnUse" x1="177.7877" y1="213.112" x2="640.3705" y2="213.112">
			<stop  offset="0" style="stop-color:#FFDBFF"/>
			<stop  offset="1" style="stop-color:#ADBCFF"/>
		</linearGradient>
		<path id="XMLID_166_" class="st8" d="M214.2,110.3c0,0,12.5,2.6,29.6-17.8c17.1-20.4,62.5-28.3,77-38.2
			c14.5-9.9,93.4-45.4,96.1-38.8c2.6,6.6-42.1,24.3-55.9,30.3c-13.8,5.9-97.4,48.9-119.1,64.6c-21.7,15.7-79.6,66.3-58.9,92
			c20.7,25.7,79.9-33.6,94.4-49.4c14.5-15.8,167.1-98,218.4-95.4c51.3,2.6,22.4,23.9,3.3,27.1c-19.1,3.2-108.6,40-162.5,60.4
			c-54,20.4-72.4,33.1-86.2,43.9c-13.8,10.7-80.5,59.4-71.8,82.4c8.7,23,25.8,23,64.6,0c38.8-23,98-63.8,119.7-62.5
			c21.7,1.3,45.4,2.4,71.1-27c25.7-29.4,61.8-39.5,133.6-46.1c71.7-6.6,32.2,20.5,20.4,23.1c-11.8,2.6-74.3,49.3-102.6,52.6
			c-28.3,3.3-94.1,32.2-117.1,35.5c-23,3.3-115.8,35.8-140.8,58.4c-25,22.5-38.8,34.4-16.4,59.4s26.3,31.6,62.5,12.5
			c36.2-19.1,163.8-85.9,189.5-99.2c25.7-13.3,142.8-42.2,152.7-30.4c9.8,11.8-14.5,19.7-36.9,27c-22.4,7.2-87.5,21.3-113.2,36.6
			c-25.7,15.3-62.5,30.5-88.8,34.4c-26.3,4-71.1,25.4-92.1,42.6c-21.1,17.2-29.6,36.3,5.9,34.3c35.5-2,53.9-17.1,73-20.4
			c19.1-3.3,144.7-41.4,179-53.3c34.2-11.8,68.3-23.1,65.7-11.6c-2.6,11.6-22.2,22.1-47.2,25.4c-25,3.3-70.4,20.4-71,47.4
			c-0.7,27,2,6.6,19.7-7.9c17.8-14.5,51.7-29.6,87.6-38.1c32.4-7.7,43.3-45.4,3.2-46.7c-40.1-1.3-90.8,29.2-126.3,38
			c-35.5,8.7-75.7,26.5-99.3,28.5c-23.7,2-37.5,11.2-54,17.8c-16.4,6.6-59.2,9.4-25-9.4c34.2-18.8,56.6-24.8,84.2-28.1
			c27.6-3.3,89.5-47.2,134.2-55.5c44.7-8.3,137.5-39.9,125-62.9c-12.5-23-46.7-11.8-75-11.8c-28.3,0-102,24.3-119.7,36.8
			c-17.8,12.5-93.4,40.1-122.4,62.8c-28.9,22.7-67.8,43.8-79,39.8c-11.2-4-30.3-18.5-24.3-34.6c5.9-16.1,31.1-32.6,73.3-48.2
			c42.1-15.6,111.4-45.1,181.2-61.1c78.5-18.1,113.5-53,142.3-70.5c22.5-13.7,9.2-45.7-32.3-40c-41.4,5.7-95.2,2.5-125.7,23.3
			c-30.5,20.8-52.6,48.9-69.7,50.8c-17.1,2-65.8,4-111.8,38.2c-46.1,34.2-89.5,46-80.9,27.6c8.6-18.4,66.4-60.5,105.3-76.9
			c38.8-16.4,96.7-46.3,149.3-62.6c52.6-16.3,108.6-36.1,87.5-61.7c-21.1-25.7-84.9-13.2-121.7,3.9c-36.8,17.1-123,51.3-139.5,75
			c-16.4,23.7-87.5,71.3-82.2,52.4c5.3-18.9,28.9-51.1,61.2-70.8c32.2-19.7,133.1-69.5,154.1-77.8C430,32,447.1,11.6,438.6,5
			c-8.6-6.6-50.7,2.6-71.7,11.2c-21.1,8.6-57.9,29.6-71.7,32.9C281.3,52.4,192.7,105.6,214.2,110.3z"/>
		<path id="XMLID_163_" class="st7" d="M265.9,153.4c0,0,19.1-28.6,42.8-37.2C332.4,107.7,415.9,61.6,434,58
			c18.1-3.6-18.8,15.8-41.8,25.7c-23,9.9-60.2,27.9-69.7,33.5C313,122.8,258.5,166.7,265.9,153.4z"/>
		<path id="XMLID_160_" class="st7" d="M267.9,64.9c1-0.8,41.2-12.3,50-19.7c8.8-7.4,54.8-28.5,68.9-31.1
			c14-2.6-36.8,17.5-51.3,25.4c-14.5,7.9-24.6,16.4-31.1,18.1C297.7,59.2,241.1,85.9,267.9,64.9z"/>
		<path id="XMLID_144_" class="st7" d="M239,119.7c2.2-1.7,102.6-62.4,142.1-76.4c39.5-14-56.2,37.2-73.2,46.1
			C290.8,98.3,219.7,134.6,239,119.7z"/>
		<path id="XMLID_143_" class="st7" d="M427.1,175c0,0,36.4-44.7,82.9-46.1c46.5-1.3-21.5,12.7-37.3,20.2
			C456.9,156.6,417.9,189.9,427.1,175z"/>
		<path id="XMLID_142_" class="st7" d="M382.8,248.7c1.4-1.1,72.5-27.6,95.9-30.3c23.4-2.6,63.8-26.8,73.4-33.3
			c9.6-6.6,7,5.5-26.1,22.4c-33.1,16.9-59.9,17.8-73.5,22.3C439,234.2,363.5,263.2,382.8,248.7z"/>
	</g>
	<g id="XMLID_104_">
		<linearGradient id="XMLID_252_" gradientUnits="userSpaceOnUse" x1="44.8608" y1="358.3132" x2="251.0691" y2="358.3132">
			<stop  offset="0" style="stop-color:#D66C1A"/>
			<stop  offset="0.5698" style="stop-color:#BF4910"/>
			<stop  offset="1" style="stop-color:#B03409"/>
		</linearGradient>
		<path id="XMLID_139_" class="st9" d="M251.1,358.3c0,49.9-31.5,90.3-103.1,90.3c-69.9,0-103.1-40.4-103.1-90.3
			C44.9,308.4,91,268,148,268C204.9,268,251.1,308.4,251.1,358.3z"/>
		<path id="XMLID_138_" class="st10" d="M255.2,345.8c0,31.1-48.1,56.4-107.4,56.4c-59.3,0-107.4-25.3-107.4-56.4
			c0-31.2,48.1-56.4,107.4-56.4C207.1,289.4,255.2,314.7,255.2,345.8z"/>
		<linearGradient id="XMLID_253_" gradientUnits="userSpaceOnUse" x1="17.4254" y1="318.0697" x2="277.7759" y2="318.0697">
			<stop  offset="0" style="stop-color:#D66C1A"/>
			<stop  offset="0.5698" style="stop-color:#BF4910"/>
			<stop  offset="1" style="stop-color:#B03409"/>
		</linearGradient>
		<ellipse id="XMLID_137_" class="st11" cx="147.6" cy="318.1" rx="130.2" ry="71.7"/>
		<path id="XMLID_136_" class="st10" d="M275,294.1c0,31.1-53.9,60.2-124.5,60.2c-24.1,0-49.9-6.7-69.1-11.8
			c-37.2-9.9-62.1-27.8-62.1-48.4c0-31.2,57.2-56.4,127.9-56.4C217.8,237.7,275,262.9,275,294.1z"/>
		<path id="XMLID_135_" class="st5" d="M140.4,369.6c-2.6,11.2-32.3,11.3-65.6-0.6c-30-10.7-51.9-28.9-49.3-40.1
			c2.6-11.2,20.9,9.6,53.3,19.6C112.6,358.9,143,358.3,140.4,369.6z"/>
		<path id="XMLID_134_" class="st5" d="M99.5,407.1c-2.7,9-10,19.1-18.6,16.5c-9.3-2.8-20.9-23.6-21.4-30.7
			C58.9,384.3,101.2,401.3,99.5,407.1z"/>
		<path id="XMLID_132_" class="st4" d="M77.3,357.6c-1.4,4.4-13.5-0.2-26.4-6.1c-11.6-5.4-21.9-14.4-19.3-18.3
			c2.6-4,9.4,4.3,21.7,10.2C66.6,349.8,78.8,353.2,77.3,357.6z"/>
		<linearGradient id="XMLID_254_" gradientUnits="userSpaceOnUse" x1="4.0699" y1="226.248" x2="281.7563" y2="226.248">
			<stop  offset="0" style="stop-color:#FFB19C"/>
			<stop  offset="1" style="stop-color:#FF989C"/>
		</linearGradient>
		<path id="XMLID_131_" class="st12" d="M154.4,113.1c2.2-0.5-2.8,27.8,3.9,27.8s14.2,7.2,15.2,10.5c0.9,3.3,11.5,0.6,16.5,5
			c5,4.4,56.6,6.7,61.6,37.7c5,31.1,18.3,30,18.3,30s17-13.3,10.4,38.9c-6.5,52.2-124.2,84.9-186.4,74.4
			c-48.7-8.3-94.6-41.3-89.4-75.5c0.7-4.9,0.5-14.1,4-18.6c5.8-7.5,8.2-5.2,13.3-9.7L35,214.7c0,0,12.8-14.1,12-27.2
			c-0.3-4.4,5.1-14.2,17.8-9.5c38.6,14.2,13,19,13,19s5-52.7,35-33.9c30,18.9,10.9,2.8,10.9,2.8S121,121.4,154.4,113.1z"/>
		<linearGradient id="XMLID_255_" gradientUnits="userSpaceOnUse" x1="86.8218" y1="282.5542" x2="291.699" y2="282.5542">
			<stop  offset="0" style="stop-color:#FA3840"/>
			<stop  offset="1" style="stop-color:#B00F13"/>
		</linearGradient>
		<path id="XMLID_130_" class="st13" d="M86.8,336c0,0,137.2,14.4,182.6-59.7c13.5-22,5-44.2,0.4-52.2c-6.9-11.9,43.7,0.3,10.4,68
			C246.1,361.7,85,346.2,86.8,336z"/>
		<linearGradient id="XMLID_256_" gradientUnits="userSpaceOnUse" x1="33.8179" y1="230.4381" x2="268.0115" y2="230.4381">
			<stop  offset="0" style="stop-color:#FA3840"/>
			<stop  offset="1" style="stop-color:#B00F13"/>
		</linearGradient>
		<path id="XMLID_129_" class="st14" d="M34.7,209.3c1.9-4.4,9.3,63.1,138.7,47.6c104.5-12.5,73.7-68,75.3-71.1
			c1.6-3,29,11.6,15.5,44.4c-17.1,41.5-101.9,50.2-145.4,42.7C60.8,263,27.9,224.8,34.7,209.3z"/>
		<linearGradient id="XMLID_257_" gradientUnits="userSpaceOnUse" x1="126.0134" y1="146.1857" x2="172.8416" y2="146.1857">
			<stop  offset="0" style="stop-color:#FFCAC7"/>
			<stop  offset="1" style="stop-color:#D992AA"/>
		</linearGradient>
		<path id="XMLID_128_" class="st15" d="M136.5,172.1c0,0-17.7-10.1-7.1-32.4c10.5-22.3,20.6-23.7,21.5-22.9
			c0.9,0.8-10,25.8-1.9,33.3c8.1,7.5,2.2-5.9,8.4-6.9c6.2-1,22.9,8.9,11.6,23.4C157.7,181.2,137.2,174.3,136.5,172.1z"/>
		<linearGradient id="XMLID_258_" gradientUnits="userSpaceOnUse" x1="72.3388" y1="192.5654" x2="233.0314" y2="192.5654">
			<stop  offset="0" style="stop-color:#FA3840"/>
			<stop  offset="1" style="stop-color:#B00F13"/>
		</linearGradient>
		<path id="XMLID_127_" class="st16" d="M82.2,171.1c4.7,0.6-8.5,17.8,2.2,27.5c15.2,13.8,47.4,27.1,90.1,10.7
			c64.5-24.8,6.8-51.8,20.1-52.7c51.7-3.4,56.1,57.8-16.3,69.6c-46.4,7.6-83.9-3.9-99.9-22.4C65,188.6,77.5,170.6,82.2,171.1z"/>
		<linearGradient id="XMLID_259_" gradientUnits="userSpaceOnUse" x1="34.9703" y1="212.5745" x2="252.111" y2="212.5745">
			<stop  offset="0" style="stop-color:#FF6A71"/>
			<stop  offset="1" style="stop-color:#B73840"/>
		</linearGradient>
		<path id="XMLID_146_" class="st17" d="M226.4,166.7c9.8,11.3,10.8,35.6-25.9,52.7c-47.1,22-109.6,5.3-107.3,6.8
			c12.4,8.3,88.7,24,130.6-11.5c7.4-6.3,12.3-11.9,15.3-16.8c-5.4,16-25.9,34.2-75.9,44.7c-84.4,17.7-127.8-41-127.8-41
			c-3.5,23,27,52.1,77.8,56.3c50.8,4.2,122.3-14.9,136-48.8C262.7,175.2,226.4,166.7,226.4,166.7z M228.7,167.6
			c-0.5-0.2-1-0.4-1.3-0.5C227.8,167.2,228.2,167.4,228.7,167.6z"/>
		<linearGradient id="XMLID_260_" gradientUnits="userSpaceOnUse" x1="83.5078" y1="181.022" x2="197.229" y2="181.022">
			<stop  offset="0" style="stop-color:#FF6A71"/>
			<stop  offset="1" style="stop-color:#B73840"/>
		</linearGradient>
		<path id="XMLID_124_" class="st18" d="M96.6,161.7c0,0-27.5,24.4,11.9,36.1c39.4,11.7,93.1-11.9,74-43.5c0,0,28,4.5,6.7,34.3
			C166.8,220.1,43.6,213.6,96.6,161.7z"/>
		<linearGradient id="XMLID_261_" gradientUnits="userSpaceOnUse" x1="110.4798" y1="163.6051" x2="187.5909" y2="163.6051">
			<stop  offset="0" style="stop-color:#FA3840"/>
			<stop  offset="1" style="stop-color:#B00F13"/>
		</linearGradient>
		<path id="XMLID_123_" class="st19" d="M173.4,151.4c1.5,3.8,1.1,7-0.3,9.7c-5.9,8.4-14.2,5.8-17.7,4.2
			c-16.1-8.2-20.1-28.4-20.1-28.4c-9.3,23.3-1.8,31.6,3.1,35.7c-7.8-1.9-13.8-7.3-14.6-15.6c0,0-16.6-0.6-12.7,18.3
			c2.2,10.8,22.7,16.8,40.4,14.4c16.1-2,31.1-12.4,35-21.9C192.4,153.1,173.4,151.4,173.4,151.4z"/>
		<g id="XMLID_141_">
			<linearGradient id="XMLID_262_" gradientUnits="userSpaceOnUse" x1="4.9395" y1="266.498" x2="278.8576" y2="266.498">
				<stop  offset="0" style="stop-color:#FF6A71"/>
				<stop  offset="1" style="stop-color:#B73840"/>
			</linearGradient>
			<path id="XMLID_122_" class="st20" d="M267.5,209.3c0,2.1,7.5,64.1-105.9,91.6C42.9,329.6,8.5,251.6,5.6,257
				c-2.9,5.4,2.9,31.6,41.6,52.1c38.7,20.6,160.2,29.2,213.9-39.4C296.9,223.9,267.5,207.2,267.5,209.3z"/>
			<linearGradient id="XMLID_263_" gradientUnits="userSpaceOnUse" x1="23.5152" y1="249.3566" x2="264.0583" y2="249.3566">
				<stop  offset="0" style="stop-color:#FF6A71"/>
				<stop  offset="1" style="stop-color:#B73840"/>
			</linearGradient>
			<path id="XMLID_121_" class="st21" d="M134.4,282.6c78.7,0.1,120.1-19.5,129.7-51.8c0,0-21.8,52.7-133.5,43.8
				c0,0-75.9-6.3-96.6-58.4c0,0-12.1,0.1-10.3,14.6C25.6,246.4,55.6,282.5,134.4,282.6z"/>
		</g>
		<linearGradient id="XMLID_264_" gradientUnits="userSpaceOnUse" x1="9.6764" y1="290.4622" x2="275.0079" y2="290.4622">
			<stop  offset="0" style="stop-color:#FFCAC7"/>
			<stop  offset="1" style="stop-color:#D992AA"/>
		</linearGradient>
		<path id="XMLID_120_" class="st22" d="M9.7,275.4c0,0,21.7,45.6,104.6,48.2c83,2.6,126.4-9.6,160.7-74.2c0,0-2.4,34.7-64,65.1
			C149.4,344.9,32.8,336.3,9.7,275.4z"/>
		<linearGradient id="XMLID_265_" gradientUnits="userSpaceOnUse" x1="52.1473" y1="202.84" x2="160.2477" y2="202.84">
			<stop  offset="0" style="stop-color:#FFCAC7"/>
			<stop  offset="1" style="stop-color:#D992AA"/>
		</linearGradient>
		<path id="XMLID_119_" class="st23" d="M74.1,180.1c0,0-14.2-10.7-20.9,0.9c-6.7,11.6,17.7,57.7,107.1,47.6
			C160.2,228.6,61.9,226.3,74.1,180.1z"/>
		<linearGradient id="XMLID_266_" gradientUnits="userSpaceOnUse" x1="34.8556" y1="218.0282" x2="241.9208" y2="218.0282">
			<stop  offset="0" style="stop-color:#FFCAC7"/>
			<stop  offset="1" style="stop-color:#D992AA"/>
		</linearGradient>
		<path id="XMLID_118_" class="st24" d="M47,187.5c0,0,15.2,48.2,76.8,52.6c61.6,4.4,109-29,113-49.9c4.3-22.2,15.9,15.7-22.5,40.5
			c-38.4,24.8-110.7,33.8-158.6-2.1C15.7,198.6,45.2,175.3,47,187.5z"/>
		<linearGradient id="XMLID_267_" gradientUnits="userSpaceOnUse" x1="18.1211" y1="260.2253" x2="273.912" y2="260.2253">
			<stop  offset="0" style="stop-color:#FFCAC7"/>
			<stop  offset="1" style="stop-color:#D992AA"/>
		</linearGradient>
		<path id="XMLID_117_" class="st25" d="M267.5,209.3c0,0,8.1,15.7-15.2,40.1c-23.3,19.9-74,39.1-136.9,32.2
			c-69-7.6-91.6-50.9-91.6-50.9c-22,7.8,21.9,62.6,114.6,61.8c33.5-0.3,46.3-5.9,43.3-4.9c-89.1,27.5-147.8-16.5-147.8-16.5
			c-15.3-6.6-14.2,17,44.8,34.1c59.1,17.1,135.7-5.3,173.3-43.7C289.5,223.3,267.5,209.3,267.5,209.3z"/>
		<linearGradient id="XMLID_268_" gradientUnits="userSpaceOnUse" x1="86.1714" y1="177.9801" x2="190.6384" y2="177.9801">
			<stop  offset="0" style="stop-color:#FFCAC7"/>
			<stop  offset="1" style="stop-color:#D992AA"/>
		</linearGradient>
		<path id="XMLID_116_" class="st26" d="M105.5,166.2c0,0-16.2,19.9,26.1,25.6c42.3,5.7,65.7-27.9,50.9-37.5c0,0,12.1,2.7,6.7,21.3
			c-5.4,18.6-57.3,36.5-90,18.6c-17.5-9.6-14.6-22.8-7.6-29.2C97.9,159.4,107.6,159.3,105.5,166.2z"/>
		<path id="XMLID_115_" class="st7" d="M146,118.1c0,0-15.2,11.2-18.5,26.3C124.2,159.4,136.8,127,146,118.1z"/>
		<path id="XMLID_114_" class="st7" d="M99.5,166.7c0,0-10.3,6.8-3.1,14.4c7.2,7.6,18,13.7,38.3,13.4c20.3-0.3-21.1,5.4-36.6-6.4
			c-15.5-11.8-6.4-21.4-3.1-22.8C98.4,163.9,102.5,163.9,99.5,166.7z"/>
		<path id="XMLID_113_" class="st7" d="M65.7,180c0,0-10,9.5,4.6,22.9C84.9,216.2,36.9,187.7,65.7,180z"/>
		<path id="XMLID_112_" class="st7" d="M44.9,190.2c0,0,2.6,33.1,48.8,47.6c46.2,14.5-28.4,3-45.2-20.5
			C31.7,193.9,40.6,187.8,44.9,190.2z"/>
		<path id="XMLID_111_" class="st7" d="M23.5,236.9c0,0,7.1,21.8,43.8,38.5c36.6,16.7-13.4-1.9-28.6-13.6
			C22.3,249.3,19.7,241.6,23.5,236.9z"/>
		<path id="XMLID_110_" class="st7" d="M22,262.1c-1.6,1.7-5.1-1.8-8.8-5.2c-3.7-3.4-3.9-9.2-2.4-10.9c1.6-1.7,4.3,1.3,8,4.7
			C22.5,254.1,23.5,260.4,22,262.1z"/>
		<path id="XMLID_109_" class="st7" d="M44.9,282.6c0,0,43.2,26.5,112.6,14.8c69.4-11.7-7.2,10.1-40.5,8.4
			c-33.3-1.7-46.9-4.3-69.9-15.4C39,286.6,32.8,276.8,44.9,282.6z"/>
		<path id="XMLID_108_" class="st7" d="M119.9,159.2c0,0-5.3,12.7,13.4,19.1C152,184.6,96.6,177.9,119.9,159.2z"/>
		<path id="XMLID_107_" class="st7" d="M41.2,236.9c0,0,26.2,32.8,75.4,38.5C116.5,275.4,64.5,279.2,41.2,236.9z"/>
		<path id="XMLID_106_" class="st7" d="M83.5,197.7c0,0,17.3,23.9,65.5,19.3C149,217,102.9,230.8,83.5,197.7z"/>
		<path id="XMLID_105_" class="st7" d="M35,290.5c0,0,34.8,28.5,103.4,23.6C138.4,314.1,74,332.4,35,290.5z"/>
	</g>
	<g id="XMLID_53_">
		<linearGradient id="XMLID_269_" gradientUnits="userSpaceOnUse" x1="131.9053" y1="368.2917" x2="629.1021" y2="368.2917">
			<stop  offset="5.376340e-03" style="stop-color:#FF775E"/>
			<stop  offset="1" style="stop-color:#ED0018"/>
		</linearGradient>
		<path id="XMLID_103_" class="st27" d="M616.1,475.4c-25.3,32.8-448,67-471,47c-24.4-21.4-7.6-165.7-7.6-165.7
			s294-147.7,320.2-148.4c26.2-0.7,145.6,37,157.4,53C627,277.4,639,445.6,616.1,475.4z"/>
		<path id="XMLID_102_" class="st28" d="M587.4,447.3c-10,13.5-441.4,61.1-448.7,50c-7.3-11.1-12.7-126.5,0-150.3
			c7.1-13.3,91.2-56.1,169.6-87.7c61.7-24.8,121.1-41,128-41.9c15.8-2,141.9,35,151.1,51.9C596.6,286.2,597.3,433.9,587.4,447.3z"/>
		<linearGradient id="XMLID_270_" gradientUnits="userSpaceOnUse" x1="130.4264" y1="384.2755" x2="602.6625" y2="384.2755">
			<stop  offset="0" style="stop-color:#FF979D"/>
			<stop  offset="0.9946" style="stop-color:#FF979D"/>
		</linearGradient>
		<path id="XMLID_101_" class="st29" d="M138.5,351.2c6.7-5.4,86.3,5.2,245.5-24.2c159.2-29.4,198.3-65.6,204.8-57.7
			c12.1,14.8,22.8,159.4,2.1,182.4c-17.9,19.8-443.5,60-452.6,45.7C129.1,482.8,126.4,360.9,138.5,351.2z"/>
		<path id="XMLID_100_" class="st30" d="M134,488.9c0-0.2,0-0.3-0.1-0.5C133.9,488.4,133.9,488.6,134,488.9z"/>
		<path id="XMLID_133_" class="st31" d="M612.6,258.8c-65.3-24.2-161.1-39.5-161.1-39.5c65.6,15.1,108.6,33.6,124.4,41.7
			c3.5,1.8,6.3,3.9,8.5,6c-9.4,4.2-21.9,9.7-38.9,16.1c-7.2-4.5-44-27.5-51.9-28c-8.7-0.6-36-19-39.4-17.5c-3.4,1.5-12.2,9-7.4,14
			c4.9,5,49.3,30,55.3,28.7c3.9-0.8,10.4,7.7,16.8,12.1c-20,6.6-44.5,13.8-74.6,21.2c-0.2-4.2-1.7-10-8.2-13.6
			c-11-6.1-22.5-13.6-17.6-13.8c4.9-0.3,33.2-3.8,35.6-6.8c2.4-3-51.9-5.8-52,0c-0.1,4.7,20.4,27.1,29.7,37.2
			c-7,1.7-14.2,3.3-21.7,5c-10.8,2.4-15.1,3.4-25.3,5.3c-9.5-19.1-35.7-24.3-45.9-28.7c-10.8-4.6-16.9-11.5-23.5-20.4
			c-6.5-8.8-24-7.5-24.7-7.7c-8.8-0.4,0.5,21.6-5.3,20c-5.8-1.7-15.3-3.6-13.7-1.6c1.6,2,4.5,0,6.7,6.6c2.2,6.6,37.4,32.4,37.4,32.4
			s3.7,5.4,7.3,10c-14.4,2.1-22.2,2.2-34.9,3.6c-5.6-3.9-13.9-6.6-23.3-17.1c-14.7-16.1-35.1-18.7-35.1-18.7
			c-1.1-0.2,21,27,30.7,39.4c-18.4,1.6-34.8,2.5-49.1,2.9c-0.9-7.8-8.8-9-11.4-9.2c-2.9-0.1-5.1-10.7-5.1-10.7
			c-5.4-0.1-1.3,10.7-2.2,14.9c-0.3,1.4,0.6,3.3,2,5.3c-12,0.2-22.1,0.1-30.2,0c-2.2-4.9-8.3-7-8.3-7l-0.2,6.9
			c-8.1-0.1-13.3-0.1-15.5,0.5c-11.5,3.1-11.7,62.6-11.7,62.6c1.3-7.2,10.9-13.7,26.2-19.4l-2,88.1c0,0-0.7,17.4-2.5,28.6
			c-14-8.2-16.3-17.4-16.7-19.6c3.6,27.7,7.2,35.1,23.1,37.5c15.6,2.4,45.6,1.9,87.6,1.1c54.6-1,146.9-9.2,215.2-17.3
			c44-5.2,77.4-11.3,86.5-12.8c23.1-4.1,58.3-11.4,68.1-20.3c5.3-4.8,7.7-16.1,11.4-33.3C635.2,400,625.7,263.6,612.6,258.8z
			 M547.8,485.7c-58.7,10.9-202.8,28-297.2,35.1c-41.8,3.2-68.5-0.4-85.8-6.1c-0.4-5.2-2.2-11.2-3.3-14.3
			c-2.2-6.1,1.8-81.9,1.8-94.2c0-3.8,0.3-10.3,0.7-17.6c23-7.3,55.3-13.5,91.2-19c-3.1,24.7-5.2,82.1-4.7,84.2
			c0.7,2.7,0.1,25.8-5.9,43.1c-6,17.3,9.4,17.7,16.2,7.8c6.8-9.8-0.2-43.2,0-57.5c0.2-14.2,3.6-37.3,7.4-50.4
			c3.1-10.7,3.9-24.9,4.1-29.8c28.2-4,58-7.6,86.7-11c-8,18.7-8.1,54.7-8.1,54.7s-9,55.5-11.4,64c-2.4,8.5,1.8,21,14.5,13.1
			c12.7-7.9,6.5-21.3,3.8-30.6c-2.7-9.2,0-16.1,0-22.6c0-6.5,8.5-27.4,14-35c5.5-7.7,1-22.3,0.1-31.5c-0.5-4.9,1.6-10.1,3.7-14
			c59.4-6.9,112.1-13,134-19.6c3.2-1,6.1-1.4,8.9-1.4c-4.7,12.3-2.3,41.5-2.3,46.1c0,7-15.4,63-19.2,74.9
			c-3.8,11.9,1.9,23.1,15.4,18.8c13.5-4.2,8.1-33.8,8.8-46.9c0.8-13.1,3.5-33.8,6-46.8c1.9-9.8,4.8-30.3,5.7-40.2
			C558.7,363.1,551.4,453.4,547.8,485.7z"/>
		<path id="XMLID_97_" class="st32" d="M164.3,332.2c0,0,142.7-76.6,214.9-94.8c72.3-18.2,66.5-20.4,120.7,0
			c35.7,13.4-1.8-6.9-54.8-5.5c-27.5,0.7-56.2,14.5-87.5,26.6C267.9,293.5,120.9,360.1,164.3,332.2z"/>
		<path id="XMLID_96_" class="st33" d="M213.7,346.5c1.4,0,30-1.7,31.9-2.7c1.9-1-8.3-1.8-16.9-1.2
			C220.1,343.2,209,346.7,213.7,346.5z"/>
		<path id="XMLID_94_" class="st33" d="M482.6,299.5c0.4,1.9-7.3,5.3-17.3,7.6c-10,2.3-18.5,2.6-18.9,0.7c-0.4-1.9,7.3-5.3,17.3-7.6
			C473.7,297.8,482.2,297.5,482.6,299.5z"/>
		<path id="XMLID_93_" class="st4" d="M329.5,513c2.7-8.1,4.1-16.8,4.1-25.8c0-58.4-36.4-87.9-83-83c-45.6,4.8-83,37.2-83,83
			c0,10.5,2,20.5,5.6,29.7C214.2,527.8,290.9,517.7,329.5,513z"/>
		<path id="XMLID_92_" class="st4" d="M232.8,434.6c4.3,8.6-1.3,20.1-12.5,25.6c-11.2,5.5-23.7,3-28-5.7
			c-4.3-8.6,1.3-20.1,12.5-25.6C216.1,423.4,228.6,425.9,232.8,434.6z"/>
		<path id="XMLID_91_" class="st5" d="M562.9,254.4c-1.3-6.9-99.4-33.9-111.4-35.2c-12-1.2-306.7,122.7-306.7,122.7
			C429.8,332.2,564.2,261.4,562.9,254.4z"/>
		<path id="XMLID_90_" class="st34" d="M137.9,345.5c2.3-4,1.8-7.4,11.5-8.1c9.7-0.7,5.5,7.3,8.9,10c3.5,2.7,3.8,12.7,2.3,21.9
			c-1.5,9.2-2.3,38.4-3.1,45c-0.8,6.5-1.5,70,0,80c1.5,10,3.8,26.5-2.7,26.5c-6.5,0-11.1-5.4-9.2-13.5c1.9-8.1-1.5-34.6-1.2-47.7
			c0.4-13.1-0.8-63.8,2.3-73.1c3.1-9.2,6.9-29.2,2.9-32.7C145.7,350.5,135.6,349.5,137.9,345.5z"/>
		<path id="XMLID_89_" class="st34" d="M178.4,328.6c1.2-1.3,13.1-4.6,15.8,0c2.7,4.6,1.5,12.3,4.2,13.1c2.7,0.8,6.5-0.4,8.1,3.8
			c1.5,4.2,3.1,23.1-3.1,26.9c-6.2,3.8-10,1.5-7.7-5c2.3-6.5,5.4-14.6,1.5-17.1c-3.8-2.5-16.5-8.7-18.8-11.4
			C176.1,336.3,173.8,333.6,178.4,328.6z"/>
		<path id="XMLID_88_" class="st34" d="M461.8,228.6c0,0,19.2,0.4,25,7.7c5.8,7.3,30.8,21.2,37.7,21.9c6.9,0.8,41.1,8.1,41.9,15
			c0.8,6.9-3.8,29.6-5.8,40c-1.9,10.4,1.5,44.6-5.4,40c-6.9-4.6-8.8-18.5-8.5-23.5c0.4-5,1.5-22.3,3.1-30.8
			c1.5-8.5,3.1-12.3-7.3-13.5c-10.4-1.2-12.3,0-19.2-7.3c-6.9-7.3-29.2-20.4-37.3-20c-8.1,0.4-16.9-1.5-21.5-6.5
			C459.8,246.7,442.9,232.9,461.8,228.6z"/>
		<path id="XMLID_87_" class="st34" d="M444.5,237.5c2.3,0.1,32.3,36.1,45.4,32.8c7.9-2,35.3,12.4,32.6,22.1
			c-2.6,9.7-1.6,19.6,0.2,33.9c1.8,14.3-4.3,37.4-3.6,55.8c0.8,18.5-8.5,83-16.9,82.3c-8.5-0.8-5.4-18.1,3.1-66.1
			c1.9-11-3.1-28.9-7.7-47.9c-4.6-19,14.8-43.7,7.7-46.7c-9.2-3.8-29.6-7.3-35.4-18.5c-7.7-14.9-36.1,3.8-49.2-5.4
			c-13.1-9.2-33.1-11.5-30-19.2C393.7,252.9,409.8,236.7,444.5,237.5z"/>
		<path id="XMLID_86_" class="st34" d="M337.3,248.8c7.5-12.8,18.4-4,25.5,0.2c11.1,6.5,27.1,11.5,34.7,12.3
			c7.7,0.8,29,14.8,20.3,16.6c-8.7,1.8-22.6,4.9-15.7,7.2c6.9,2.3,28.7,18.7,34.6,24.6c5.9,5.9,3.1,23.8-2.3,26.8
			c-5.4,3.1-27.8,4.6-23.8-8c3.5-11.1-3.8-18.1-13.8-21.9c-10-3.8-14.2-15.8-20.4-21.9c-6.2-6.1-17.3-4.5-17.3-11.2
			C359.1,261.7,330.5,260.3,337.3,248.8z"/>
		<path id="XMLID_85_" class="st34" d="M276.7,272.9c1.8-7.8,8.7-3.3,21.5-1.2c21.9,3.6,20.2,28.1,45.2,35
			c11.5,3.2,26.9,16.5,23.5,26.9c-3.5,10.4-2,16.5-7.7,24.2c-5.8,7.7,0.4,15,0,23.1c-0.4,8.1-8.5,30.4-10.4,38.8
			c-1.9,8.5,0.8,49.2-3.5,56.1c-4.2,6.9-5.7,4.2-6.7-2.7c-1-6.9-3.3-25-2.2-33.8c1.2-8.8,10-32.3,6.5-41.1
			c-3.5-8.8-6.8-23.1-4.4-34.2c2.4-11.1,3.9-18.6,2.1-25.2c-3.5-12.5-20.4-9-24.6-17.8c-4.2-8.8-17.3-23.8-22.7-27.7
			C287.9,289.4,275,280,276.7,272.9z"/>
		<path id="XMLID_84_" class="st34" d="M256.6,285.6c5.6-2.3,7.5-1,19.9,3.1c12.7,4.2,15.1,14.2,22.3,17.4
			c7.2,3.2,35.5,25.7,31.2,44.3c-4.3,18.6-21.5,10.9-22.5,0.6c-1-10.3-16.4-21.7-18.7-24.7c-2.3-2.9-26-21.1-28-24.8
			C258.6,297.7,251,287.9,256.6,285.6z"/>
		<path id="XMLID_83_" class="st34" d="M219.5,308.6c0,0,3.9-5,15.8-2.3c11.9,2.7,31.1,24.2,32.3,28.5c1.1,4.2,7.3,6.6,2.7,18.9
			c-4.6,12.3-8.8,7.6-8.1,15.7c0.8,8.1-2.7,40.4-3.9,50.4c-1.1,10-5.9,38.8-4.8,46.9c1,8.1,4.4,31,0,34.3c-4.4,3.4-10.9,4.5-9.4-7.4
			c1.5-11.9,2.5-22.7,1.6-29.2c-0.8-6.5-6.8-53.8,0-69.6c6.8-15.8,6.8-21.9,4.5-30.4c-2.3-8.5-1.9-11.1-1.5-16.1
			c0.4-5,3.2-10.2-3-10.9C239.5,336.7,209.1,318.6,219.5,308.6z"/>
		<path id="XMLID_82_" class="st35" d="M451.6,229.9c0,0-0.6,10.7,8.4,14.5c5.9,2.5,22.5,5.9,26.8,5.9c8.4,0,25.9,17.3,47.6,17.3
			c14.7,0,23.7,11.9,13.6,15.3c-3.9,1.3,4.9,5.1,4.3,10.7c-0.6,5.7-6.1,30-5.5,37.5c0.6,7.5,5.5,23.5,8.5,22.1
			c3-1.4,3.9-1.3,4.7-20.7c0.7-19.3,4.2-37.6,4.9-42.1c0.7-4.5,8.8-22.7-7.3-25.4c-16.3-2.8-30.3-6.9-37.4-8.1
			c-7.2-1.2-25.3-11.6-28.8-16.5C483.6,230.2,467.2,226.2,451.6,229.9z"/>
		<path id="XMLID_81_" class="st35" d="M354.9,244.4c0,0,17.5,13,27.8,12.1c10.3-0.9,38.1,14,45.6,6.9c7.5-7.1,20.6-21.1,23.3-18.9
			c2.6,2.2,20,18.4,24,20.9c4.1,2.5,17.7,4.7,23.1,5c5.4,0.3,26.4,12.2,24.3,23c-2.1,10.8-2,20.8,0.1,26.5c2.1,5.8,0.5,45.8-1.7,55
			c-2.3,9.2-4.3,38.3-6.3,49.4c-2,11.1,1.1,26.3-2.6,36.7c-3.7,10.5-21.5,3.5-11.1-10c10.4-13.5,2.3-18.5,5.4-29.2
			c3.1-10.8,2.7-43.5-0.8-50c-3.5-6.5-6.2-29,0.8-48.1c6.9-19.1,6.5-23.3-0.8-26c-7.3-2.7-1.5-8.7-10.4-12
			c-8.8-3.3-21.9-11.8-33.8-10.1c-11.9,1.8-15.9,6.7-31.8,7.1c-15.9,0.4-20.1-2.7-21.9-2.3c-1.8,0.5-2.7,6,3.6,10.3
			c6.3,4.3,31.3,17,28.4,30.1c-3,13.1,0.2,16.8-17.9,18.2c-18.1,1.4-8.1-10.7-8.1-14.6c0-3.8,17.7-8,6.3-16.4
			c-8.1-5.9-27.8-14.8-33.6-22.4c-5.8-7.6-11.4-11.2-17.8-15.2c-6.4-3.9-5.1-9.7-8.5-13.2C357.2,253.6,339.2,236.7,354.9,244.4z"/>
		<path id="XMLID_80_" class="st35" d="M306.2,274c4.9,2.3,16.3,19.6,20.1,20.8c3.8,1.2,7,9.9,24.7,13c17.7,3.1,22.1,18.2,20.8,23.4
			c-1.3,5.2-0.8,19.3-4.5,23c-3.7,3.7-8.6,9.3-5.2,17.5c3.4,8.1,6.4,19.3,1.5,28.5c-5,9.2-13,27.7-10.5,36.5
			c2.5,8.8-0.6,30,2.5,37.3c3.1,7.3-11.1,18.1-14.8,6c-3.7-12.1,2.1-11.7,4-19c1.9-7.3,1.3-13.4,0.8-19.2c-1-12.5,4.6-28.1,5.8-34.6
			c1.2-6.5-8.5-25.1-7.3-32.7c1.2-7.6,8.4-28.6,4.6-33.6c-3.8-5,11.3-8.1,10.1-13c-1.1-4.9-28.6-19-34-25.2
			c-5.4-6.2-14.1-19-18-22.1C302.9,277.3,301.3,271.7,306.2,274z"/>
		<path id="XMLID_79_" class="st35" d="M280.8,300c-6.3-4.4,0.8-12.7,10.4,0.9c6.5,9.2,10.7,0.7,31.2,25.4c7,8.4,9.7,9.3,9.7,16.2
			c0,6.9-3,17.1-10.3,19.1c-7.4,2-16.5-5.4-16.2-16.1c0.3-10.7-3.9-16.3-8.5-22C292.6,317.9,284.5,302.5,280.8,300z"/>
		<path id="XMLID_78_" class="st35" d="M230.7,308c0,0,12.5,2.5,23.1,10.3c10.6,7.8,14.2,16.3,16,20.4c1.8,4.1,4.7,7.2,0.5,14.9
			c-4.2,7.6-9.4,11-8.1,15.7c1.3,4.7-2.5,38.9-3.3,45.3c-0.7,6.4-5.9,41.3-4.4,51.3c1.5,9.9,4.9,30.4,2.9,35
			c-2,4.6-14.8,6.2-13.3-1.4c1.5-7.6,2.3-22.6,2.6-30.1c0.3-7.5-6.9-59.7-2.1-66.6c4.7-6.9,11.6-26.8,9.9-31.3
			c-1.7-4.5-5.4-16.9-4-21.4c1.4-4.5,14.1-8.7,9.2-12.9c-4.9-4.2-14.1-17.8-18.2-19.2C237.6,316.7,223.7,306,230.7,308z"/>
		<path id="XMLID_77_" class="st35" d="M195.6,332.8c0,0,0.7,7.2,1.7,8c1,0.9-3.2,1.4-3.6-2.1C193.4,335.3,193.8,328.9,195.6,332.8z
			"/>
		<path id="XMLID_76_" class="st35" d="M200.7,342c0.6-0.2,5.7-0.7,6.4,5.9c0.7,6.6,2.1,13.5,0,21.2c-2.1,7.7-12.4,7.5-11.9,2.9
			c0.5-4.6,5.9-15.3,4.6-17.9c-1.3-2.6-1.7-5.3-4.1-5.8C193.1,348,194.3,343.9,200.7,342z"/>
		<path id="XMLID_75_" class="st35" d="M155.4,349c0,0,6.4-2.6,6,7.5c-0.3,10.1-2.7,41.6-3.4,52c-0.7,10.4-1.3,43.8-1.3,48.1
			c0,4.3-1.3,40.9,1.7,46.7c3,5.8,3.5,17-3.5,17.6c-7,0.6-11.9-5-9.4-12.3c2.4-7.3,5.2-32.7,4.1-40.2c-1.1-7.5-2.2-32.9-1.7-44.4
			c0.6-11.5-2.2-30,1.7-41c3.8-11,4.2-25.7,3.6-27.7C152.5,353.3,151.6,348.7,155.4,349z"/>
		<path id="XMLID_74_" class="st36" d="M142.7,341.7c0,0,2.5-2,5.7-0.4c3.1,1.6,5.4,4.1,3.8,4.3c-1.6,0.2-2.4,2.2-4.5,2
			C145.6,347.4,136.7,346.1,142.7,341.7z"/>
		<path id="XMLID_73_" class="st36" d="M180,330.4c0,0,3-3.4,7.6-2c4.5,1.4,2.4,1.9,2.7,5.3c0.3,3.4,1.6,5.6,2.4,5.7
			c0.8,0.1-1.2,2.3-2.9,1.9c-1.7-0.4-9.3-4.1-9.8-5.9C179.5,333.6,177.9,331.9,180,330.4z"/>
		<path id="XMLID_72_" class="st5" d="M224.5,307.8c-0.4,0.1-5.6,1.5-4.2,6.2c1.4,4.6,13.7,14.1,21.3,15.8c7.6,1.7,10.5,5.5,10.4,9
			c-0.1,3.4,3.9,2,2.6-2.3c-1.4-4.2-7-14.2-12.5-15.2c-5.5-1-10.6-5-12.2-6.9C228.4,312.5,227.9,307.1,224.5,307.8z"/>
		<path id="XMLID_71_" class="st5" d="M290.7,320.4c-1.6,1.5-9.4-4.3-17.6-12.9c-8.1-8.6-13.5-16.8-11.9-18.3
			c1.6-1.5,9.1,1.9,17.3,10.5C286.6,308.4,292.2,318.9,290.7,320.4z"/>
		<path id="XMLID_70_" class="st5" d="M326.3,318.3c-2.2,2.2-11.5-10.3-23.9-22.7c-12.4-12.4-23.4-21-21.2-23.3
			c2.2-2.2,16.4,4.8,28.8,17.2C322.5,302,328.5,316.1,326.3,318.3z"/>
		<path id="XMLID_69_" class="st5" d="M342.2,248.8c0.6-0.4,3.2-3.3,6.4,0c3.2,3.3,10.5,10.2,12,14c1.5,3.8,4.5,8.3,8.2,9.8
			c3.6,1.5,15.2,11.1,17.9,16c2.7,4.8-4.8-2.9-7.9-5c-3.1-2.1-13.9-6.3-15.9-7.3c-2-1-2-4.7-3.9-8.7
			C357,263.6,335.5,253.7,342.2,248.8z"/>
		<path id="XMLID_68_" class="st36" d="M493.6,292.2c-0.8,1.7-5,1.6-9.4-0.4c-4.4-2-7.3-5-6.6-6.7c0.8-1.7,5-1.6,9.4,0.4
			C491.5,287.4,494.4,290.4,493.6,292.2z"/>
		<path id="XMLID_67_" class="st36" d="M546,275.5c0,2.6-4.2,4.7-9.3,4.7c-5.1,0-9.3-2.1-9.3-4.7c0-2.6,4.2-4.7,9.3-4.7
			C541.8,270.8,546,272.9,546,275.5z"/>
		<path id="XMLID_66_" class="st4" d="M274.5,303.8c-0.8,0.7-3.5-1.3-6.1-4.3c-2.6-3.1-4-6.1-3.2-6.7c0.8-0.7,3.5,1.3,6.1,4.3
			C273.9,300.1,275.3,303.1,274.5,303.8z"/>
		<path id="XMLID_65_" class="st4" d="M237.4,323.7c-0.8,0.7-8.2-2-10.7-5c-2.6-3.1-6.1-6.8-3.4-8.4c2.2-1.3,3.7,2.9,6.3,6
			C232.2,319.3,238.2,323,237.4,323.7z"/>
		<path id="XMLID_64_" class="st4" d="M186.6,332.2c0,1.4-1.1,2.5-2.5,2.5c-1.4,0-2.5-1.1-2.5-2.5c0-1.4,1.1-2.5,2.5-2.5
			C185.5,329.7,186.6,330.9,186.6,332.2z"/>
		<path id="XMLID_63_" class="st4" d="M147.8,343c0,0.6-1.3,1.1-3,1.1c-1.7,0-3-0.5-3-1.1c0-0.6,1.3-1.1,3-1.1
			C146.5,341.9,147.8,342.4,147.8,343z"/>
		<path id="XMLID_62_" class="st37" d="M460,217.9c0,27.5-22.3,49.7-49.7,49.7c-27.5,0-49.7-22.3-49.7-49.7
			c0-27.5,22.3-49.7,49.7-49.7C437.7,168.2,460,190.4,460,217.9z"/>
		<path id="XMLID_61_" class="st38" d="M425.1,175.3c0,0,36.9,22.7,12.3,58.9c-15.2,22.3-43.2,20.4-57.9,15.5
			c-10.1-3.4,16.2,27.8,51.1,9.7C465.6,241.3,465.9,187.6,425.1,175.3z"/>
		<g id="XMLID_95_">
			<path id="XMLID_60_" class="st5" d="M424.8,180.8c-0.9,9.2-2.7,14.3-14.6,20.2c-12.6,6.3-27.5,4.2-31.4-3.7
				c-3.8-7.8,2.2-17.5,14.5-23.8c-1.3,0.5-2.6,1-3.9,1.6c-15,7.4-24.1,18.9-19.3,28.5c4.8,9.6,25.1,13.4,40,5.9
				C425.2,202.1,429.6,190.4,424.8,180.8z"/>
		</g>
		<path id="XMLID_59_" class="st5" d="M383.6,231.6c0.6,6.5,0.6,12.5-3.6,12.8c-4.2,0.3-8.3-5.3-8.8-11.8
			c-0.5-6.5,2.1-12.7,6.3-13.1C381.7,219.2,383.1,225,383.6,231.6z"/>
		<path id="XMLID_58_" class="st33" d="M382.6,208.7c-0.5,0.5-4.7,0.3-8-2.4c-3.3-2.8-4.4-7-3.9-7.6c0.4-0.5,2.2,2.7,5.5,5.5
			C379.6,207,383.1,208.2,382.6,208.7z"/>
		<path id="XMLID_57_" class="st37" d="M403.5,192.1c0,0-6.9-34.6-10.8-49.7c-3.9-15.1-9.1-40.1-8.2-44c0.9-3.9-11.6-1.3-9.9,2.6
			c1.7,3.9,4.3,34.9,9.9,48.5C390.1,163,398.8,205.2,403.5,192.1z"/>
		<path id="XMLID_56_" class="st39" d="M419.6,184.3c-2-1.3-6.9,5.3-16.8,6.2c-0.4-2-7.3-34.6-7.7-36.2c-0.4-1.6-9.7-40.7-9.7-43.2
			c0-2.5-1.9-7.2-0.8-9.8c1-2.6-2.9-2.3-2.9-2.3c1.9-0.2,3,1.5-1.4,3c-4.3,1.5-5.6,0-5.6,0c-1,1.7,2.1,2,3.1,2.4
			c1.1,0.4,2.5,4.6,3.7,8c1.2,3.3,5.8,26.8,7.5,31.8c1.7,5,3.9,15.5,5.2,24.1c1,6.9,2.6,17.9,3.2,22c-0.8-0.1-1.6-0.2-2.4-0.4
			c-8.9-1.8-7.1-7.6-7.1-7.6c0.3-7.5-16.9,13.3,4.5,16.5C412.2,201.8,422.1,186,419.6,184.3z"/>
		<path id="XMLID_55_" class="st6" d="M376.9,103.7c0,0,2.8,5.4,3.9,14.4c1.1,9.1,5.4,24.8,6.9,29.3c1.5,4.5,8.1,31.3,7.9,36.9
			c-0.1,3.2-4.2-22.6-9-33C384.5,146.9,381,143.4,376.9,103.7z"/>
		<path id="XMLID_54_" class="st6" d="M380.9,92.7c0.1,0.4-1,1-2.4,1.4c-1.4,0.4-2.7,0.4-2.8,0c-0.1-0.4,1-1,2.4-1.4
			C379.5,92.3,380.7,92.3,380.9,92.7z"/>
		<path id="XMLID_145_" class="st6" d="M429.5,216.5c-3.1,21.3-14.1,33.2-36,32.4c-35.4-1.3-29.4-43.6-26-40.7
			c3.4,2.9,10.8,10.5,26.1,10.5C416.6,218.8,432.2,197.5,429.5,216.5z"/>
	</g>
	<g id="XMLID_147_">
		<linearGradient id="XMLID_271_" gradientUnits="userSpaceOnUse" x1="273.3612" y1="496.3674" x2="639.9019" y2="496.3674">
			<stop  offset="0" style="stop-color:#F98E58"/>
			<stop  offset="0.3921" style="stop-color:#BF5F35"/>
			<stop  offset="0.8015" style="stop-color:#883213"/>
			<stop  offset="1" style="stop-color:#722006"/>
		</linearGradient>
		<path id="XMLID_177_" class="st40" d="M597.3,399.9c-33.9-29.4-74.7-39.4-97.9-25.8c-0.2,0.1-234.4,105.7-225.8,121.6
			c8.6,15.8,131.2,128.9,131.2,128.9s174.7-88.5,216.3-114c1-0.5,1.9-1.2,2.8-1.8c0.6-0.4,1.1-0.7,1.6-1c0.3-0.2,0.6-0.5,0.9-0.7
			c1.6-1.3,3.1-2.7,4.5-4.2C651.1,479.6,636.1,433.4,597.3,399.9z"/>
		<linearGradient id="XMLID_272_" gradientUnits="userSpaceOnUse" x1="264.6264" y1="556.4097" x2="422.9061" y2="556.4097">
			<stop  offset="0" style="stop-color:#FFAF80"/>
			<stop  offset="0.4728" style="stop-color:#FC996F"/>
			<stop  offset="0.9946" style="stop-color:#F97D58"/>
		</linearGradient>
		<path id="XMLID_176_" class="st41" d="M413.9,617.2c-20.2,23.3-68,15-106.7-18.5c-38.8-33.6-53.8-79.7-33.6-103
			c20.2-23.3,68-15,106.7,18.5C419.1,547.7,434.1,593.8,413.9,617.2z"/>
		<path id="XMLID_175_" class="st42" d="M340,559.4c2.2,5.8,0.2,8.7,7.5,6.8c7.3-1.9,0.4-21.4-13.9-21.9
			c-14.3-0.5-13.7,19.6-2.1,30.4c11.6,10.8,40.8,29.5,51.4,9c10.6-20.5-27.1-66-55.9-71c-28.8-5-46.7,15.6-26.7,54.5
			c20,38.9,50.3,47.5,76,48.9c25.7,1.4,39.5-25.8,42.4-24.9c2.8,0.9-12.8,32-39.1,32.7c-26.2,0.8-79.3-16.8-96.6-67.5
			c-18.3-53.7,29-68.7,56.6-53.6c27.6,15.1,57.8,51.2,57.3,77.8c-0.5,26.7-40.3,37.3-69.3,6.1c-29-31.1-15.6-52.4-4.3-55.7
			c11.3-3.3,28.8,5.7,35.6,16.5c6.8,10.9,5.9,23.8-0.5,28.8c-6.4,4.9-23.8-2.4-25.5-11.6C331.5,555.6,337.7,553.6,340,559.4z"/>
		<path id="XMLID_174_" class="st43" d="M339.3,558c0,0-1.2,9,6.6,9.9c7.8,0.9,7.9-18-8.7-23.8c-16.6-5.8-20.7,15-7.8,31.6
			c17,21.9,43.1,25.4,51.7,13.4c8.6-11.9,9.1-33.7-26.2-64.1c-41.5-35.9-76.5-6.2-62,28.7c14.6,34.9,35.2,61.8,84.9,62.5
			c0,0-49.4-6.5-70.8-47.3c-21.5-40.8-4-51.6,4.5-54c8.5-2.4,43.9,5.7,64.6,43.6c20.8,38-21.7,35.9-35.6,20.3
			c-13.9-15.6-16.5-28.5-9.7-31.4c6.8-2.8,17.2,11.4,15.8,14.2C345.2,564.3,340.3,559.1,339.3,558z"/>
		<path id="XMLID_173_" class="st43" d="M352.9,608.8c0,0,34.1,14.4,62.4-14.7c0,0-21.9,38.9-71.5,16.2L352.9,608.8z"/>
		<path id="XMLID_172_" class="st1" d="M621.2,428.1c-5.7-4.7-126.3,26-134.5,39.7c-8.2,13.6-106.6,34.6-106.6,35.1
			c-27.8-34.9-58.3-49.1-104.9-8.3c0,0,35.3-20.8,81.7,5.5c7.6,4.3,22.3,7.1,29,13.2c31.1,28.7,40.9,24.9,45.4,19.6
			c3.1-3.6,15.8,33.3,35.9,27.5c20-5.8,17.7-44.5,23.1-53.2c5.4-8.7,26.2-22.4,33.7-12.5c7.6,9.9,24.3,47.9,43.2,39.9
			c18.9-8,66.3-27.6,70.5-50C642,462.3,626.9,432.9,621.2,428.1z"/>
		<linearGradient id="XMLID_273_" gradientUnits="userSpaceOnUse" x1="273.5724" y1="459.4065" x2="626.7262" y2="459.4065">
			<stop  offset="0" style="stop-color:#FA3840"/>
			<stop  offset="1" style="stop-color:#D30F13"/>
		</linearGradient>
		<path id="XMLID_171_" class="st44" d="M273.6,495.7c0,0-1.1-5.1,12.9-16.7c3.5-2.9,7.9-6.2,13.4-9.9c11.1-7.4,26.8-16.4,49.1-27.4
			c68.9-33.7,151.1-75.9,174.7-75.9c23.6,0,81.8,20.7,97.2,55.2c15.4,34.5-3.8,43.4-10.8,42c-7.1-1.4-17-10.8-19.3-4.7
			c-2.4,6.1-3.3,49.5-17.5,62.7c-14.1,13.2-29.7-7.1-40.6-27.4c-10.9-20.3-26.4-12.3-33.5-7.1c-7.1,5.2-15.6,15.1-19.3,30.7
			c-3.8,15.6-4.4,37.3-20.8,35.8c-16.4-1.4-22.3-35.6-31.5-25.5c-10.9,11.9-26.4-10.6-44.9-23.1c-8.5-5.8-21.4-5-34.7-11.6
			C311.2,474.7,289.5,486.2,273.6,495.7z"/>
		<path id="XMLID_170_" class="st45" d="M345.9,558.1c0,0-11-12.3-14.3-3.3c-3.3,9,4.1,24.9,22.7,32.5c18.6,7.5,28.2-4.6,27.4-10.8
			c-0.7-6.2-1.9-18-19.5-37.4c-17.6-19.4-48.4-33.1-60.5-18.1c-12.1,15,0,49.4,22.7,70.1c22.7,20.7,60.3,34.3,92.6,1.3
			c0,0-36.5,30.4-67.9,11.3c-31.4-19.1-54.3-47.6-46.8-73.4c7.5-25.7,43.6-0.2,49.3,4c5.7,4.2,31.7,31.9,25.5,46.5
			c-6.2,14.6-37,3.4-42.7-15.6c-2.4-7.8,0.6-9,3.3-8c1.4,0.5,2.7,1.8,3.3,2.4C342.6,561.1,348.4,565.3,345.9,558.1z"/>
		<path id="XMLID_168_" class="st45" d="M397.1,580.6c0,0,0.1-29.8-36.8-63.2c-36.9-33.4-80.2-22.5-81.2,17.3c0,0-6-45.4,42.4-41
			C371,498.2,402.1,566.2,397.1,580.6z"/>
		<path id="XMLID_167_" class="st46" d="M419.1,407.3c0,0,72.4-28.9,99.3-28.5c26.9,0.5,46.7,14.1,36.8,41.5
			c-9.9,27.4,3.8,42.9-14.2,43.9c-17.9,0.9-42.6-16-56.7,7.1c-14.1,23.1-25.2,58.2-34.1,43.3c-8.1-13.5-31.6-29.7-30.2-8
			c0.8,12.2-46-6.5-46-6.5c11.9,6.6,21.3,14.9,29.1,22c23.5,21.4,24.4-4.8,33.1,7.4c7.5,10.5,16.1,26.6,26,23.5
			c9.9-3.1,11.6-7.4,17.6-35.8c6-28.4,35.7-52.2,52.1-25c16.4,27.2,30,42.3,42.9,27.1c12.9-15.2,12.6-41.7,14.3-51.4
			c1.6-9.7-0.4-15.5,13.8-7.9c14.3,7.6,32.4-4.1,19.8-34.6c-12.6-30.5-49.8-47.4-63.2-51.7c-13.4-4.3-29.2-7.7-36.9-7.7
			C505.2,365.9,429.7,398.5,419.1,407.3z"/>
		<path id="XMLID_165_" class="st6" d="M540.4,400.2c0,15.7-156.2,103.8-166.4,99.8c-17.1-6.7-47.5-22-60.9-25
			c-7.1-1.6,170.3-86.8,189-90.4C521,381,540.4,387.6,540.4,400.2z"/>
		<path id="XMLID_164_" class="st47" d="M349.5,467c-1.5-3.2,30.2-21.2,70.7-40.4c40.5-19.1,74.6-32.1,76.1-28.9
			c1.5,3.2-30.2,21.2-70.7,40.4C385.1,457.2,351,470.2,349.5,467z"/>
		<path id="XMLID_162_" class="st5" d="M329,550.2c-7.4,10.9-25.4,14.5-39,2.1c-13.6-12.4-23.5-30.7-16.1-41.5
			c7.4-10.9,24.9-9.9,40.9-0.9C334.8,521.1,336.5,539.4,329,550.2z"/>
		<path id="XMLID_161_" class="st45" d="M278.8,508.7c0.8-1-12.4,25.4,10.7,69.1C289.5,577.8,255.3,536,278.8,508.7z"/>
		<path id="XMLID_159_" class="st45" d="M399.1,563.4c0,0,11.1,34.3-19.5,42.8C379.5,606.2,418.9,601.3,399.1,563.4z"/>
		<path id="XMLID_158_" class="st32" d="M348,489c-0.1,1.4-18.3-9-35.3-9c-19.1,0-29.6,7.3-29.6,6c0.1-1.4,13.6-11.5,32.7-9.7
			C335.5,478,348,487.6,348,489z"/>
		<path id="XMLID_157_" class="st48" d="M437.1,556.4c0,0,14.7,24.6,39.3,9.2c24.6-15.4,15.1-48.7,33.2-48.3
			c18.1,0.4,32.8,31.2,6.5,42.8c-26.3,11.6-72.3,42.1-80.8,41.3c-5-0.5-2.3-26.5-8.7-40.8C423.3,553,433.2,550.3,437.1,556.4z"/>
		<linearGradient id="XMLID_274_" gradientUnits="userSpaceOnUse" x1="292.5218" y1="929.8489" x2="300.1445" y2="929.8489">
			<stop  offset="0" style="stop-color:#F1FF90"/>
			<stop  offset="0.6009" style="stop-color:#FAD869"/>
			<stop  offset="1" style="stop-color:#FFC254"/>
		</linearGradient>
		<path id="XMLID_156_" class="st49" d="M450.1,579.8c0,2.7-1.7,4.9-3.8,4.9c-2.1,0-3.8-2.2-3.8-4.9c0-2.7,1.7-4.9,3.8-4.9
			C448.4,574.9,450.1,577.1,450.1,579.8z"/>
		<linearGradient id="XMLID_275_" gradientUnits="userSpaceOnUse" x1="300.1445" y1="915.605" x2="304.0447" y2="915.605">
			<stop  offset="0" style="stop-color:#F1FF90"/>
			<stop  offset="0.6009" style="stop-color:#FAD869"/>
			<stop  offset="1" style="stop-color:#FFC254"/>
		</linearGradient>
		<path id="XMLID_155_" class="st50" d="M454,565.6c0,1.2-0.9,2.2-2,2.2c-1.1,0-1.9-1-1.9-2.2c0-1.2,0.9-2.2,1.9-2.2
			C453.2,563.4,454,564.4,454,565.6z"/>
		<linearGradient id="XMLID_276_" gradientUnits="userSpaceOnUse" x1="310.9558" y1="929.9083" x2="313.8372" y2="929.9083">
			<stop  offset="0" style="stop-color:#F1FF90"/>
			<stop  offset="0.6009" style="stop-color:#FAD869"/>
			<stop  offset="1" style="stop-color:#FFC254"/>
		</linearGradient>
		<path id="XMLID_154_" class="st51" d="M463.8,579.9c0,1.2-0.6,2.1-1.4,2.1c-0.8,0-1.4-0.9-1.4-2.1c0-1.2,0.6-2.1,1.4-2.1
			C463.2,577.8,463.8,578.7,463.8,579.9z"/>
		<linearGradient id="XMLID_277_" gradientUnits="userSpaceOnUse" x1="376.0286" y1="892.1789" x2="380.0614" y2="892.1789">
			<stop  offset="0" style="stop-color:#F1FF90"/>
			<stop  offset="0.6009" style="stop-color:#FAD869"/>
			<stop  offset="1" style="stop-color:#FFC254"/>
		</linearGradient>
		<path id="XMLID_153_" class="st52" d="M530.1,542.2c0,1.5-0.9,2.7-2,2.7c-1.1,0-2-1.2-2-2.7c0-1.5,0.9-2.7,2-2.7
			C529.2,539.4,530.1,540.7,530.1,542.2z"/>
		<linearGradient id="XMLID_278_" gradientUnits="userSpaceOnUse" x1="366.2429" y1="893.55" x2="369.1176" y2="893.55">
			<stop  offset="0" style="stop-color:#F1FF90"/>
			<stop  offset="0.6009" style="stop-color:#FAD869"/>
			<stop  offset="1" style="stop-color:#FFC254"/>
		</linearGradient>
		<path id="XMLID_152_" class="st53" d="M519.1,543.5c0,0.8-0.6,1.4-1.4,1.4c-0.8,0-1.4-0.6-1.4-1.4c0-0.8,0.6-1.4,1.4-1.4
			C518.5,542.2,519.1,542.8,519.1,543.5z"/>
		<linearGradient id="XMLID_279_" gradientUnits="userSpaceOnUse" x1="359.6112" y1="876.1978" x2="366.0929" y2="876.1978">
			<stop  offset="0" style="stop-color:#F1FF90"/>
			<stop  offset="0.6009" style="stop-color:#FAD869"/>
			<stop  offset="1" style="stop-color:#FFC254"/>
		</linearGradient>
		<path id="XMLID_151_" class="st54" d="M516.1,526.2c0,1.8-1.4,3.2-3.2,3.2c-1.8,0-3.2-1.4-3.2-3.2c0-1.8,1.5-3.2,3.2-3.2
			C514.6,523,516.1,524.4,516.1,526.2z"/>
		<linearGradient id="XMLID_280_" gradientUnits="userSpaceOnUse" x1="385.5349" y1="884.2983" x2="390.9492" y2="884.2983">
			<stop  offset="0" style="stop-color:#F1FF90"/>
			<stop  offset="0.6009" style="stop-color:#FAD869"/>
			<stop  offset="1" style="stop-color:#FFC254"/>
		</linearGradient>
		<path id="XMLID_150_" class="st55" d="M540.9,534.3c0,1.5-1.2,2.7-2.7,2.7c-1.5,0-2.7-1.2-2.7-2.7c0-1.5,1.2-2.7,2.7-2.7
			C539.7,531.6,540.9,532.8,540.9,534.3z"/>
		<linearGradient id="XMLID_281_" gradientUnits="userSpaceOnUse" x1="343.2114" y1="918.4657" x2="348.9289" y2="918.4657">
			<stop  offset="0" style="stop-color:#F1FF90"/>
			<stop  offset="0.6009" style="stop-color:#FAD869"/>
			<stop  offset="1" style="stop-color:#FFC254"/>
		</linearGradient>
		<path id="XMLID_149_" class="st56" d="M498.9,568.5c0,1.6-1.3,2.9-2.9,2.9c-1.6,0-2.9-1.3-2.9-2.9c0-1.6,1.3-2.9,2.9-2.9
			C497.7,565.6,498.9,566.9,498.9,568.5z"/>
		<linearGradient id="XMLID_282_" gradientUnits="userSpaceOnUse" x1="331.9711" y1="919.8995" x2="334.8314" y2="919.8995">
			<stop  offset="0" style="stop-color:#F1FF90"/>
			<stop  offset="0.6009" style="stop-color:#FAD869"/>
			<stop  offset="1" style="stop-color:#FFC254"/>
		</linearGradient>
		<path id="XMLID_148_" class="st57" d="M484.8,569.9c0,0.8-0.6,1.4-1.4,1.4c-0.8,0-1.4-0.6-1.4-1.4c0-0.8,0.6-1.4,1.4-1.4
			C484.2,568.5,484.8,569.1,484.8,569.9z"/>
		<linearGradient id="XMLID_283_" gradientUnits="userSpaceOnUse" x1="319.0178" y1="919.8995" x2="321.8817" y2="919.8995">
			<stop  offset="0" style="stop-color:#F1FF90"/>
			<stop  offset="0.6009" style="stop-color:#FAD869"/>
			<stop  offset="1" style="stop-color:#FFC254"/>
		</linearGradient>
		<path id="XMLID_178_" class="st58" d="M471.9,569.9c0,0.8-0.7,1.4-1.4,1.4c-0.8,0-1.4-0.6-1.4-1.4c0-0.8,0.6-1.4,1.4-1.4
			C471.2,568.5,471.9,569.1,471.9,569.9z"/>
	</g>
</g>
</svg>
