<?xml version="1.0" encoding="utf-8"?>
<!-- Generator: Adobe Illustrator 19.0.0, SVG Export Plug-In . SVG Version: 6.00 Build 0)  -->
<svg version="1.1" id="Layer_1" xmlns="http://www.w3.org/2000/svg" xmlns:xlink="http://www.w3.org/1999/xlink" x="0px" y="0px"
	 viewBox="0 0 586.4 630.4" style="enable-background:new 0 0 586.4 630.4;" xml:space="preserve">
<style type="text/css">
	.st0{fill:#D71F26;}
	.st1{fill:#D72027;}
</style>
<g id="XMLID_1210_">
	<path id="XMLID_53_" class="st0" d="M35.5,341.1c21.7-12.4,24.3-29.8,22.8-55.2c-3.4-59.4,35.4-95.7,82.8-122.4
		c17.2-9.7,28.2-20.3,32.7-39.6C185.2,74.2,221.9,42,256.3,8.5c8.4-8.2,13-4.5,15,5.2c0.6,3.1-0.1,6.6-0.2,9.9
		c-3.4,60.4,6.9,75.1,64.7,93.1c15,4.7,30.6,8.4,43,18.5c11.7,9.5,24.7,11.6,39.1,12c65.4,1.8,108.8,58.8,90.4,120.8
		c-5.3,18-2.2,28.4,10.8,40.6c24.2,22.7,46.7,47.3,59.5,78.8c3.7,9,6.2,17.4,0.7,28.1c-25,49.4-48.9,99.4-72.3,149.5
		c-4.7,10-11.5,14.7-21.1,19c-107.7,48.3-218,48.9-330.1,18.6c-20-5.4-39-13.1-57.4-23c-17.5-9.5-30.6-21.6-38.1-40
		c-14.9-36.7-33.2-71.9-47.9-108.8C-2.4,393.2,0.2,364.2,35.5,341.1z M408.6,166.4c0.4,3.2,0.5,6.4,1.2,9.4
		c11.1,42.2-4.4,77.7-43.3,96.6c-45.4,21.9-91,14.5-137.6,2c-44.9-12.1-67-39.5-67.7-85c-0.2-16.4-8.9-13.3-17-7.3
		c-22,16.3-43.2,34.4-56.7,58.3c-30.3,53.7-15.8,92.9,41,116.5c17.6,7.3,35.8,12.8,54.7,15.8c96.4,15,185.4-3.1,267.7-56.7
		c33.6-21.9,51.4-61.2,40.3-100C481.7,182.8,453.5,165.7,408.6,166.4z M40.5,355.3c-26.7,25.8-26.7,25.8-1,41
		c6.4,3.8,13.2,6.9,19.8,10.2c134.1,65.3,273.5,78.9,418.3,44.7c28.9-6.8,53.3-21.6,78.1-36.5c12.6-7.6,12.2-14.9,6.7-28.4
		c-12.9-31.4-39.4-50.3-60.5-74.2c-6.7-7.6-11.5-5-18.4,0.8C400.5,383,303.9,409.2,197,396.1c-45.2-5.6-89.6-17.8-121.9-54.4
		c-5.8-6.6-11.2-5.4-17.1-0.6C50.3,347.4,42.6,353.6,40.5,355.3z M252.8,37.2c-44.2,37.1-64.3,82.8-73.6,133.3
		c-9.6,52.4,7.9,76.5,60.2,90.2c33.5,8.8,67,9.9,100.7,1.6c36.6-9,54.8-32.5,55.8-71.8c0.6-24-13.6-38.9-51.1-48.5
		C291.5,128.5,255.4,100.3,252.8,37.2z M330.8,603.3c1-5.9,2.1-10.7,2.5-15.6c1.3-14,2.1-28,3.4-42c5.8-62.4,5.9-61.8-57.5-60.8
		c-14.9,0.2-18.1,5.2-17.4,18.8c1.3,24.8,0.7,49.6,1.5,74.4c0.3,9-4.9,21.9,8.5,24.8C291.1,607.2,311,606.6,330.8,603.3z
		 M243.7,595.7c0.6-18.4,2.9-36.6,1.6-54.6c-5.5-76.2,11.8-54.3-63.3-71.8c-0.8-0.2-1.6-0.4-2.4-0.6c-9.6-2.4-13.7-0.6-11.2,10.9
		c7.4,33.9,14.3,67.9,20.4,102.1c2.1,11.7,10.1,11.7,17.9,12.6C218.6,595.6,230.5,600.7,243.7,595.7z M91,440.2
		c8.9,36.9,18.9,71.8,25.3,107.5c3.9,22.1,14.4,31.8,35.7,36.5c19.2,4.3,21.6-1.5,17.7-17.8c-4.9-20.9-11.4-41.9-13-63.2
		C153.5,463.5,131.5,445,91,440.2z M399.3,588.6c49.2-6.6,52.4-9.5,60.5-52.3c3.2-17,6.8-33.8,9.9-50.8c0.7-3.7,1.3-9-0.6-11.3
		c-6.2-7.3-53.6,7.2-55.3,17.3C408.5,523.6,404.1,555.9,399.3,588.6z M100.1,560.1c-5-33.3-16-63.3-20-94.1
		c-5-37.8-30.5-49.9-60.7-63.1c13.6,51.8,38,96.8,58.3,143.5C81.2,554.8,88.4,558.7,100.1,560.1z M394.9,486.1
		c-8-3.8-15.3-0.6-22.5-0.6c-8.8,0-10.6,5.4-11.3,12.9c-2.3,26.3-5.5,52.6-7.3,78.9c-0.5,7.4-8.7,19.7,5.8,21.8
		c11.2,1.6,20.1-3.7,21.8-17.7c3.5-27.8,8.5-55.5,12.8-83.2C394.9,494.2,394.7,490.1,394.9,486.1z M547.5,444.4
		c-40.4,11-64.4,31.4-65.4,72.2c-0.3,10.6-4,21.1-5.4,31.7c-0.7,5.1-5.3,12.5,2.2,15c6.5,2.2,12.5-2.1,15.7-8.7
		C511.7,519,528.7,483.5,547.5,444.4z"/>
	<path id="XMLID_65_" class="st1" d="M302.3,627.3c-47.1,0-96.1-6.9-147.5-20.8c-20.3-5.5-39.3-13.1-58.2-23.4
		c-19.9-10.8-32.6-24.2-39.8-42c-7.1-17.6-15.2-35.1-23-52.1c-8.5-18.4-17.2-37.5-24.9-56.8c-17.1-43-9.6-72.1,24.5-94.4l0.2-0.1
		C53,326.4,55.8,311.5,54.4,286c-3.9-68,46.5-104.5,84.8-126c15.3-8.7,26.4-18.3,30.8-37.1c10.8-46.7,43.5-78.4,75.2-109.1l8.4-8.2
		c4.9-4.8,9.2-6.5,13.2-5.3c4.1,1.3,6.9,5.3,8.3,12.5c0.6,2.9,0.3,5.7,0.1,8.3c-0.1,0.9-0.2,1.8-0.2,2.6c-3.3,58.4,6,71.8,61.9,89.1
		l5.8,1.8c13.3,4,27.1,8.1,38.5,17.4c10.7,8.7,22.4,10.7,36.8,11.1c33.1,0.9,62.5,15.8,80.7,40.8C516,208,520.9,239,512,269.1
		c-4.8,16.3-2.5,25.2,9.7,36.7c22.3,20.9,46.9,46.8,60.4,80.2c3.9,9.5,6.8,19.1,0.6,31.4c-21.9,43.4-44.9,90.9-72.3,149.4
		c-5.2,11.1-13,16.4-23,20.9C428.6,614.1,367.2,627.3,302.3,627.3z M37.5,344.4c-30.6,20.1-37,45.5-21.4,84.9
		c7.6,19.1,16.3,38,24.7,56.4c7.8,17.1,15.9,34.7,23.2,52.4c6.6,16.3,17.8,28,36.3,38.1c18.4,10,36.8,17.4,56.5,22.7
		c120.3,32.4,227.5,26.4,327.4-18.4c8.9-4,14.9-8.1,19.1-17.1c27.4-58.6,50.4-106.2,72.4-149.7c4.7-9.4,2.5-16.5-0.9-24.9
		c-13-32-36.8-57.1-58.5-77.4c-14.3-13.4-17.6-25.5-11.9-44.6c8.2-27.7,3.7-56.2-12.3-78.2c-16.7-23-43.8-36.7-74.5-37.5
		c-13.8-0.4-28.4-2.2-41.5-12.9c-10.2-8.3-22.7-12-35.8-16l-5.9-1.8c-59.6-18.4-70.9-34.8-67.4-97c0.1-1,0.2-2,0.2-3
		c0.2-2.2,0.4-4.2,0.1-5.9c-1-4.8-2.3-6.4-2.9-6.5c-0.5-0.2-2.3,0.3-5.4,3.4l-8.4,8.2c-30.8,29.9-62.7,60.7-73,105.2
		c-5.3,22.9-19.8,33.8-34.6,42.2c-57.9,32.6-83.5,70.3-80.8,118.7C63.8,312.9,60.2,331.3,37.5,344.4z M301,609.9
		c-10.5,0-20.4-1.1-30-3.2c-13.8-3.1-12.7-14.8-11.9-22.6c0.2-2.1,0.4-4.1,0.3-6c-0.4-10.7-0.4-21.3-0.5-32
		c-0.1-13.9-0.2-28.3-1-42.3c-0.3-6.5-0.1-13.1,4.1-17.5c3.4-3.6,8.6-5.2,17.1-5.4l1.6,0c32-0.5,48-0.7,56.2,8.1
		c8.2,8.9,6.7,24.9,3.7,56.8c-0.7,7.6-1.3,14.8-1.8,22.1c-0.5,6.7-1,13.5-1.6,20.2c-0.3,3.4-0.9,6.8-1.6,10.5
		c-0.3,1.7-0.6,3.5-1,5.4l-0.5,2.8l-2.8,0.5C320.7,609,310.6,609.9,301,609.9z M299,488.6c-5.3,0-11.4,0.1-18.1,0.2l-1.6,0
		c-6.1,0.1-9.7,1-11.5,2.9c-1.7,1.8-2.3,5.5-2,11.7c0.7,14.2,0.9,28.7,1,42.7c0.1,10.6,0.2,21.2,0.5,31.8c0.1,2.2-0.1,4.5-0.4,7
		c-0.9,9.1-0.6,12.7,5.8,14.2c16.6,3.7,34.5,4,54.7,0.9c0.2-0.9,0.3-1.8,0.5-2.7c0.6-3.5,1.2-6.6,1.5-9.8c0.6-6.7,1.1-13.4,1.6-20.1
		c0.6-7.3,1.1-14.6,1.8-22c2.7-28.9,4.2-44.7-1.6-51C326.8,489.6,316.5,488.6,299,488.6z M363.4,603.3c-1.4,0-2.8-0.1-4.3-0.3
		c-4.8-0.7-8.3-2.5-10.2-5.5c-3-4.6-1.4-10.5-0.2-15.2c0.5-2,1.1-3.9,1.2-5.3c1.1-16.3,2.8-32.9,4.4-48.9c1-10,2-20.1,2.9-30.1
		c0.4-4.9,1.4-16.5,15.2-16.5c0,0,0.1,0,0.1,0c2,0,4.1-0.3,6.1-0.6c5.3-0.7,11.4-1.5,18,1.6l2.4,1.1l-0.1,2.6
		c-0.1,1.3-0.1,2.5-0.1,3.8c-0.1,2.8-0.1,5.7-0.6,8.6c-1.4,9.3-2.9,18.5-4.4,27.8c-2.9,18.1-6,36.9-8.3,55.3
		c-1,7.8-3.9,13.6-8.8,17.3C373,601.9,368.5,603.3,363.4,603.3z M372.4,489.4c-4.8,0-6.6,1.4-7.3,9.3c-0.9,10.1-1.9,20.2-2.9,30.2
		c-1.6,15.9-3.3,32.4-4.4,48.6c-0.1,2.2-0.8,4.5-1.4,6.8c-0.9,3.2-2,7.1-0.9,8.8c0.6,0.9,2.3,1.6,4.7,2c4.8,0.7,8.7-0.1,11.6-2.3
		c3.1-2.4,5-6.4,5.8-12c2.3-18.6,5.4-37.4,8.4-55.6c1.5-9.2,3-18.5,4.4-27.7c0.4-2.4,0.4-4.9,0.5-7.6c0-0.4,0-0.8,0-1.1
		c-3.6-1.1-7.2-0.6-11.2,0C377.2,489.1,374.8,489.2,372.4,489.4C372.4,489.4,372.4,489.4,372.4,489.4z M231.5,601.8
		c-5.7,0-11.1-1.1-16.1-2c-3.1-0.6-6.1-1.2-9.2-1.6l-1.6-0.2c-7.3-0.8-17.4-1.8-19.8-15.7c-5.3-30.4-11.8-62.8-20.3-101.9
		c-0.9-4.3-1.8-10.5,2-14.1c3.6-3.5,9.4-2.6,14.1-1.4l2.3,0.6c15,3.5,26.5,5.4,34.8,6.9c28,4.8,29.4,6.4,30.1,35.8
		c0.2,8.4,0.4,18.8,1.4,32.7c0.9,12.6,0.1,25.4-0.7,37.8c-0.4,5.7-0.7,11.5-0.9,17.3l-0.1,2.6l-2.5,0.9
		C240.4,601.2,235.9,601.8,231.5,601.8z M173.5,471.7c-1.2,0-1.5,0.3-1.5,0.3c0,0-1,1.1,0.3,6.8c8.5,39.3,15,71.8,20.4,102.3
		c1.3,7.6,5.1,8.4,12.9,9.2l1.6,0.2c3.3,0.4,6.5,1,9.8,1.7c7.8,1.5,15.2,3,22.9,0.8c0.2-4.9,0.5-9.8,0.8-14.7
		c0.8-12.7,1.6-24.7,0.7-36.7c-1-14.1-1.2-24.6-1.4-33.1c-0.5-24.3-0.5-24.3-23.5-28.2c-8.5-1.4-20.1-3.4-35.3-7l-2.5-0.6
		C176.1,471.9,174.5,471.7,173.5,471.7z M394.7,593.2l0.8-5.2c1.3-9.1,2.6-18.2,3.9-27.3c3.3-23,6.7-46.7,10.5-69.9
		c1.7-10.4,27.2-17.9,32.2-19.4c11-3.1,25.1-5.5,30,0.1c3,3.6,2.4,9.7,1.5,14.6c-1.8,9.9-3.8,19.7-5.7,29.5
		c-1.4,7.1-2.9,14.2-4.2,21.4c-8.5,44.5-13.2,48.6-63.9,55.5L394.7,593.2z M462.1,476.2c-4.8,0-13.6,1.3-24.6,5.1
		c-14,4.8-19.5,9.6-19.9,11c-3.8,23.1-7.2,46.8-10.5,69.7c-1.1,7.4-2.1,14.7-3.2,22.1c42.2-5.9,44.5-9.1,52-48.4
		c1.4-7.1,2.8-14.3,4.2-21.4c2-9.8,3.9-19.5,5.7-29.3c1.2-6.4,0.3-7.9,0.2-8.1C465.6,476.4,464.2,476.2,462.1,476.2z M162,589.5
		c-3,0-6.6-0.5-10.9-1.5c-23.4-5.2-34.6-16.7-38.7-39.7c-4.4-24.8-10.6-48.9-17-74.5c-2.7-10.8-5.5-21.7-8.2-32.8l-1.3-5.5l5.6,0.7
		c44,5.2,66,26.4,69.1,66.7c1.2,16,5.3,32.1,9.3,47.8c1.3,4.9,2.5,9.9,3.7,14.8c2.2,9.2,2.7,16.3-1.5,20.6
		C169.7,588.4,166.5,589.5,162,589.5z M96.2,444.9c2.2,9.1,4.5,18.2,6.8,27.1c6.5,25.7,12.7,49.9,17.2,75
		c3.6,20.1,12.1,28.8,32.7,33.4c9.8,2.2,12.7,1.1,13.6,0.2c1.4-1.4,1.2-5.9-0.5-13.2c-1.2-4.9-2.4-9.8-3.6-14.7
		c-4-16-8.2-32.5-9.5-49.1C150,468.9,132.5,450.7,96.2,444.9z M482.4,567.7c-1.5,0-3.1-0.2-4.7-0.8c-9.3-3.1-6.9-11.8-5.7-16
		c0.3-1.2,0.7-2.3,0.8-3.3c0.6-4.4,1.6-8.7,2.5-12.9c1.4-6.3,2.7-12.3,2.9-18.3c1-39.3,22.7-63.4,68.3-75.9l8.3-2.3l-56.6,117.9
		C494.7,563.5,488.7,567.7,482.4,567.7z M540.1,450.7c-36.4,12-53.2,32.6-54,65.9c-0.2,6.8-1.6,13.4-3.1,19.8
		c-0.9,4-1.8,8.2-2.4,12.3c-0.2,1.4-0.6,2.9-1,4.4c-1.6,5.6-1.1,5.8,0.6,6.3c4.9,1.7,8.9-2.4,10.9-6.7L540.1,450.7z M104.7,564.7
		l-5.2-0.6c-13.6-1.7-21.5-6.6-25.5-16c-5.3-12.3-10.9-24.5-16.6-36.7c-15.6-33.9-31.8-69-41.9-107.4l-2.1-7.9l7.5,3.3
		c28.3,12.4,57.6,25.3,63,66.2c2,15.5,5.8,30.7,9.9,46.8c3.8,15.1,7.7,30.8,10.2,47.2L104.7,564.7z M25.4,409.9
		c10,34.7,24.8,67,39.3,98.2c5.7,12.3,11.3,24.5,16.6,36.8c2.3,5.4,6.6,8.7,14,10.4c-2.4-14.1-5.8-27.8-9.1-41
		c-4.1-16.3-7.9-31.7-10-47.7C71.7,433.3,50.8,421.3,25.4,409.9z M327.1,473c-93,0-183.1-21.1-269.5-63.1l-2.9-1.4
		c-5.7-2.8-11.6-5.6-17.2-8.9c-13.4-7.9-20.2-11.9-21-18.6c-0.9-7.2,5.6-13.5,21.3-28.6l1.2-1c2.9-2.3,9.8-7.8,16.5-13.4
		c8.3-6.8,15.9-6.5,22.5,1c33.8,38.1,81.6,48.4,119.5,53.1c107.7,13.3,203-14.4,283.5-82.4c5.2-4.4,13.9-11.7,23.9-0.4
		c5.9,6.7,12.4,13.2,18.7,19.4c16.2,16.1,33,32.7,42.5,55.9c6,14.7,6.5,24.4-8.3,33.3c-24.5,14.8-49.7,30-79.2,37
		C427.4,467,376.8,473,327.1,473z M43.1,358.2C32,369,23.9,376.8,24.3,380.1c0.3,2.8,7.8,7.2,17.2,12.7c5.3,3.1,11.1,5.9,16.7,8.6
		l2.9,1.4c130.8,63.7,270.7,78.6,415.7,44.4c28.3-6.7,51.9-20.9,76.9-36c10.3-6.2,10.4-10.9,5.1-23.6c-8.9-21.7-24.4-37.1-40.7-53.3
		c-6.4-6.3-13-12.9-19.1-19.8c-4.2-4.8-6-4.6-12.9,1.2c-82.2,69.4-179.6,97.8-289.5,84.2c-39.3-4.8-88.9-15.6-124.4-55.7
		c-3.8-4.3-6.5-4.3-11.7-0.1c-6.8,5.5-13.7,11.1-16.6,13.4L43.1,358.2z M246.3,381.5c-20.9,0-42.1-1.7-63.7-5
		c-18.3-2.8-36.5-8.1-55.6-16c-29.7-12.3-48.4-29.1-55.6-49.9c-7.1-20.5-2.8-44.8,12.7-72.2c14.4-25.5,37.3-44.4,57.8-59.5
		c4.5-3.4,11.2-7.5,16.9-4.7c4.2,2.1,6.2,7,6.3,15.1c0.6,43.7,21.2,69.6,64.8,81.3c50.6,13.6,92.9,18.5,134.8-1.7
		c36.9-17.8,52-51.4,41.3-92c-0.6-2.4-0.8-4.7-1-7c-0.1-1-0.2-2-0.3-2.9l-0.6-4.4l4.4-0.1c46.3-0.8,76.5,17.3,86.5,52.2
		c11.1,38.8-5.7,80.8-41.9,104.4C389.4,360.6,320.1,381.5,246.3,381.5z M154.7,181.1c-1,0-3.4,0.5-8.2,4
		c-19.8,14.7-42,32.9-55.6,57.1c-14.3,25.4-18.4,47.5-12.1,65.8c6.4,18.5,23.6,33.7,51.2,45.2c18.5,7.7,36.1,12.8,53.8,15.5
		c95.8,14.9,185-4,264.9-56.1c33.3-21.7,48.8-60.1,38.7-95.6c-8.7-30.5-33.8-46.1-74.5-46.5c0.1,1.5,0.3,3,0.7,4.5
		c11.8,44.6-4.8,81.5-45.4,101.1c-49,23.7-98.1,13.6-140.3,2.2c-46.8-12.6-69.9-41.6-70.6-88.8c-0.1-5.7-1.3-7.8-2-8.1
		C155.3,181.2,155.1,181.1,154.7,181.1z M293.7,271.8c-18.2,0-36.7-2.4-55.3-7.3c-55.3-14.5-72.9-41-63.1-94.7
		c10.8-58.7,34.6-101.8,74.9-135.6l6.1-5.1l0.3,8c2.3,54.9,29.7,86.1,89,101.2c38,9.7,54.7,25.8,54,52.4c-1,41.3-20.2,66-58.8,75.5
		C325.6,269.9,309.8,271.8,293.7,271.8z M249.4,45.4c-35.3,31.8-56.4,72-66.3,125.8c-9.1,49.8,5.9,72.2,57.3,85.7
		c34.3,9,66.6,9.5,98.8,1.6c34.6-8.5,51.9-30.8,52.8-68.1c0.5-22.8-13.4-35.7-48.1-44.5C284.3,130.7,254.1,98.7,249.4,45.4z"/>
</g>
</svg>
