<?xml version="1.0" encoding="utf-8"?>
<!-- Generator: Adobe Illustrator 19.0.0, SVG Export Plug-In . SVG Version: 6.00 Build 0)  -->
<svg version="1.1" id="Layer_1" xmlns="http://www.w3.org/2000/svg" xmlns:xlink="http://www.w3.org/1999/xlink" x="0px" y="0px"
	 viewBox="-82.8 152.2 144 166.8" style="enable-background:new -82.8 152.2 144 166.8;" xml:space="preserve">
<style type="text/css">
	.st0{fill:#D72328;}
</style>
<g id="XMLID_3_">
	<g id="XMLID_1_">
		<path id="XMLID_50_" class="st0" d="M-20.4,152.2L-20.4,152.2c0.8,1,0.7,2.1,0.8,3.2c0.3,3.1,0.7,6.1,1.6,9.1
			c0.6,2,1.5,3.9,2.8,5.5c1.9,2.6,4.5,4.2,7.5,5.2c2.2,0.7,4.4,1.1,6.7,1.4c2.5,0.3,4.9,0.3,7.4,0.3c3.8,0.1,7.5,0.6,11,1.9
			c3,1.1,5.7,2.8,7.7,5.3c1.9,2.3,3,4.9,3.6,7.7c0.4,1.9,0.4,3.9,0.2,5.8c-0.3,2.4-0.6,4.8-0.9,7.2c-0.1,0.4-0.1,0.9-0.1,1.4
			c0.3,0,0.6,0,0.8,0c1.7,0,3.5-0.1,5.2,0.1c6.8,0.6,12.1,3.7,15.5,9.7c2,3.5,2.6,7.3,2.2,11.2c-0.9,8.1-7,14.7-15.3,16.1
			c-1.4,0.2-2.9,0.3-4.3,0.3c-6.8,0-13.7,0-20.5,0s-13.6,0-20.4,0c-8.6,0-17.1,0-25.7,0c-7.1,0-14.2,0-21.3,0c-1.5,0-3,0-4.5,0
			c-3.5,0-6.8-0.7-9.8-2.5c-4.8-2.7-7.6-6.8-8.7-12.2c-0.7-3.9-0.4-7.7,1.1-11.3c2.2-5.4,6.3-8.8,11.8-10.5c1.7-0.5,3.5-0.8,5.3-0.8
			c2.7,0,5.5,0,8.2,0c0.2,0,0.4,0,0.8,0c-0.1-0.3-0.2-0.5-0.3-0.7c-1.8-3.4-3.3-6.9-4.1-10.6c-1.6-7.1-0.9-13.9,2.2-20.4
			c3-6.4,7.3-11.8,13-16c4.4-3.2,9.3-5.2,14.7-6c1.1-0.2,2.2-0.2,3.3-0.4c0.2,0,0.3-0.1,0.5-0.1C-22,152.2-21.2,152.2-20.4,152.2z"
			/>
		<path id="XMLID_49_" class="st0" d="M-82.8,254.2c0.2,0,0.5,0,0.7,0c12.6,0,25.1,0,37.7,0c0.3,0,0.5,0,0.8,0
			c0.1,0.5,0.1,0.9,0.2,1.4c0.3,3.2,0.5,6.4,0.8,9.6c0.2,2.5,0.4,5.1,0.6,7.6c0.3,3,0.5,5.9,0.8,8.9c0.2,2.1,0.3,4.1,0.5,6.2
			c0.2,2.5,0.4,5.1,0.7,7.6c0.2,2,0.3,4.1,0.5,6.1c0.2,2.6,0.4,5.1,0.7,7.7c0.2,1.9,0.3,3.9,0.5,5.8c0.1,1.5,0.3,2.9,0.4,4.4
			c-7.3,0-14.5,0-21.8,0c-0.2,0-0.4-0.1-0.6-0.1c-0.6,0-1.1-0.1-1.7,0c-1.7,0.1-3.1-0.7-4.2-1.9c-0.5-0.5-0.8-1.1-1-1.8
			c-1.3-5.2-2.7-10.5-4-15.7c-2.8-11.3-5.6-22.6-8.4-33.9c-0.9-3.7-1.8-7.4-2.8-11.2c0-0.2-0.2-0.4-0.3-0.5
			C-82.8,254.3-82.8,254.2-82.8,254.2z"/>
		<path id="XMLID_48_" class="st0" d="M61.2,165.7c0,0.1-0.1,0.2-0.1,0.3c0,1.4-0.5,2.7-1.2,3.9c-1.8,3.4-3.6,6.8-5.6,10.1
			c-3,5.2-6.1,10.4-9.2,15.6c-0.5,0.9-1.3,1.5-2.2,1.9c-0.4,0.2-0.9,0.2-1.3-0.1c-1.2-0.7-2-1.7-2.4-3c-0.9-2.5-1.8-5-2.7-7.5
			c-0.8-2.4-1.6-4.9-2.4-7.4c-0.2-0.6-0.3-1.2-0.3-1.8c-0.1-0.8,0.1-1.6,0.5-2.3c2-3.5,3.9-7.1,5.9-10.6c0.8-1.4,1.8-2.8,2.7-4.2
			c0.7-1.1,1.7-2.1,2.8-2.8s2.3-1.4,3.4-2.1c0.1-0.1,0.3-0.1,0.4-0.1c2.6,0,5,0.5,7.3,1.9c2.1,1.3,3.6,3.2,4.2,5.7
			c0.1,0.4,0.1,0.8,0.2,1.3C61.2,165,61.2,165.4,61.2,165.7z"/>
		<path id="XMLID_46_" class="st0" d="M38.6,319.2c-9.4,0-18.8,0-28.3,0c1.8-21.6,3.6-43.3,5.4-64.9c0.5-0.1,38.3-0.2,39.1,0
			C49.4,276,44,297.6,38.6,319.2z"/>
		<path id="XMLID_45_" class="st0" d="M0.2,319c-9.4,0-18.8,0-28.2,0c-0.1-0.5-0.1-0.9-0.1-1.4c-0.3-4.1-0.7-8.2-1-12.3
			c-0.2-2.6-0.4-5.1-0.6-7.7c-0.3-3-0.5-5.9-0.8-8.9c-0.2-2.5-0.4-5.1-0.6-7.6s-0.4-5.1-0.6-7.6c-0.2-2-0.3-4-0.5-6
			c-0.2-2.6-0.4-5.3-0.7-7.9c-0.1-1.6-0.3-3.2-0.4-4.8c0-0.2,0-0.4,0-0.6c0.4-0.1,38.3-0.2,39,0C3.7,275.8,1.9,297.4,0.2,319z"/>
	</g>
</g>
</svg>
