<?xml version="1.0" encoding="utf-8"?>
<!-- Generator: Adobe Illustrator 19.0.0, SVG Export Plug-In . SVG Version: 6.00 Build 0)  -->
<svg version="1.1" id="Layer_1" xmlns="http://www.w3.org/2000/svg" xmlns:xlink="http://www.w3.org/1999/xlink" x="0px" y="0px"
	 viewBox="0 0 570 328.3" style="enable-background:new 0 0 570 328.3;" xml:space="preserve">
<style type="text/css">
	.st0{fill:#D72027;}
	.st1{fill:#D71F26;}
</style>
<g id="XMLID_53_">
	<g id="XMLID_1223_">
		<path id="XMLID_1237_" class="st0" d="M470.7,286.7H29.7c-13.4,0-24.3-10.9-24.3-24.3V66.8c0-13.4,10.9-24.3,24.3-24.3h2.5
			c-0.5-1.8-0.9-3.6-1.2-5.5h-1.3C13.3,37.1,0,50.4,0,66.8v195.6c0,16.4,13.3,29.7,29.7,29.7h439.8
			C469.7,290.3,470.1,288.5,470.7,286.7z"/>
		<path id="XMLID_1238_" class="st0" d="M540.2,37.1h-431c-0.2,1.8-0.6,3.7-1.2,5.5h432.1c13.4,0,24.3,10.9,24.3,24.3v195.6
			c0,11.3-7.8,20.9-18.4,23.6c0.6,1.7,1,3.5,1.4,5.3c12.9-3.3,22.5-14.9,22.5-28.8V66.8C570,50.4,556.6,37.1,540.2,37.1z"/>
	</g>
	<g id="XMLID_1226_">
		<path id="XMLID_1225_" class="st1" d="M64,29.8v18.8H39.6c0,0-8.4-42.2,24.3-45.9v10.9c0,0-13.8,6.5-11.2,16.2H64z"/>
		<path id="XMLID_1227_" class="st1" d="M97.6,29.8v18.8H73.2c0,0-8.4-42.2,24.3-45.9v10.9c0,0-13.8,6.5-11.2,16.2H97.6z"/>
	</g>
	<g id="XMLID_1229_">
		<path id="XMLID_1231_" class="st1" d="M514.3,298.5v-18.8h24.3c0,0,8.4,42.2-24.3,45.9v-10.9c0,0,13.8-6.5,11.2-16.2H514.3z"/>
		<path id="XMLID_1230_" class="st1" d="M480.7,298.5v-18.8H505c0,0,8.4,42.2-24.3,45.9v-10.9c0,0,13.8-6.5,11.2-16.2H480.7z"/>
	</g>
	<g id="XMLID_1228_">
		<path id="XMLID_159_" class="st1" d="M49,156.7c-2.3,0-4.2-0.5-5.8-1.4c-1.6-1-2.4-2.4-2.4-4.2c0-1,0.3-1.9,0.9-2.7
			c0.6-0.8,1.5-1.4,2.7-1.8c-0.2,0.6-0.3,1.2-0.4,1.7c-0.1,0.6-0.1,1.1-0.1,1.5c0,1.6,0.4,2.9,1.3,3.9c0.9,1,2.2,1.5,3.9,1.5
			c1.6,0,3-0.4,4.3-1.2c1.3-0.8,2.3-1.8,3.3-3.1c0.9-1.3,1.7-2.7,2.3-4.2c0.6-1.5,1.2-3,1.6-4.5c0.4-1.5,0.8-2.8,1-3.9
			c0.3-1.4,0.7-3.1,1.1-5.3c0.4-2.2,0.9-4.5,1.4-7c-1.6,3-3.4,5.5-5.5,7.5s-4.6,3-7.5,3c-2.4,0-4-0.7-5-2c-1-1.3-1.5-3-1.5-5.1
			c0-1.6,0.2-3.3,0.6-5.1c0.4-1.8,0.9-3.7,1.4-5.5c0.5-1.9,1-3.6,1.4-5.4c0.4-1.7,0.6-3.3,0.6-4.6c0-1.3-0.2-2.4-0.7-3.3
			c-0.5-0.9-1.4-1.4-2.7-1.4c-1.1,0-2.1,0.3-2.9,1c-0.8,0.7-1.5,1.6-2,2.7c-0.5,1.1-0.9,2.2-1.2,3.4c-0.3,1.2-0.4,2.3-0.4,3.3
			c0,0.6,0,1.1,0.1,1.6c0.1,0.5,0.2,1,0.4,1.3c-1.5,0-2.6-0.4-3.2-1.2c-0.6-0.8-0.9-1.8-0.9-2.9c0-1.2,0.3-2.5,0.9-3.8
			c0.6-1.3,1.4-2.4,2.5-3.5c1.1-1.1,2.3-1.9,3.7-2.6c1.4-0.7,2.8-1,4.4-1c1.5,0,2.7,0.3,3.7,0.9c0.9,0.6,1.6,1.4,2,2.3
			c0.4,0.9,0.6,1.9,0.6,2.8c0,1.1-0.2,2.5-0.6,4.2c-0.4,1.7-0.9,3.4-1.4,5.2c-0.5,1.8-1,3.6-1.4,5.4c-0.4,1.8-0.6,3.5-0.6,5.1
			c0,1.7,0.3,3.1,1,4.2c0.7,1.1,1.7,1.6,3.2,1.6c1.4,0,2.7-0.4,3.9-1.3c1.2-0.9,2.4-2.1,3.5-3.5c1.1-1.5,2.1-3.1,2.9-4.8
			c0.9-1.8,1.7-3.5,2.3-5.2c0.5-2.2,1.1-4.2,1.6-6.3c0.6-2,1.2-3.8,1.8-5.4c0.6-1.6,1.2-2.8,1.9-3.7c0.6-0.9,1.3-1.4,1.9-1.4
			c0.4,0,0.9,0.2,1.6,0.5c0.6,0.3,1.2,0.8,1.8,1.4c-0.8,1.3-1.6,2.6-2.2,3.7c-0.6,1.2-1.2,2.5-1.7,3.9c-0.5,1.4-1.1,3-1.6,4.9
			c-0.6,1.9-1.2,4.2-1.9,7c-0.7,2.8-1.5,6.1-2.5,10.1c-0.5,2-1.1,4.1-1.7,6.3c-0.6,2.2-1.3,4.2-2.2,6.2c-0.9,2-1.9,3.7-3.1,5.3
			c-1.2,1.6-2.6,2.8-4.3,3.7C53.3,156.2,51.3,156.7,49,156.7z"/>
		<path id="XMLID_161_" class="st1" d="M76.2,147.4c-1.7,0-2.9-0.5-3.7-1.6c-0.7-1.1-1.1-2.3-1.1-3.9c0-1.2,0.2-2.5,0.6-3.8
			s0.9-2.6,1.6-3.7c0.7-1.2,1.4-2.1,2.2-2.8c0.8-0.7,1.6-1.1,2.5-1.1c0.2,0,0.4,0,0.6,0.1c0.2,0.1,0.4,0.1,0.6,0.2
			c-0.4,0.3-0.8,0.9-1.3,1.8c-0.5,0.9-1,1.8-1.4,2.9c-0.4,1.1-0.8,2.2-1.1,3.3c-0.3,1.1-0.4,2-0.4,2.8c0,1.2,0.2,2.1,0.6,2.6
			c0.4,0.5,0.9,0.8,1.6,0.8c0.8,0,1.8-0.4,3-1.3c1.2-0.9,2.3-2,3.4-3.4c-1.1-0.9-2-2.1-2.6-3.6c-0.6-1.5-0.9-3-0.9-4.6
			c0-1.3,0.2-2.6,0.7-3.7c0.5-1.2,1.1-2.1,2-2.8c0.9-0.7,1.9-1,3.2-1c1.6,0,2.7,0.4,3.3,1.3c0.6,0.9,0.8,2,0.8,3.3
			c0,1.6-0.4,3.3-1.1,5.2c-0.8,1.9-1.7,3.7-2.9,5.5c0.7,0.4,1.5,0.6,2.3,0.6c0.6,0,1.4-0.1,2.2-0.4c0.8-0.3,1.6-0.7,2.4-1.3
			c0.8-0.6,1.4-1.5,1.9-2.6l0.7,0.6c-0.8,1.9-1.9,3.2-3.4,4c-1.5,0.8-2.8,1.2-4.2,1.2c-0.5,0-1,0-1.5-0.1c-0.5-0.1-0.9-0.2-1.4-0.4
			c-1.4,1.8-2.8,3.3-4.5,4.5C79.2,146.8,77.7,147.4,76.2,147.4z M85,138.6c1-1.5,1.8-3,2.5-4.6c0.7-1.6,1-3.1,1-4.6
			c0-1.2-0.2-2-0.5-2.5c-0.3-0.5-0.8-0.8-1.3-0.8c-0.8,0-1.6,0.6-2.5,1.7c-0.8,1.2-1.3,2.6-1.3,4.4c0,1.2,0.2,2.3,0.5,3.5
			C83.8,136.8,84.3,137.8,85,138.6z"/>
		<path id="XMLID_164_" class="st1" d="M98.4,147.3c-1.4,0-2.4-0.6-3.3-1.8c-0.8-1.2-1.2-2.6-1.2-4.2c0-1.2,0.2-2.5,0.6-4
			c0.4-1.5,0.8-3,1.4-4.5c0.6-1.5,1.1-2.7,1.7-3.7c0.6-1,1.1-1.4,1.6-1.4c0.2,0,0.5,0.1,1,0.3c0.5,0.2,0.9,0.5,1.2,0.9
			c-0.4,0.7-1,1.7-1.6,3.1c-0.6,1.4-1.2,2.9-1.7,4.5c-0.5,1.6-0.7,3.1-0.7,4.4c0,0.3,0,0.8,0.1,1.5c0.1,0.7,0.3,1.2,0.6,1.8
			c0.3,0.5,0.8,0.8,1.4,0.8c0.8,0,1.5-0.4,2.3-1.2c0.8-0.8,1.6-1.8,2.4-3c0.8-1.2,1.6-2.6,2.4-4c0.8-1.4,1.5-2.8,2.1-4.1
			c0.7-1.3,1.2-2.4,1.6-3.3c0.2,0,0.6,0.1,1,0.2c0.5,0.1,0.9,0.3,1.3,0.5c0.4,0.2,0.6,0.5,0.6,0.8c0,0.2-0.2,0.7-0.6,1.6
			c-0.4,0.9-0.9,2-1.4,3.3c-0.5,1.3-1,2.6-1.4,3.9c-0.4,1.3-0.6,2.5-0.6,3.5c0,0.7,0.1,1.3,0.4,1.7c0.3,0.4,0.8,0.7,1.5,0.7
			c0.8,0,1.9-0.4,3.1-1.1c1.2-0.8,2.4-1.9,3.7-3.3c1.2-1.5,2.3-3.2,3.3-5.2l0.8,0.5c-0.8,2.2-1.9,4.1-3.3,5.7
			c-1.4,1.7-2.8,2.9-4.3,3.9c-1.5,0.9-3,1.4-4.4,1.4c-1,0-1.9-0.2-2.5-0.6c-0.6-0.4-1.1-0.9-1.3-1.6c-0.3-0.7-0.4-1.4-0.4-2.2
			c0-0.5,0-1,0.1-1.5c0.1-0.5,0.2-1,0.3-1.5c-0.7,1.3-1.5,2.5-2.3,3.7c-0.8,1.1-1.7,2-2.6,2.7C100.3,146.9,99.4,147.3,98.4,147.3z"
			/>
		<path id="XMLID_166_" class="st1" d="M142.1,148.8c-1.9,0-3.5-0.6-4.8-1.9c-1.3-1.3-1.9-3.2-1.9-5.7c0-2,0.4-3.9,1.2-5.8
			c0.8-1.9,1.8-3.6,3.1-5.1c1.3-1.5,2.7-2.7,4.2-3.6c1.6-0.9,3.1-1.3,4.6-1.3c1.6,0,2.8,0.5,3.4,1.4c0.6,1,0.9,2,0.9,3
			c0,1.2-0.3,2.2-0.8,3.1c-0.5,0.9-1.3,1.3-2.2,1.3c-0.7,0-1.3-0.3-1.7-0.9c0.6-0.3,1.1-1,1.6-1.9c0.4-1,0.7-1.9,0.7-2.8
			c0-0.5-0.1-0.8-0.3-1.1c-0.2-0.3-0.5-0.4-1-0.4c-1.1,0-2.2,0.5-3.3,1.4c-1.1,1-2.2,2.2-3.2,3.7c-1,1.5-1.8,3.1-2.4,4.8
			c-0.6,1.7-0.9,3.3-0.9,4.7c0,1.2,0.3,2.4,0.9,3.4c0.6,1,1.8,1.6,3.5,1.6c1.6,0,3.2-0.4,4.8-1.3c1.6-0.9,3.1-2.1,4.5-3.8
			c1.4-1.6,2.5-3.6,3.4-5.7l0.8,0.6c-0.9,2.4-2.2,4.5-3.8,6.4c-1.6,1.9-3.4,3.4-5.3,4.5C145.9,148.3,144,148.8,142.1,148.8z"/>
		<path id="XMLID_168_" class="st1" d="M157.9,148.3c-1.2,0-2.3-0.4-3.1-1.2c-0.9-0.8-1.3-2.1-1.3-3.7c0-1.4,0.3-3,1-4.6
			c0.6-1.7,1.5-3.3,2.6-4.9c1.1-1.6,2.4-3.1,3.8-4.4c1.4-1.3,2.9-2.4,4.5-3.2c1.6-0.8,3.1-1.2,4.7-1.2s2.9,0.4,3.9,1.2
			c1,0.8,1.6,1.9,1.6,3.3c0,1-0.3,1.7-0.8,2c-0.5,0.4-1.2,0.5-2.1,0.5c0.1-0.3,0.1-0.7,0.2-1c0.1-0.4,0.1-0.7,0.1-1
			c0-0.9-0.2-1.7-0.7-2.4c-0.4-0.7-1.2-1-2.3-1c-1.1,0-2.3,0.4-3.4,1.2c-1.2,0.8-2.3,1.8-3.4,3.1c-1.1,1.3-2,2.7-2.9,4.2
			c-0.8,1.5-1.5,3-2,4.5c-0.5,1.5-0.7,2.8-0.7,3.9c0,1.6,0.5,2.3,1.6,2.3c0.9,0,1.9-0.4,3-1.3c1.1-0.9,2.2-2,3.3-3.3
			c1.1-1.3,2.2-2.7,3.3-4.2c1-1.4,2-2.8,2.8-3.9c0.2-0.2,0.3-0.4,0.3-0.4c0.2,0,0.5,0.1,0.9,0.2c0.4,0.1,0.7,0.3,1,0.5
			c0.3,0.2,0.4,0.5,0.4,0.8c0,0.4-0.2,0.8-0.5,1.5c-0.4,0.6-0.8,1.3-1.2,2.1c-0.4,0.8-0.8,1.6-1.2,2.4c-0.4,0.8-0.5,1.6-0.5,2.3
			c0,0.6,0.2,1.2,0.5,1.8c0.3,0.6,0.8,0.9,1.6,0.9c1.1,0,2.5-0.8,4.2-2.4c1.8-1.6,3.5-3.9,5.3-7.1l0.6,0.6c-0.8,2.2-1.9,4.1-3.2,5.7
			c-1.3,1.6-2.7,2.9-4.2,3.8c-1.5,0.9-3,1.4-4.4,1.4c-1.5,0-2.6-0.4-3.3-1.3c-0.7-0.9-1-1.8-1-2.9c0-0.2,0-0.5,0.1-0.8
			c0-0.3,0.1-0.6,0.1-0.9c-1.7,2.3-3.3,4-4.7,5.2C160.8,147.7,159.3,148.3,157.9,148.3z"/>
		<path id="XMLID_170_" class="st1" d="M200.4,146.7c-1.4,0-2.4-0.4-3.1-1.1c-0.7-0.7-1-1.6-1-2.8c0-0.8,0.1-1.7,0.4-2.6
			c0.3-0.9,0.6-1.9,0.9-2.8c0.3-1,0.4-1.9,0.4-2.8c0-1.1-0.2-1.9-0.7-2.3c-0.5-0.4-1-0.6-1.7-0.6c-1.2,0-2.5,0.5-3.8,1.5
			c-1.3,1-2.5,2.3-3.7,3.9c-1.2,1.6-2.3,3.2-3.4,4.9c-1,1.7-2,3.2-2.8,4.5c-0.6,0-1.2-0.1-1.8-0.3c-0.6-0.2-1-0.5-1.3-1
			c0-0.2,0.2-0.8,0.6-1.9c0.4-1,0.9-2.3,1.5-3.8c0.6-1.5,1.1-3.1,1.5-4.7c0.4-1.6,0.7-3.1,0.7-4.4c0.2-0.3,0.6-0.6,1.1-0.8
			c0.5-0.3,1.1-0.4,1.6-0.4c1.1,0,1.6,0.5,1.6,1.6c0,0.6-0.2,1.7-0.5,3.2c-0.4,1.5-0.8,3.1-1.4,4.7c1.1-1.6,2.3-3.3,3.6-4.9
			c1.3-1.6,2.8-3,4.3-4c1.5-1.1,3-1.6,4.5-1.6c1.6,0,2.7,0.6,3.4,1.7c0.7,1.1,1,2.4,1,3.7c0,1.2-0.2,2.4-0.6,3.4
			c-0.4,1.1-0.8,2.1-1.2,3.1c-0.4,1-0.6,2-0.6,3c0,0.8,0.2,1.4,0.5,1.8c0.3,0.3,0.8,0.5,1.3,0.5c1,0,2-0.5,3-1.4
			c1-0.9,2-2.1,2.9-3.6c0.9-1.4,1.8-2.9,2.5-4.4l0.7,0.8c-0.8,2-1.8,3.7-2.8,5.2c-1,1.5-2.2,2.7-3.4,3.6
			C203.3,146.2,201.9,146.7,200.4,146.7z"/>
		<path id="XMLID_172_" class="st1" d="M217.8,111c-0.4-0.2-0.6-0.5-0.8-0.9c-0.2-0.4-0.2-0.8-0.2-1.3c0-0.8,0.2-1.8,0.5-2.8
			c0.4-1,0.8-1.9,1.4-2.6c0.6-0.7,1.1-1.1,1.7-1.1c0.4,0,0.7,0.2,1,0.5c0.3,0.3,0.4,0.7,0.4,1.2c-1.1,1.2-2,2.3-2.6,3.6
			C218.7,108.8,218.2,110,217.8,111z"/>
		<path id="XMLID_174_" class="st1" d="M220.3,148.2c-1.7,0-3-0.5-3.9-1.5c-0.9-1-1.4-2.5-1.4-4.4c0-1.8,0.3-3.9,1-6.5
			c0.7-2.6,1.5-5.2,2.5-7.9c-0.4-0.1-0.8-0.1-1.1-0.2c-0.4-0.1-0.7-0.1-1-0.3v-1.1c0.3,0,0.7,0.1,1.1,0.1c0.4,0,0.9,0.1,1.5,0.1
			c0.8-2.2,1.7-4.2,2.7-6.3c1-2,1.9-3.8,2.8-5.4c0.9-1.6,1.8-2.8,2.7-3.8c0.9-0.9,1.6-1.4,2.2-1.4c0.3,0,0.6,0.1,0.9,0.3
			c0.3,0.2,0.4,0.5,0.4,1c0,0.7-0.4,1.8-1.3,3.3c-0.8,1.5-1.9,3.4-3.1,5.5c-1.2,2.1-2.4,4.4-3.6,6.9c0.4,0,0.7,0,1.1,0
			c0.4,0,0.7,0,1.1,0c1.3,0,2.7,0,4.2-0.1c1.5,0,2.9-0.1,4.4-0.3v1.1c-2.2,0.2-4.2,0.4-5.9,0.5c-1.7,0.1-3.3,0.2-4.6,0.2
			c-0.2,0-0.3,0-0.4,0c-0.1,0-0.3,0-0.4,0c-0.9,2.1-1.7,4.3-2.3,6.5c-0.6,2.2-1,4.4-1,6.5c0,1.7,0.3,2.9,0.8,3.7
			c0.5,0.7,1.4,1.1,2.6,1.1c2.1,0,4.1-0.9,6.1-2.8c2-1.8,3.8-4.3,5.3-7.5l0.8,0.6c-1,2.2-2.2,4.2-3.6,6c-1.5,1.8-3.1,3.2-4.8,4.2
			C224,147.7,222.2,148.2,220.3,148.2z"/>
		<path id="XMLID_176_" class="st1" d="M253.4,149.9c-2.1,0-3.6-0.7-4.6-2c-1-1.4-1.5-3.2-1.5-5.5c0-2,0.3-4.3,1-7.1
			c0.7-2.7,1.6-5.6,2.7-8.5c1.1-3,2.4-5.9,3.7-8.7c1.4-2.8,2.8-5.4,4.2-7.7c1.4-2.3,2.7-4.1,3.9-5.5c1.2-1.4,2.3-2.1,3.1-2.1
			c0.7,0,1.2,0.4,1.5,1.3s0.4,1.7,0.4,2.5c0,1.1-0.2,2.5-0.7,4.1c-0.5,1.6-1.2,3.3-2,5.1c-0.9,1.8-1.9,3.6-3.1,5.4
			c-1.2,1.8-2.4,3.4-3.7,4.8c-1.3,1.5-2.7,2.6-4.1,3.4c-0.2,0.4-0.6,1.3-1,2.7c-0.5,1.4-0.9,3-1.3,4.7c-0.4,1.8-0.6,3.5-0.6,5.2
			c0,1.6,0.2,3,0.7,4c0.5,1.1,1.3,1.6,2.5,1.6c1.2,0,2.4-0.5,3.6-1.4c1.2-0.9,2.2-2.1,3-3.6c-1.5-0.8-2.6-1.9-3.3-3.3
			c-0.7-1.5-1.1-2.9-1.1-4.4c0-1.9,0.5-3.5,1.5-4.6c1-1.2,2.2-1.7,3.5-1.7c1.2,0,2.1,0.5,2.8,1.4c0.7,0.9,1,2.3,1,4.1
			c0,1.3-0.2,2.7-0.5,4.1c-0.4,1.4-0.9,2.8-1.6,4.1c0.2,0,0.5,0.1,0.7,0.1c0.3,0,0.5,0.1,0.8,0.1c1.4,0,2.6-0.3,3.6-1
			c1-0.7,1.8-1.6,2.4-2.6c0.7-1,1.2-2,1.6-2.9l0.7,0.8c-1.1,2.8-2.4,4.6-4,5.5c-1.5,0.9-3.1,1.3-4.6,1.3c-0.3,0-0.6,0-1-0.1
			c-0.3,0-0.6-0.1-1-0.1c-1.1,1.8-2.4,3.4-4,4.7C257.4,149.2,255.5,149.9,253.4,149.9z M254.8,127c1.1-0.9,2.2-2,3.3-3.4
			c1.1-1.4,2-2.8,3-4.3c0.9-1.5,1.7-3,2.5-4.5c0.7-1.5,1.3-2.8,1.7-4c0.4-1.2,0.6-2.1,0.6-2.7c0-0.2,0-0.3-0.1-0.4
			c0-0.1-0.1-0.1-0.2-0.1c-0.3,0-0.9,0.6-1.8,1.7c-0.9,1.1-1.9,2.7-3,4.5c-1.1,1.9-2.2,4-3.3,6.3C256.4,122.4,255.5,124.7,254.8,127
			z M261.7,141.4c0.4-0.9,0.8-1.9,1-2.9c0.2-1,0.4-2.1,0.4-3.1c0-1.4-0.2-2.5-0.6-3.3c-0.4-0.8-0.8-1.2-1.4-1.2
			c-0.6,0-1.1,0.4-1.6,1.2c-0.5,0.8-0.7,1.8-0.7,3.1c0,1.1,0.2,2.2,0.7,3.4C260,139.7,260.7,140.7,261.7,141.4z"/>
		<path id="XMLID_180_" class="st1" d="M275.9,147.3c-1.4,0-2.4-0.6-3.3-1.8c-0.8-1.2-1.2-2.6-1.2-4.2c0-1.2,0.2-2.5,0.6-4
			c0.4-1.5,0.8-3,1.4-4.5c0.6-1.5,1.1-2.7,1.7-3.7c0.6-1,1.1-1.4,1.6-1.4c0.2,0,0.5,0.1,1,0.3c0.5,0.2,0.9,0.5,1.2,0.9
			c-0.4,0.7-1,1.7-1.6,3.1c-0.6,1.4-1.2,2.9-1.7,4.5c-0.5,1.6-0.7,3.1-0.7,4.4c0,0.3,0,0.8,0.1,1.5c0.1,0.7,0.3,1.2,0.6,1.8
			c0.3,0.5,0.8,0.8,1.4,0.8c0.8,0,1.5-0.4,2.3-1.2c0.8-0.8,1.6-1.8,2.4-3c0.8-1.2,1.6-2.6,2.4-4c0.8-1.4,1.5-2.8,2.1-4.1
			c0.7-1.3,1.2-2.4,1.6-3.3c0.2,0,0.6,0.1,1,0.2c0.5,0.1,0.9,0.3,1.3,0.5c0.4,0.2,0.6,0.5,0.6,0.8c0,0.2-0.2,0.7-0.6,1.6
			c-0.4,0.9-0.9,2-1.4,3.3c-0.5,1.3-1,2.6-1.4,3.9c-0.4,1.3-0.6,2.5-0.6,3.5c0,0.7,0.1,1.3,0.4,1.7c0.3,0.4,0.8,0.7,1.5,0.7
			c0.8,0,1.9-0.4,3.1-1.1c1.2-0.8,2.4-1.9,3.7-3.3c1.2-1.5,2.3-3.2,3.3-5.2l0.8,0.5c-0.8,2.2-1.9,4.1-3.3,5.7
			c-1.4,1.7-2.8,2.9-4.3,3.9c-1.5,0.9-3,1.4-4.4,1.4c-1,0-1.9-0.2-2.5-0.6c-0.6-0.4-1.1-0.9-1.3-1.6c-0.3-0.7-0.4-1.4-0.4-2.2
			c0-0.5,0-1,0.1-1.5c0.1-0.5,0.2-1,0.3-1.5c-0.7,1.3-1.5,2.5-2.3,3.7c-0.8,1.1-1.7,2-2.6,2.7C277.9,146.9,276.9,147.3,275.9,147.3z
			"/>
		<path id="XMLID_182_" class="st1" d="M300.2,162.2c-1,0-1.9-0.3-2.6-0.8c-0.8-0.5-1.1-1.3-1.1-2.4c0-1.3,0.3-2.4,1-3.4
			c0.6-1,1.5-1.9,2.6-2.8s2.3-1.6,3.7-2.4c1.4-0.8,2.9-1.5,4.4-2.3c0.6-1.5,1.1-3.1,1.7-4.9c0.6-1.8,1.1-3.8,1.6-6
			c-1.3,2.1-2.6,3.9-4.1,5.4s-3,2.2-4.6,2.2c-0.8,0-1.5-0.2-2.2-0.5c-0.7-0.3-1.3-0.9-1.8-1.6c-0.5-0.7-0.7-1.6-0.7-2.8
			c0-1.1,0.2-2.4,0.6-3.9c0.4-1.5,0.8-2.9,1.4-4.3c0.6-1.4,1.1-2.6,1.7-3.5c0.6-0.9,1.1-1.4,1.6-1.4c0.2,0,0.4,0.1,0.9,0.2
			s0.8,0.3,1.2,0.5c0.4,0.2,0.6,0.4,0.6,0.7c-0.4,0.5-0.8,1.3-1.2,2.2c-0.4,1-0.9,2-1.3,3.2c-0.4,1.2-0.8,2.3-1,3.4
			c-0.3,1.1-0.4,2.1-0.4,2.9c0,0.7,0.2,1.3,0.5,1.7c0.3,0.4,0.9,0.7,1.7,0.7c0.8,0,1.6-0.4,2.5-1.1c0.9-0.7,1.9-1.7,2.8-2.8
			c0.9-1.2,1.8-2.4,2.6-3.7c0.1-0.4,0.2-0.9,0.3-1.3c0.1-0.5,0.2-0.9,0.3-1.4c0.1-0.6,0.4-1.2,0.9-1.9c0.5-0.7,1.2-1.1,2.2-1.1
			c0.2,0,0.4,0,0.6,0c0.2,0,0.4,0.1,0.7,0.1c0,0.6-0.2,1.8-0.6,3.6c-0.4,1.7-0.9,3.8-1.6,6.1c-0.7,2.3-1.5,4.7-2.5,7.1
			c1.9-0.7,3.7-1.9,5.5-3.6c1.8-1.7,3.3-3.9,4.4-6.6l0.8,0.6c-0.6,1.9-1.5,3.6-2.7,5c-1.2,1.4-2.6,2.6-4.1,3.7c-1.5,1-3,1.9-4.5,2.5
			c-1,2.6-2.2,4.9-3.4,7.2c-1.2,2.2-2.5,4-3.8,5.4S301.6,162.2,300.2,162.2z M299.9,160.3c0.6,0,1.6-0.8,3-2.4
			c1.4-1.6,2.9-4.3,4.5-8.3c-1.6,0.9-3.2,1.7-4.5,2.6c-1.4,0.9-2.5,1.8-3.4,2.8c-0.8,1-1.3,2.2-1.3,3.5c0,0.3,0.1,0.7,0.4,1.1
			C298.9,160.1,299.3,160.3,299.9,160.3z"/>
		<path id="XMLID_185_" class="st1" d="M339.3,147.8c-0.8,0-1.4-0.6-1.8-1.9c-0.4-1.3-0.7-2.7-0.7-4.3c0-1.9,0.3-4.2,1-6.8
			c0.6-2.6,1.5-5.4,2.5-8.3c1-2.9,2.2-5.8,3.5-8.6c1.3-2.8,2.6-5.3,4-7.6c1.4-2.3,2.6-4.1,3.8-5.4c1.2-1.4,2.2-2,3.1-2
			c0.7,0,1.2,0.4,1.5,1.3c0.3,0.9,0.4,1.7,0.4,2.5c0,1.1-0.2,2.5-0.7,4.1c-0.5,1.6-1.2,3.3-2.1,5.1c-0.9,1.8-1.9,3.6-3.1,5.4
			c-1.2,1.8-2.4,3.4-3.8,4.8c-1.4,1.5-2.7,2.6-4.1,3.4c-0.5,1.2-0.9,2.5-1.2,3.9c-0.3,1.4-0.6,2.8-0.7,4.2c-0.2,1.4-0.2,2.6-0.2,3.7
			c0,0.4,0,0.8,0,1.1c0,0.3,0,0.6,0.1,0.9c0.6-1.6,1.2-3.2,1.8-4.8c0.7-1.5,1.4-3,2.1-4.2c0.8-1.3,1.6-2.4,2.4-3.4
			c0.9-1,1.8-1.7,2.7-2.3c1-0.5,2-0.8,3.1-0.8c1.1,0,2,0.3,2.7,0.8c0.7,0.5,1.1,1.2,1.4,2c0.3,0.8,0.4,1.7,0.4,2.5
			c0,1.2-0.2,2.4-0.6,3.6c-0.4,1.2-0.8,2.3-1.3,3.4c-0.4,1.1-0.7,2.1-0.7,3.1c0,0.8,0.2,1.4,0.5,1.7c0.3,0.4,0.8,0.5,1.3,0.5
			c0.9,0,1.9-0.4,3.1-1.3c1.1-0.9,2.3-2,3.4-3.5c1.1-1.5,2.1-3,2.9-4.8l0.8,0.7c-0.8,2-1.9,3.7-3.1,5.3c-1.2,1.6-2.5,2.8-4,3.7
			c-1.4,0.9-2.9,1.4-4.5,1.4c-1.4,0-2.4-0.4-3.1-1.1c-0.7-0.7-1-1.6-1-2.7c0-0.8,0.2-1.8,0.5-2.8c0.3-1,0.6-2.1,0.9-3.2
			c0.3-1.1,0.4-2.1,0.4-3.1c0-1-0.2-1.8-0.7-2.2c-0.4-0.4-1-0.7-1.6-0.7c-1,0-1.9,0.4-2.7,1.2c-0.8,0.8-1.5,1.8-2.2,3.1
			c-0.7,1.3-1.3,2.6-1.9,4c-0.6,1.4-1.1,2.7-1.6,4s-1,2.3-1.6,3.1C340.4,147.4,339.9,147.8,339.3,147.8z M343.7,127
			c1.1-0.9,2.2-2,3.3-3.4c1.1-1.4,2-2.8,3-4.3c0.9-1.5,1.7-3,2.5-4.5c0.7-1.5,1.3-2.8,1.7-4c0.4-1.2,0.6-2.1,0.6-2.7
			c0-0.2,0-0.3-0.1-0.4c0-0.1-0.1-0.1-0.2-0.1c-0.3,0-0.8,0.5-1.7,1.6c-0.9,1.1-1.8,2.6-3,4.4c-1.1,1.8-2.2,3.9-3.3,6.2
			C345.4,122.2,344.5,124.6,343.7,127z"/>
		<path id="XMLID_188_" class="st1" d="M367.9,148.3c-1.2,0-2.3-0.4-3.1-1.2c-0.9-0.8-1.3-2.1-1.3-3.7c0-1.4,0.3-3,1-4.6
			c0.6-1.7,1.5-3.3,2.6-4.9c1.1-1.6,2.4-3.1,3.8-4.4c1.4-1.3,2.9-2.4,4.5-3.2c1.6-0.8,3.1-1.2,4.7-1.2c1.6,0,2.9,0.4,3.9,1.2
			c1,0.8,1.6,1.9,1.6,3.3c0,1-0.3,1.7-0.8,2c-0.5,0.4-1.2,0.5-2.1,0.5c0.1-0.3,0.2-0.7,0.2-1c0.1-0.4,0.1-0.7,0.1-1
			c0-0.9-0.2-1.7-0.7-2.4c-0.4-0.7-1.2-1-2.3-1c-1.1,0-2.3,0.4-3.4,1.2c-1.2,0.8-2.3,1.8-3.4,3.1c-1.1,1.3-2,2.7-2.9,4.2
			c-0.8,1.5-1.5,3-2,4.5c-0.5,1.5-0.7,2.8-0.7,3.9c0,1.6,0.5,2.3,1.6,2.3c0.9,0,1.9-0.4,3-1.3c1.1-0.9,2.2-2,3.3-3.3
			c1.1-1.3,2.2-2.7,3.3-4.2c1-1.4,2-2.8,2.8-3.9c0.2-0.2,0.3-0.4,0.3-0.4c0.2,0,0.5,0.1,0.9,0.2c0.4,0.1,0.7,0.3,1,0.5
			c0.3,0.2,0.4,0.5,0.4,0.8c0,0.4-0.2,0.8-0.5,1.5c-0.4,0.6-0.8,1.3-1.2,2.1c-0.4,0.8-0.8,1.6-1.2,2.4c-0.4,0.8-0.5,1.6-0.5,2.3
			c0,0.6,0.2,1.2,0.5,1.8c0.3,0.6,0.8,0.9,1.6,0.9c1.1,0,2.5-0.8,4.2-2.4c1.8-1.6,3.5-3.9,5.3-7.1l0.6,0.6c-0.8,2.2-1.9,4.1-3.2,5.7
			c-1.3,1.6-2.7,2.9-4.2,3.8s-3,1.4-4.4,1.4c-1.5,0-2.6-0.4-3.3-1.3c-0.7-0.9-1-1.8-1-2.9c0-0.2,0-0.5,0.1-0.8
			c0-0.3,0.1-0.6,0.1-0.9c-1.7,2.3-3.3,4-4.7,5.2C370.8,147.7,369.3,148.3,367.9,148.3z"/>
		<path id="XMLID_190_" class="st1" d="M387.3,162.2c-0.3,0-0.6-0.2-0.9-0.5c-0.3-0.3-0.5-0.7-0.7-1.1c-0.2-0.4-0.2-0.6-0.2-0.7
			c0.6-2,1.1-3.7,1.6-5.2c0.5-1.5,1.1-3.1,1.6-4.7c0.5-1.6,1.1-3.5,1.6-5.7c0.5-2.2,1.1-4.9,1.6-8.1c0.6-3.2,1.1-7.2,1.7-12
			c0-0.4,0.1-0.6,0.2-0.8c0.1-0.2,0.4-0.2,0.9-0.2c1,0,1.8,0.3,2.2,0.9c0.4,0.6,0.7,1.2,0.7,1.9c0,0.6-0.1,1.6-0.4,3
			c-0.2,1.4-0.6,3.1-1,5.1c0.7-1.3,1.5-2.7,2.5-4c1-1.4,2.2-2.5,3.5-3.4c1.3-0.9,2.8-1.4,4.3-1.4c1.8,0,3.2,0.6,4.3,1.9
			c1.1,1.3,1.7,2.9,1.7,4.9c0,1.6-0.3,3.2-1,4.9c-0.7,1.7-1.7,3.4-2.9,4.9c-1.3,1.5-2.7,2.8-4.5,3.7s-3.6,1.4-5.7,1.4
			c-1,0-1.9-0.1-2.5-0.4c-0.6-0.2-1-0.5-1-0.7c0-0.2,0.1-0.2,0.4-0.3c0.3,0,0.6,0,1,0c1.6,0,3.1-0.4,4.6-1.2
			c1.5-0.8,2.8-1.8,3.9-3.1c1.2-1.3,2.1-2.7,2.7-4.2s1-3.1,1-4.6c0-1.3-0.3-2.4-0.8-3.3c-0.5-0.9-1.4-1.3-2.6-1.3
			c-1,0-2.1,0.3-3.1,1c-1,0.7-2,1.5-2.9,2.5c-0.9,1-1.7,2.1-2.4,3.2c-0.7,1.1-1.2,2.1-1.6,3c-0.7,3-1.4,5.9-2.2,8.6
			c-0.7,2.8-1.4,5.3-2.1,7.5c-0.7,2.3-1.3,4.1-1.8,5.5c-0.5,1.4-1,2.3-1.3,2.6C387.8,162.1,387.6,162.2,387.3,162.2z"/>
		<path id="XMLID_192_" class="st1" d="M410.7,162.2c-0.3,0-0.6-0.2-0.9-0.5c-0.3-0.3-0.5-0.7-0.7-1.1c-0.2-0.4-0.2-0.6-0.2-0.7
			c0.6-2,1.1-3.7,1.6-5.2c0.5-1.5,1.1-3.1,1.6-4.7c0.5-1.6,1.1-3.5,1.6-5.7c0.5-2.2,1.1-4.9,1.6-8.1c0.6-3.2,1.1-7.2,1.7-12
			c0-0.4,0.1-0.6,0.2-0.8c0.1-0.2,0.4-0.2,0.9-0.2c1,0,1.8,0.3,2.2,0.9c0.4,0.6,0.7,1.2,0.7,1.9c0,0.6-0.1,1.6-0.4,3
			c-0.2,1.4-0.6,3.1-1,5.1c0.7-1.3,1.5-2.7,2.5-4c1-1.4,2.2-2.5,3.5-3.4c1.3-0.9,2.8-1.4,4.3-1.4c1.8,0,3.2,0.6,4.3,1.9
			c1.1,1.3,1.7,2.9,1.7,4.9c0,1.6-0.3,3.2-1,4.9c-0.7,1.7-1.7,3.4-2.9,4.9c-1.3,1.5-2.7,2.8-4.5,3.7s-3.6,1.4-5.7,1.4
			c-1,0-1.9-0.1-2.5-0.4c-0.6-0.2-1-0.5-1-0.7c0-0.2,0.1-0.2,0.4-0.3c0.3,0,0.6,0,1,0c1.6,0,3.1-0.4,4.6-1.2
			c1.5-0.8,2.8-1.8,3.9-3.1c1.2-1.3,2.1-2.7,2.7-4.2s1-3.1,1-4.6c0-1.3-0.3-2.4-0.8-3.3c-0.5-0.9-1.4-1.3-2.6-1.3
			c-1,0-2.1,0.3-3.1,1c-1,0.7-2,1.5-2.9,2.5c-0.9,1-1.7,2.1-2.4,3.2c-0.7,1.1-1.2,2.1-1.6,3c-0.7,3-1.4,5.9-2.2,8.6
			c-0.7,2.8-1.4,5.3-2.1,7.5c-0.7,2.3-1.3,4.1-1.8,5.5c-0.5,1.4-1,2.3-1.3,2.6C411.2,162.1,411,162.2,410.7,162.2z"/>
		<path id="XMLID_194_" class="st1" d="M442.2,147c-1.6,0-2.7-0.5-3.5-1.5c-0.8-1-1.1-2.2-1.1-3.6c0-0.9,0.2-2.1,0.5-3.5
			c0.3-1.4,0.8-2.9,1.3-4.4c0.6-1.5,1.2-3,1.9-4.3c0.7-1.4,1.5-2.5,2.4-3.3c0.8-0.9,1.7-1.3,2.5-1.3c0.4,0,0.7,0.1,0.9,0.3
			c0.3,0.2,0.4,0.5,0.4,1c0,0.5-0.3,1.3-0.9,2.3c-0.6,1.1-1.3,2.3-2.2,3.7c-0.8,1.4-1.6,2.9-2.2,4.4c-0.6,1.5-0.9,3-0.9,4.4
			c0,1.4,0.2,2.4,0.7,2.9c0.5,0.5,1.2,0.7,2.2,0.7c1.4,0,2.8-0.7,4.3-2c1.5-1.4,3.2-3.7,4.9-7.1l0.5,0.6c-1.2,3.4-2.8,6.1-5,7.9
			C446.8,146.1,444.5,147,442.2,147z M449.4,119.6c-0.6,0-1.2-0.2-1.7-0.5c-0.5-0.3-0.7-0.8-0.7-1.5c0-0.8,0.5-1.6,1.5-2.2
			c1-0.6,1.9-0.9,2.9-0.9c0.6,0,1.1,0.1,1.4,0.4c0.4,0.3,0.5,0.8,0.5,1.4c0,0.8-0.4,1.5-1.2,2.2
			C451.2,119.3,450.3,119.6,449.4,119.6z"/>
		<path id="XMLID_249_" class="st1" d="M471.6,146.7c-1.4,0-2.4-0.4-3.1-1.1s-1-1.6-1-2.8c0-0.8,0.1-1.7,0.4-2.6
			c0.3-0.9,0.6-1.9,0.9-2.8c0.3-1,0.4-1.9,0.4-2.8c0-1.1-0.2-1.9-0.7-2.3s-1-0.6-1.7-0.6c-1.2,0-2.5,0.5-3.8,1.5
			c-1.3,1-2.5,2.3-3.7,3.9c-1.2,1.6-2.3,3.2-3.4,4.9c-1,1.7-2,3.2-2.8,4.5c-0.6,0-1.2-0.1-1.8-0.3c-0.6-0.2-1-0.5-1.3-1
			c0-0.2,0.2-0.8,0.6-1.9c0.4-1,0.9-2.3,1.5-3.8c0.6-1.5,1.1-3.1,1.5-4.7c0.4-1.6,0.7-3.1,0.7-4.4c0.2-0.3,0.6-0.6,1.1-0.8
			c0.5-0.3,1.1-0.4,1.6-0.4c1.1,0,1.6,0.5,1.6,1.6c0,0.6-0.2,1.7-0.5,3.2c-0.4,1.5-0.8,3.1-1.4,4.7c1.1-1.6,2.3-3.3,3.6-4.9
			c1.3-1.6,2.8-3,4.3-4c1.5-1.1,3-1.6,4.5-1.6c1.6,0,2.7,0.6,3.4,1.7c0.7,1.1,1,2.4,1,3.7c0,1.2-0.2,2.4-0.6,3.4
			c-0.4,1.1-0.8,2.1-1.2,3.1c-0.4,1-0.6,2-0.6,3c0,0.8,0.2,1.4,0.5,1.8c0.3,0.3,0.8,0.5,1.3,0.5c1,0,2-0.5,3-1.4
			c1-0.9,2-2.1,2.9-3.6c0.9-1.4,1.8-2.9,2.5-4.4l0.7,0.8c-0.8,2-1.8,3.7-2.8,5.2c-1,1.5-2.2,2.7-3.4,3.6
			C474.5,146.2,473.1,146.7,471.6,146.7z"/>
		<path id="XMLID_251_" class="st1" d="M486.7,148.1c-2.4,0-4.3-0.7-5.5-2s-1.8-3-1.8-4.9c0-1.8,0.4-3.7,1.3-5.7
			c0.9-2,2.1-3.9,3.6-5.6c1.5-1.8,3.1-3.2,4.9-4.3c1.8-1.1,3.6-1.6,5.3-1.6c0.9,0,1.8,0.2,2.5,0.7c0.8,0.5,1.2,1.5,1.2,2.9
			c0,1.5-0.4,2.9-1.3,4.3c-0.9,1.3-2.1,2.5-3.5,3.6c-1.5,1-3.1,1.9-4.8,2.5c-1.7,0.7-3.5,1.1-5.2,1.2c-0.1,0.4-0.1,0.8-0.2,1.1
			c0,0.4-0.1,0.7-0.1,1c0,0.6,0.1,1.2,0.2,1.8c0.1,0.6,0.4,1.1,0.7,1.6c0.4,0.5,0.8,0.9,1.5,1.2c0.6,0.3,1.4,0.4,2.3,0.4
			c1.7,0,3.4-0.5,5.1-1.5c1.7-1,3.2-2.3,4.7-3.9c1.4-1.6,2.7-3.4,3.7-5.3l0.7,0.5c-1.1,2.4-2.4,4.5-4.1,6.2
			c-1.7,1.8-3.5,3.1-5.4,4.1C490.6,147.6,488.6,148.1,486.7,148.1z M483.7,138.1c1.1-0.4,2.3-0.9,3.7-1.6c1.4-0.7,2.7-1.5,3.9-2.5
			s2.3-2,3.1-3.2c0.8-1.2,1.2-2.4,1.2-3.7c0-0.4-0.1-0.8-0.2-1s-0.5-0.4-1-0.4c-1,0-2,0.4-3.1,1.1c-1.1,0.7-2.1,1.7-3.1,2.9
			c-1,1.2-1.9,2.5-2.7,3.9C484.7,135.2,484.1,136.6,483.7,138.1z"/>
		<path id="XMLID_254_" class="st1" d="M506.4,148.5c-1.9,0-3.4-0.4-4.5-1.2c-1.1-0.8-1.9-1.8-2.3-3c-0.5-1.2-0.7-2.4-0.7-3.6
			c0-1.2,0.2-2.1,0.5-2.8c0.3-0.6,0.7-1.1,1.2-1.4c0.5-0.3,0.9-0.6,1.3-0.7c0.4-0.2,0.7-0.3,0.9-0.5c1.2-1.3,2.3-2.7,3.3-4.1
			c1-1.4,1.9-3,2.6-4.5v-0.7c0-1.5,0.2-2.5,0.7-3.1c0.5-0.6,1-0.9,1.6-0.9c0.3,0,0.6,0.1,0.7,0.2c0.2,0.2,0.2,0.3,0.2,0.5
			c0,0.2-0.1,0.5-0.2,1c-0.1,0.4-0.2,1-0.2,1.7c0,1.3,0.3,2.7,0.8,4.3c0.5,1.5,1,3.2,1.6,4.8c0.5,1.7,0.8,3.5,0.8,5.3
			c0,0.5,0,1-0.1,1.5c-0.1,0.5-0.2,1-0.3,1.4c1.4-0.2,2.7-0.9,4-1.9c1.2-1,2.4-2.6,3.6-4.9l0.5,0.6c-0.8,2.2-1.9,3.9-3.4,5
			c-1.5,1.1-3.2,1.8-5,2.1c-0.6,1.7-1.6,3-3,3.8C509.7,148.1,508.1,148.5,506.4,148.5z M506.5,146.4c0.5,0,1.1-0.2,1.9-0.5
			c0.8-0.3,1.4-1.1,1.9-2.5c-1.7-0.3-3.2-1-4.5-2c-1.3-1-2.3-2-2.9-3c-0.9,0-1.3,0.7-1.3,2.1c0,1.4,0.4,2.8,1.3,4
			C503.8,145.8,505,146.4,506.5,146.4z M510.6,142.5c0.1-0.4,0.1-0.8,0.2-1.3c0-0.4,0.1-1,0.1-1.6c0-1.9-0.2-3.7-0.7-5.6
			c-0.5-1.9-0.8-3.6-1.2-5.2c-0.9,1.5-1.9,3-2.9,4.3s-2,2.5-2.9,3.4c0.6,1.3,1.5,2.5,2.8,3.6C507.2,141.4,508.8,142.2,510.6,142.5z"
			/>
		<path id="XMLID_258_" class="st1" d="M527,148.5c-1.9,0-3.4-0.4-4.5-1.2c-1.1-0.8-1.9-1.8-2.3-3c-0.5-1.2-0.7-2.4-0.7-3.6
			c0-1.2,0.2-2.1,0.5-2.8c0.3-0.6,0.7-1.1,1.2-1.4c0.5-0.3,0.9-0.6,1.3-0.7c0.4-0.2,0.7-0.3,0.9-0.5c1.2-1.3,2.3-2.7,3.3-4.1
			c1-1.4,1.9-3,2.6-4.5v-0.7c0-1.5,0.2-2.5,0.7-3.1c0.5-0.6,1-0.9,1.6-0.9c0.3,0,0.6,0.1,0.7,0.2c0.2,0.2,0.2,0.3,0.2,0.5
			c0,0.2-0.1,0.5-0.2,1c-0.1,0.4-0.2,1-0.2,1.7c0,1.3,0.3,2.7,0.8,4.3c0.5,1.5,1,3.2,1.6,4.8c0.5,1.7,0.8,3.5,0.8,5.3
			c0,0.5,0,1-0.1,1.5c-0.1,0.5-0.2,1-0.3,1.4c1.4-0.2,2.7-0.9,4-1.9c1.2-1,2.4-2.6,3.6-4.9l0.5,0.6c-0.8,2.2-1.9,3.9-3.4,5
			c-1.5,1.1-3.2,1.8-5,2.1c-0.6,1.7-1.6,3-3,3.8C530.3,148.1,528.8,148.5,527,148.5z M527.2,146.4c0.5,0,1.1-0.2,1.9-0.5
			c0.8-0.3,1.4-1.1,1.9-2.5c-1.7-0.3-3.2-1-4.5-2c-1.3-1-2.3-2-2.9-3c-0.9,0-1.3,0.7-1.3,2.1c0,1.4,0.4,2.8,1.3,4
			C524.4,145.8,525.6,146.4,527.2,146.4z M531.2,142.5c0.1-0.4,0.1-0.8,0.2-1.3c0-0.4,0.1-1,0.1-1.6c0-1.9-0.2-3.7-0.7-5.6
			c-0.5-1.9-0.8-3.6-1.2-5.2c-0.9,1.5-1.9,3-2.9,4.3s-2,2.5-2.9,3.4c0.6,1.3,1.5,2.5,2.8,3.6C527.9,141.4,529.4,142.2,531.2,142.5z"
			/>
		<path id="XMLID_262_" class="st1" d="M39.3,221.7c-2.1,0-3.6-0.7-4.6-2c-1-1.4-1.5-3.2-1.5-5.5c0-2,0.3-4.3,1-7.1
			c0.7-2.7,1.6-5.6,2.7-8.5c1.1-3,2.4-5.9,3.7-8.7c1.4-2.8,2.8-5.4,4.2-7.7c1.4-2.3,2.7-4.1,3.9-5.5c1.2-1.4,2.3-2.1,3.1-2.1
			c0.7,0,1.2,0.4,1.5,1.3s0.4,1.7,0.4,2.5c0,1.1-0.2,2.5-0.7,4.1c-0.5,1.6-1.2,3.3-2,5.1c-0.9,1.8-1.9,3.6-3.1,5.4
			c-1.2,1.8-2.4,3.4-3.7,4.8c-1.3,1.5-2.7,2.6-4.1,3.4c-0.2,0.4-0.6,1.3-1,2.7c-0.5,1.4-0.9,3-1.3,4.7c-0.4,1.8-0.6,3.5-0.6,5.2
			c0,1.6,0.2,3,0.7,4c0.5,1.1,1.3,1.6,2.5,1.6c1.2,0,2.4-0.5,3.6-1.4c1.2-0.9,2.2-2.1,3-3.6c-1.5-0.8-2.6-1.9-3.3-3.3
			c-0.7-1.5-1.1-2.9-1.1-4.4c0-1.9,0.5-3.5,1.5-4.6c1-1.2,2.2-1.7,3.5-1.7c1.2,0,2.1,0.5,2.8,1.4c0.7,0.9,1,2.3,1,4.1
			c0,1.3-0.2,2.7-0.5,4.1c-0.4,1.4-0.9,2.8-1.6,4.1c0.2,0,0.5,0.1,0.7,0.1c0.3,0,0.5,0.1,0.8,0.1c1.4,0,2.6-0.3,3.6-1
			c1-0.7,1.8-1.6,2.4-2.6c0.7-1,1.2-2,1.6-2.9l0.7,0.8c-1.1,2.8-2.4,4.6-4,5.5c-1.5,0.9-3.1,1.3-4.6,1.3c-0.3,0-0.6,0-1-0.1
			c-0.3,0-0.6-0.1-1-0.1c-1.1,1.8-2.4,3.4-4,4.7C43.3,221,41.4,221.7,39.3,221.7z M40.7,198.8c1.1-0.9,2.2-2,3.3-3.4
			c1.1-1.4,2-2.8,3-4.3c0.9-1.5,1.7-3,2.5-4.5c0.7-1.5,1.3-2.8,1.7-4c0.4-1.2,0.6-2.1,0.6-2.7c0-0.2,0-0.3-0.1-0.4
			c0-0.1-0.1-0.1-0.2-0.1c-0.3,0-0.9,0.6-1.8,1.7c-0.9,1.1-1.9,2.7-3,4.5c-1.1,1.9-2.2,4-3.3,6.3C42.2,194.2,41.3,196.5,40.7,198.8z
			 M47.6,213.2c0.4-0.9,0.8-1.9,1-2.9c0.2-1,0.4-2.1,0.4-3.1c0-1.4-0.2-2.5-0.6-3.3c-0.4-0.8-0.8-1.2-1.4-1.2
			c-0.6,0-1.1,0.4-1.6,1.2c-0.5,0.8-0.7,1.8-0.7,3.1c0,1.1,0.2,2.2,0.7,3.4C45.8,211.6,46.6,212.5,47.6,213.2z"/>
		<path id="XMLID_266_" class="st1" d="M61.8,219.1c-1.4,0-2.4-0.6-3.3-1.8c-0.8-1.2-1.2-2.6-1.2-4.2c0-1.2,0.2-2.5,0.6-4
			c0.4-1.5,0.8-3,1.4-4.5c0.6-1.5,1.1-2.7,1.7-3.7c0.6-1,1.1-1.4,1.6-1.4c0.2,0,0.5,0.1,1,0.3c0.5,0.2,0.9,0.5,1.2,0.9
			c-0.4,0.7-1,1.7-1.6,3.1c-0.6,1.4-1.2,2.9-1.7,4.5c-0.5,1.6-0.7,3.1-0.7,4.4c0,0.3,0,0.8,0.1,1.5c0.1,0.7,0.3,1.2,0.6,1.8
			c0.3,0.5,0.8,0.8,1.4,0.8c0.8,0,1.5-0.4,2.3-1.2c0.8-0.8,1.6-1.8,2.4-3c0.8-1.2,1.6-2.6,2.4-4c0.8-1.4,1.5-2.8,2.1-4.1
			c0.7-1.3,1.2-2.4,1.6-3.3c0.2,0,0.6,0.1,1,0.2c0.5,0.1,0.9,0.3,1.3,0.5c0.4,0.2,0.6,0.5,0.6,0.8c0,0.2-0.2,0.7-0.6,1.6
			c-0.4,0.9-0.9,2-1.4,3.3c-0.5,1.3-1,2.6-1.4,3.9c-0.4,1.3-0.6,2.5-0.6,3.5c0,0.7,0.1,1.3,0.4,1.7c0.3,0.4,0.8,0.7,1.5,0.7
			c0.8,0,1.9-0.4,3.1-1.1s2.4-1.9,3.7-3.3c1.2-1.5,2.3-3.2,3.3-5.2l0.8,0.5c-0.8,2.2-1.9,4.1-3.3,5.7c-1.4,1.7-2.8,2.9-4.3,3.9
			c-1.5,0.9-3,1.4-4.4,1.4c-1,0-1.9-0.2-2.5-0.6c-0.6-0.4-1.1-0.9-1.3-1.6c-0.3-0.7-0.4-1.4-0.4-2.2c0-0.5,0-1,0.1-1.5
			c0.1-0.5,0.2-1,0.3-1.5c-0.7,1.3-1.5,2.5-2.3,3.7c-0.8,1.1-1.7,2-2.6,2.7C63.7,218.8,62.8,219.1,61.8,219.1z"/>
		<path id="XMLID_268_" class="st1" d="M88.6,220.1c-1.7,0-3-0.5-3.9-1.5c-0.9-1-1.4-2.5-1.4-4.4c0-1.8,0.3-3.9,1-6.5
			c0.7-2.6,1.5-5.2,2.5-7.9c-0.4-0.1-0.8-0.1-1.1-0.2s-0.7-0.1-1-0.3v-1.1c0.3,0,0.7,0.1,1.1,0.1c0.4,0,0.9,0.1,1.5,0.1
			c0.8-2.2,1.7-4.2,2.7-6.3s1.9-3.8,2.8-5.4c0.9-1.6,1.8-2.8,2.7-3.8c0.9-0.9,1.6-1.4,2.2-1.4c0.3,0,0.6,0.1,0.9,0.3
			c0.3,0.2,0.4,0.5,0.4,1c0,0.7-0.4,1.8-1.3,3.3s-1.9,3.4-3.1,5.5c-1.2,2.1-2.4,4.4-3.6,6.9c0.4,0,0.7,0,1.1,0c0.4,0,0.7,0,1.1,0
			c1.3,0,2.7,0,4.2-0.1c1.5,0,2.9-0.1,4.4-0.3v1.1c-2.2,0.2-4.2,0.4-5.9,0.5c-1.7,0.1-3.3,0.2-4.6,0.2c-0.2,0-0.3,0-0.4,0
			c-0.1,0-0.3,0-0.4,0c-0.9,2.1-1.7,4.3-2.3,6.5c-0.6,2.2-1,4.4-1,6.5c0,1.7,0.3,2.9,0.8,3.7c0.5,0.7,1.4,1.1,2.6,1.1
			c2.1,0,4.1-0.9,6.1-2.8c2-1.8,3.8-4.3,5.3-7.5l0.8,0.6c-1,2.2-2.2,4.2-3.6,6c-1.5,1.8-3.1,3.2-4.8,4.2
			C92.3,219.5,90.5,220.1,88.6,220.1z"/>
		<path id="XMLID_270_" class="st1" d="M118.7,234.1c-1,0-1.9-0.3-2.6-0.8c-0.8-0.5-1.1-1.3-1.1-2.4c0-1.3,0.3-2.4,1-3.4
			s1.5-1.9,2.6-2.8s2.3-1.6,3.7-2.4c1.4-0.8,2.9-1.5,4.4-2.3c0.6-1.5,1.1-3.1,1.7-4.9c0.6-1.8,1.1-3.8,1.6-6
			c-1.3,2.1-2.6,3.9-4.1,5.4c-1.5,1.5-3,2.2-4.6,2.2c-0.8,0-1.5-0.2-2.2-0.5c-0.7-0.3-1.3-0.9-1.8-1.6c-0.5-0.7-0.7-1.6-0.7-2.8
			c0-1.1,0.2-2.4,0.6-3.9c0.4-1.5,0.8-2.9,1.4-4.3c0.6-1.4,1.1-2.6,1.7-3.5c0.6-0.9,1.1-1.4,1.6-1.4c0.2,0,0.4,0.1,0.9,0.2
			c0.4,0.1,0.8,0.3,1.2,0.5c0.4,0.2,0.6,0.4,0.6,0.7c-0.4,0.5-0.8,1.3-1.2,2.2c-0.4,1-0.9,2-1.3,3.2s-0.8,2.3-1,3.4
			c-0.3,1.1-0.4,2.1-0.4,2.9c0,0.7,0.2,1.3,0.5,1.7c0.3,0.4,0.9,0.7,1.7,0.7c0.8,0,1.6-0.4,2.5-1.1c0.9-0.7,1.9-1.7,2.8-2.8
			c0.9-1.2,1.8-2.4,2.6-3.7c0.1-0.4,0.2-0.9,0.3-1.3c0.1-0.5,0.2-0.9,0.3-1.4c0.1-0.6,0.4-1.2,0.9-1.9c0.5-0.7,1.2-1.1,2.2-1.1
			c0.2,0,0.4,0,0.6,0c0.2,0,0.4,0.1,0.7,0.2c0,0.6-0.2,1.8-0.6,3.6c-0.4,1.7-0.9,3.8-1.6,6.1c-0.7,2.3-1.5,4.7-2.5,7.1
			c1.9-0.7,3.7-1.9,5.5-3.6c1.8-1.7,3.3-3.9,4.4-6.6l0.8,0.6c-0.6,1.9-1.5,3.6-2.7,5c-1.2,1.4-2.6,2.6-4.1,3.7c-1.5,1-3,1.9-4.5,2.5
			c-1,2.6-2.2,4.9-3.4,7.2c-1.2,2.2-2.5,4-3.8,5.4C121.5,233.4,120.1,234.1,118.7,234.1z M118.4,232.1c0.6,0,1.6-0.8,3-2.4
			c1.4-1.6,2.9-4.3,4.5-8.3c-1.6,0.9-3.2,1.7-4.5,2.6c-1.4,0.9-2.5,1.8-3.4,2.8c-0.8,1-1.3,2.2-1.3,3.5c0,0.3,0.1,0.7,0.4,1.1
			C117.4,231.9,117.8,232.1,118.4,232.1z"/>
		<path id="XMLID_273_" class="st1" d="M143.5,219.2c-1.7,0-2.9-0.5-3.7-1.6c-0.7-1.1-1.1-2.3-1.1-3.9c0-1.2,0.2-2.5,0.6-3.8
			s0.9-2.6,1.6-3.7c0.7-1.2,1.4-2.1,2.2-2.8c0.8-0.7,1.6-1.1,2.5-1.1c0.2,0,0.4,0,0.6,0.1c0.2,0.1,0.4,0.1,0.6,0.2
			c-0.4,0.3-0.8,0.9-1.3,1.8c-0.5,0.9-1,1.8-1.4,2.9c-0.4,1.1-0.8,2.2-1.1,3.3c-0.3,1.1-0.4,2-0.4,2.8c0,1.2,0.2,2.1,0.6,2.6
			c0.4,0.5,0.9,0.8,1.6,0.8c0.8,0,1.8-0.4,3-1.3c1.2-0.9,2.3-2,3.4-3.4c-1.1-0.9-2-2.1-2.6-3.6c-0.6-1.5-0.9-3-0.9-4.6
			c0-1.3,0.2-2.6,0.7-3.7c0.5-1.2,1.1-2.1,2-2.8c0.9-0.7,1.9-1,3.2-1c1.6,0,2.7,0.4,3.3,1.3c0.6,0.9,0.8,2,0.8,3.3
			c0,1.6-0.4,3.3-1.1,5.2c-0.8,1.9-1.7,3.7-2.9,5.5c0.7,0.4,1.5,0.6,2.3,0.6c0.6,0,1.4-0.1,2.2-0.4c0.8-0.3,1.6-0.7,2.4-1.3
			c0.8-0.6,1.4-1.5,1.9-2.6l0.7,0.6c-0.8,1.9-1.9,3.2-3.4,4c-1.5,0.8-2.8,1.2-4.2,1.2c-0.5,0-1,0-1.5-0.1c-0.5-0.1-0.9-0.2-1.4-0.4
			c-1.4,1.8-2.8,3.3-4.5,4.5C146.6,218.6,145.1,219.2,143.5,219.2z M152.3,210.4c1-1.5,1.8-3,2.5-4.6c0.7-1.6,1-3.1,1-4.6
			c0-1.2-0.2-2-0.5-2.5c-0.3-0.5-0.8-0.8-1.3-0.8c-0.8,0-1.6,0.6-2.5,1.7s-1.3,2.6-1.3,4.4c0,1.2,0.2,2.3,0.5,3.5
			C151.2,208.6,151.7,209.6,152.3,210.4z"/>
		<path id="XMLID_276_" class="st1" d="M165.7,219.1c-1.4,0-2.4-0.6-3.3-1.8c-0.8-1.2-1.2-2.6-1.2-4.2c0-1.2,0.2-2.5,0.6-4
			c0.4-1.5,0.8-3,1.4-4.5c0.6-1.5,1.1-2.7,1.7-3.7c0.6-1,1.1-1.4,1.6-1.4c0.2,0,0.5,0.1,1,0.3c0.5,0.2,0.9,0.5,1.2,0.9
			c-0.4,0.7-1,1.7-1.6,3.1c-0.6,1.4-1.2,2.9-1.7,4.5c-0.5,1.6-0.7,3.1-0.7,4.4c0,0.3,0,0.8,0.1,1.5c0.1,0.7,0.3,1.2,0.6,1.8
			c0.3,0.5,0.8,0.8,1.4,0.8c0.8,0,1.5-0.4,2.3-1.2c0.8-0.8,1.6-1.8,2.4-3c0.8-1.2,1.6-2.6,2.4-4c0.8-1.4,1.5-2.8,2.1-4.1
			c0.7-1.3,1.2-2.4,1.6-3.3c0.2,0,0.6,0.1,1,0.2c0.5,0.1,0.9,0.3,1.3,0.5c0.4,0.2,0.6,0.5,0.6,0.8c0,0.2-0.2,0.7-0.6,1.6
			c-0.4,0.9-0.9,2-1.4,3.3c-0.5,1.3-1,2.6-1.4,3.9c-0.4,1.3-0.6,2.5-0.6,3.5c0,0.7,0.1,1.3,0.4,1.7c0.3,0.4,0.8,0.7,1.5,0.7
			c0.8,0,1.9-0.4,3.1-1.1s2.4-1.9,3.7-3.3c1.2-1.5,2.3-3.2,3.3-5.2l0.8,0.5c-0.8,2.2-1.9,4.1-3.3,5.7c-1.4,1.7-2.8,2.9-4.3,3.9
			c-1.5,0.9-3,1.4-4.4,1.4c-1,0-1.9-0.2-2.5-0.6c-0.6-0.4-1.1-0.9-1.3-1.6c-0.3-0.7-0.4-1.4-0.4-2.2c0-0.5,0-1,0.1-1.5
			c0.1-0.5,0.2-1,0.3-1.5c-0.7,1.3-1.5,2.5-2.3,3.7c-0.8,1.1-1.7,2-2.6,2.7C167.7,218.8,166.7,219.1,165.7,219.1z"/>
		<path id="XMLID_278_" class="st1" d="M209.4,220.7c-1.9,0-3.5-0.6-4.8-1.9c-1.3-1.3-1.9-3.2-1.9-5.7c0-2,0.4-3.9,1.2-5.8
			c0.8-1.9,1.8-3.6,3.1-5.1c1.3-1.5,2.7-2.7,4.2-3.6c1.6-0.9,3.1-1.3,4.6-1.3c1.6,0,2.8,0.5,3.4,1.4c0.6,1,0.9,2,0.9,3
			c0,1.2-0.3,2.2-0.8,3.1c-0.5,0.9-1.3,1.3-2.2,1.3c-0.7,0-1.3-0.3-1.7-0.9c0.6-0.3,1.1-1,1.6-1.9c0.4-1,0.7-1.9,0.7-2.8
			c0-0.5-0.1-0.8-0.3-1.1c-0.2-0.3-0.5-0.4-1-0.4c-1.1,0-2.2,0.5-3.3,1.4c-1.1,1-2.2,2.2-3.2,3.7c-1,1.5-1.8,3.1-2.4,4.8
			c-0.6,1.7-0.9,3.3-0.9,4.7c0,1.2,0.3,2.4,0.9,3.4s1.8,1.6,3.5,1.6c1.6,0,3.2-0.4,4.8-1.3c1.6-0.9,3.1-2.1,4.5-3.8
			c1.4-1.6,2.5-3.6,3.4-5.7l0.8,0.6c-0.9,2.4-2.2,4.5-3.8,6.4c-1.6,1.9-3.4,3.4-5.3,4.5S211.4,220.7,209.4,220.7z"/>
		<path id="XMLID_280_" class="st1" d="M225.2,220.1c-1.2,0-2.3-0.4-3.1-1.2c-0.9-0.8-1.3-2.1-1.3-3.7c0-1.4,0.3-3,1-4.6
			c0.6-1.7,1.5-3.3,2.6-4.9c1.1-1.6,2.4-3.1,3.8-4.4c1.4-1.3,2.9-2.4,4.5-3.2c1.6-0.8,3.1-1.2,4.7-1.2s2.9,0.4,3.9,1.2
			c1,0.8,1.6,1.9,1.6,3.3c0,1-0.3,1.7-0.8,2c-0.5,0.4-1.2,0.5-2.1,0.5c0.1-0.3,0.1-0.7,0.2-1c0.1-0.4,0.1-0.7,0.1-1
			c0-0.9-0.2-1.7-0.7-2.4c-0.4-0.7-1.2-1-2.3-1c-1.1,0-2.3,0.4-3.4,1.2c-1.2,0.8-2.3,1.8-3.4,3.1c-1.1,1.3-2,2.7-2.9,4.2
			c-0.8,1.5-1.5,3-2,4.5c-0.5,1.5-0.7,2.8-0.7,4c0,1.6,0.5,2.3,1.6,2.3c0.9,0,1.9-0.4,3-1.3c1.1-0.9,2.2-2,3.3-3.3
			c1.1-1.3,2.2-2.7,3.3-4.2c1-1.4,2-2.8,2.8-4c0.2-0.2,0.3-0.4,0.3-0.4c0.2,0,0.5,0.1,0.9,0.2c0.4,0.1,0.7,0.3,1,0.5
			c0.3,0.2,0.4,0.5,0.4,0.8c0,0.4-0.2,0.8-0.5,1.5c-0.4,0.6-0.8,1.3-1.2,2.1c-0.4,0.8-0.8,1.6-1.2,2.4c-0.4,0.8-0.5,1.6-0.5,2.3
			c0,0.6,0.2,1.2,0.5,1.8c0.3,0.6,0.8,0.9,1.6,0.9c1.1,0,2.5-0.8,4.2-2.4c1.8-1.6,3.5-3.9,5.3-7.1l0.6,0.6c-0.8,2.2-1.9,4-3.2,5.7
			c-1.3,1.6-2.7,2.9-4.2,3.8c-1.5,0.9-3,1.4-4.4,1.4c-1.5,0-2.6-0.4-3.3-1.3c-0.7-0.9-1-1.8-1-2.9c0-0.2,0-0.5,0.1-0.8
			c0-0.3,0.1-0.6,0.1-0.9c-1.7,2.3-3.3,4.1-4.7,5.2C228.2,219.5,226.7,220.1,225.2,220.1z"/>
		<path id="XMLID_282_" class="st1" d="M267.8,218.5c-1.4,0-2.4-0.4-3.1-1.1c-0.7-0.7-1-1.6-1-2.8c0-0.8,0.1-1.7,0.4-2.6
			c0.3-0.9,0.6-1.9,0.9-2.8c0.3-1,0.4-1.9,0.4-2.8c0-1.1-0.2-1.9-0.7-2.3c-0.5-0.4-1-0.6-1.7-0.6c-1.2,0-2.5,0.5-3.8,1.5
			c-1.3,1-2.5,2.3-3.7,3.9c-1.2,1.6-2.3,3.2-3.4,4.9c-1,1.7-2,3.2-2.8,4.5c-0.6,0-1.2-0.1-1.8-0.3c-0.6-0.2-1-0.5-1.3-1
			c0-0.2,0.2-0.8,0.6-1.9c0.4-1,0.9-2.3,1.5-3.8c0.6-1.5,1.1-3.1,1.5-4.7c0.4-1.6,0.7-3.1,0.7-4.4c0.2-0.3,0.6-0.6,1.1-0.8
			c0.5-0.3,1.1-0.4,1.6-0.4c1.1,0,1.6,0.5,1.6,1.6c0,0.6-0.2,1.7-0.5,3.2c-0.4,1.5-0.8,3.1-1.4,4.7c1.1-1.6,2.3-3.3,3.6-4.9
			c1.3-1.6,2.8-3,4.3-4c1.5-1.1,3-1.6,4.5-1.6c1.6,0,2.7,0.6,3.4,1.7c0.7,1.1,1,2.4,1,3.7c0,1.2-0.2,2.4-0.6,3.4
			c-0.4,1.1-0.8,2.1-1.2,3.1c-0.4,1-0.6,2-0.6,3c0,0.8,0.2,1.4,0.5,1.8c0.3,0.3,0.8,0.5,1.3,0.5c1,0,2-0.5,3-1.4
			c1-0.9,2-2.1,2.9-3.6c0.9-1.4,1.8-2.9,2.5-4.4l0.7,0.8c-0.8,2-1.8,3.7-2.8,5.2c-1,1.5-2.2,2.7-3.4,3.6
			C270.7,218.1,269.3,218.5,267.8,218.5z"/>
		<path id="XMLID_284_" class="st1" d="M297.5,221.7c-2.1,0-3.6-0.7-4.6-2s-1.5-3.2-1.5-5.5c0-2,0.3-4.3,1-7.1
			c0.7-2.7,1.6-5.6,2.7-8.5c1.1-3,2.4-5.9,3.7-8.7c1.4-2.8,2.8-5.4,4.2-7.7c1.4-2.3,2.7-4.1,4-5.5c1.2-1.4,2.3-2.1,3.1-2.1
			c0.7,0,1.2,0.4,1.5,1.3c0.3,0.8,0.4,1.7,0.4,2.5c0,1.1-0.2,2.5-0.7,4.1c-0.5,1.6-1.2,3.3-2,5.1c-0.9,1.8-1.9,3.6-3.1,5.4
			c-1.2,1.8-2.4,3.4-3.7,4.8c-1.3,1.5-2.7,2.6-4.1,3.4c-0.2,0.4-0.6,1.3-1,2.7c-0.5,1.4-0.9,3-1.3,4.7c-0.4,1.8-0.6,3.5-0.6,5.2
			c0,1.6,0.2,3,0.7,4s1.3,1.6,2.5,1.6c1.2,0,2.4-0.5,3.6-1.4c1.2-0.9,2.2-2.1,3-3.6c-1.5-0.8-2.6-1.9-3.3-3.3
			c-0.7-1.5-1.1-2.9-1.1-4.4c0-1.9,0.5-3.5,1.5-4.6c1-1.2,2.2-1.7,3.5-1.7c1.2,0,2.1,0.5,2.8,1.4c0.7,0.9,1,2.3,1,4.1
			c0,1.3-0.2,2.7-0.5,4.1c-0.4,1.4-0.9,2.8-1.6,4.1c0.2,0,0.5,0.1,0.7,0.1s0.5,0.1,0.8,0.1c1.4,0,2.6-0.3,3.6-1
			c1-0.7,1.8-1.6,2.4-2.6s1.2-2,1.6-2.9l0.7,0.8c-1.1,2.8-2.4,4.6-4,5.5c-1.5,0.9-3.1,1.3-4.6,1.3c-0.3,0-0.6,0-1-0.1
			c-0.3,0-0.6-0.1-1-0.1c-1.1,1.8-2.4,3.4-4,4.7C301.4,221,299.6,221.7,297.5,221.7z M298.8,198.8c1.1-0.9,2.2-2,3.3-3.4
			c1.1-1.4,2-2.8,3-4.3c0.9-1.5,1.7-3,2.5-4.5c0.7-1.5,1.3-2.8,1.7-4c0.4-1.2,0.6-2.1,0.6-2.7c0-0.2,0-0.3-0.1-0.4
			c0-0.1-0.1-0.1-0.2-0.1c-0.3,0-0.9,0.6-1.8,1.7c-0.9,1.1-1.9,2.7-3,4.5c-1.1,1.9-2.2,4-3.3,6.3
			C300.4,194.2,299.5,196.5,298.8,198.8z M305.8,213.2c0.4-0.9,0.8-1.9,1-2.9s0.4-2.1,0.4-3.1c0-1.4-0.2-2.5-0.6-3.3
			c-0.4-0.8-0.8-1.2-1.4-1.2c-0.6,0-1.1,0.4-1.6,1.2c-0.5,0.8-0.7,1.8-0.7,3.1c0,1.1,0.2,2.2,0.7,3.4S304.8,212.5,305.8,213.2z"/>
		<path id="XMLID_288_" class="st1" d="M320,219.1c-1.4,0-2.4-0.6-3.3-1.8c-0.8-1.2-1.2-2.6-1.2-4.2c0-1.2,0.2-2.5,0.6-4
			c0.4-1.5,0.8-3,1.4-4.5c0.6-1.5,1.1-2.7,1.7-3.7c0.6-1,1.1-1.4,1.6-1.4c0.2,0,0.5,0.1,1,0.3c0.5,0.2,0.9,0.5,1.2,0.9
			c-0.4,0.7-1,1.7-1.6,3.1c-0.6,1.4-1.2,2.9-1.7,4.5c-0.5,1.6-0.7,3.1-0.7,4.4c0,0.3,0,0.8,0.1,1.5c0.1,0.7,0.3,1.2,0.6,1.8
			c0.3,0.5,0.8,0.8,1.4,0.8c0.8,0,1.5-0.4,2.3-1.2c0.8-0.8,1.6-1.8,2.4-3c0.8-1.2,1.6-2.6,2.4-4c0.8-1.4,1.5-2.8,2.1-4.1
			c0.7-1.3,1.2-2.4,1.6-3.3c0.2,0,0.6,0.1,1,0.2c0.5,0.1,0.9,0.3,1.3,0.5c0.4,0.2,0.6,0.5,0.6,0.8c0,0.2-0.2,0.7-0.6,1.6
			c-0.4,0.9-0.9,2-1.4,3.3c-0.5,1.3-1,2.6-1.4,3.9c-0.4,1.3-0.6,2.5-0.6,3.5c0,0.7,0.1,1.3,0.4,1.7c0.3,0.4,0.8,0.7,1.5,0.7
			c0.8,0,1.9-0.4,3.1-1.1s2.4-1.9,3.7-3.3c1.2-1.5,2.3-3.2,3.3-5.2l0.8,0.5c-0.8,2.2-1.9,4.1-3.3,5.7c-1.4,1.7-2.8,2.9-4.3,3.9
			c-1.5,0.9-3,1.4-4.4,1.4c-1,0-1.9-0.2-2.5-0.6c-0.6-0.4-1.1-0.9-1.3-1.6c-0.3-0.7-0.4-1.4-0.4-2.2c0-0.5,0-1,0.1-1.5
			c0.1-0.5,0.2-1,0.3-1.5c-0.7,1.3-1.5,2.5-2.3,3.7c-0.8,1.1-1.7,2-2.6,2.7C321.9,218.8,321,219.1,320,219.1z"/>
		<path id="XMLID_290_" class="st1" d="M344.3,234.1c-1,0-1.9-0.3-2.6-0.8c-0.8-0.5-1.1-1.3-1.1-2.4c0-1.3,0.3-2.4,1-3.4
			s1.5-1.9,2.6-2.8s2.3-1.6,3.7-2.4c1.4-0.8,2.9-1.5,4.4-2.3c0.6-1.5,1.1-3.1,1.7-4.9c0.6-1.8,1.1-3.8,1.6-6
			c-1.3,2.1-2.6,3.9-4.1,5.4s-3,2.2-4.6,2.2c-0.8,0-1.5-0.2-2.2-0.5c-0.7-0.3-1.3-0.9-1.8-1.6c-0.5-0.7-0.7-1.6-0.7-2.8
			c0-1.1,0.2-2.4,0.6-3.9c0.4-1.5,0.8-2.9,1.4-4.3c0.6-1.4,1.1-2.6,1.7-3.5s1.1-1.4,1.6-1.4c0.2,0,0.4,0.1,0.9,0.2
			c0.4,0.1,0.8,0.3,1.2,0.5c0.4,0.2,0.6,0.4,0.6,0.7c-0.4,0.5-0.8,1.3-1.2,2.2c-0.4,1-0.9,2-1.3,3.2s-0.8,2.3-1,3.4
			c-0.3,1.1-0.4,2.1-0.4,2.9c0,0.7,0.2,1.3,0.5,1.7c0.3,0.4,0.9,0.7,1.7,0.7c0.8,0,1.6-0.4,2.5-1.1c0.9-0.7,1.9-1.7,2.8-2.8
			s1.8-2.4,2.6-3.7c0.1-0.4,0.2-0.9,0.3-1.3c0.1-0.5,0.2-0.9,0.3-1.4c0.1-0.6,0.4-1.2,0.9-1.9s1.2-1.1,2.2-1.1c0.2,0,0.4,0,0.6,0
			c0.2,0,0.4,0.1,0.7,0.2c0,0.6-0.2,1.8-0.6,3.6c-0.4,1.7-0.9,3.8-1.6,6.1c-0.7,2.3-1.5,4.7-2.5,7.1c1.9-0.7,3.7-1.9,5.5-3.6
			c1.8-1.7,3.3-3.9,4.4-6.6l0.8,0.6c-0.6,1.9-1.5,3.6-2.7,5c-1.2,1.4-2.6,2.6-4.1,3.7c-1.5,1-3,1.9-4.5,2.5c-1,2.6-2.2,4.9-3.4,7.2
			s-2.5,4-3.8,5.4C347,233.4,345.7,234.1,344.3,234.1z M344,232.1c0.6,0,1.6-0.8,3-2.4c1.4-1.6,2.9-4.3,4.5-8.3
			c-1.6,0.9-3.2,1.7-4.5,2.6c-1.4,0.9-2.5,1.8-3.4,2.8c-0.8,1-1.3,2.2-1.3,3.5c0,0.3,0.1,0.7,0.4,1.1S343.4,232.1,344,232.1z"/>
		<path id="XMLID_293_" class="st1" d="M383.4,220.1c-1.2,0-2.3-0.4-3.1-1.2c-0.9-0.8-1.3-2.1-1.3-3.7c0-1.4,0.3-3,1-4.6
			c0.6-1.7,1.5-3.3,2.6-4.9c1.1-1.6,2.4-3.1,3.8-4.4s2.9-2.4,4.5-3.2c1.6-0.8,3.1-1.2,4.7-1.2c1.6,0,2.9,0.4,3.9,1.2
			c1,0.8,1.6,1.9,1.6,3.3c0,1-0.3,1.7-0.8,2c-0.5,0.4-1.2,0.5-2.1,0.5c0.1-0.3,0.2-0.7,0.2-1c0.1-0.4,0.1-0.7,0.1-1
			c0-0.9-0.2-1.7-0.7-2.4c-0.4-0.7-1.2-1-2.3-1c-1.1,0-2.3,0.4-3.4,1.2c-1.2,0.8-2.3,1.8-3.4,3.1c-1.1,1.3-2,2.7-2.9,4.2
			c-0.8,1.5-1.5,3-2,4.5c-0.5,1.5-0.7,2.8-0.7,4c0,1.6,0.5,2.3,1.6,2.3c0.9,0,1.9-0.4,3-1.3c1.1-0.9,2.2-2,3.3-3.3
			c1.1-1.3,2.2-2.7,3.3-4.2s2-2.8,2.8-4c0.2-0.2,0.3-0.4,0.3-0.4c0.2,0,0.5,0.1,0.9,0.2c0.4,0.1,0.7,0.3,1,0.5
			c0.3,0.2,0.4,0.5,0.4,0.8c0,0.4-0.2,0.8-0.5,1.5c-0.4,0.6-0.8,1.3-1.2,2.1c-0.4,0.8-0.8,1.6-1.2,2.4c-0.4,0.8-0.5,1.6-0.5,2.3
			c0,0.6,0.2,1.2,0.5,1.8c0.3,0.6,0.8,0.9,1.6,0.9c1.1,0,2.5-0.8,4.2-2.4c1.8-1.6,3.5-3.9,5.3-7.1l0.6,0.6c-0.8,2.2-1.9,4-3.2,5.7
			c-1.3,1.6-2.7,2.9-4.2,3.8s-3,1.4-4.4,1.4c-1.5,0-2.6-0.4-3.3-1.3s-1-1.8-1-2.9c0-0.2,0-0.5,0.1-0.8c0-0.3,0.1-0.6,0.1-0.9
			c-1.7,2.3-3.3,4.1-4.7,5.2C386.3,219.5,384.9,220.1,383.4,220.1z"/>
		<path id="XMLID_295_" class="st1" d="M428.6,220.7c-1.9,0-3.5-0.6-4.8-1.9c-1.3-1.3-1.9-3.2-1.9-5.7c0-2,0.4-3.9,1.2-5.8
			c0.8-1.9,1.8-3.6,3.1-5.1c1.3-1.5,2.7-2.7,4.2-3.6c1.6-0.9,3.1-1.3,4.6-1.3c1.6,0,2.8,0.5,3.4,1.4c0.6,1,0.9,2,0.9,3
			c0,1.2-0.3,2.2-0.8,3.1c-0.5,0.9-1.3,1.3-2.2,1.3c-0.7,0-1.3-0.3-1.7-0.9c0.6-0.3,1.1-1,1.6-1.9c0.4-1,0.7-1.9,0.7-2.8
			c0-0.5-0.1-0.8-0.3-1.1c-0.2-0.3-0.5-0.4-1-0.4c-1.1,0-2.2,0.5-3.3,1.4c-1.1,1-2.2,2.2-3.2,3.7c-1,1.5-1.8,3.1-2.4,4.8
			c-0.6,1.7-0.9,3.3-0.9,4.7c0,1.2,0.3,2.4,0.9,3.4c0.6,1,1.8,1.6,3.5,1.6c1.6,0,3.2-0.4,4.8-1.3c1.6-0.9,3.1-2.1,4.5-3.8
			c1.4-1.6,2.5-3.6,3.4-5.7l0.8,0.6c-0.9,2.4-2.2,4.5-3.8,6.4c-1.6,1.9-3.4,3.4-5.3,4.5S430.6,220.7,428.6,220.7z"/>
		<path id="XMLID_297_" class="st1" d="M444.4,220.1c-1.2,0-2.3-0.4-3.1-1.2c-0.9-0.8-1.3-2.1-1.3-3.7c0-1.4,0.3-3,1-4.6
			c0.6-1.7,1.5-3.3,2.6-4.9c1.1-1.6,2.4-3.1,3.8-4.4s2.9-2.4,4.5-3.2c1.6-0.8,3.1-1.2,4.7-1.2c1.6,0,2.9,0.4,3.9,1.2
			c1,0.8,1.6,1.9,1.6,3.3c0,1-0.3,1.7-0.8,2c-0.5,0.4-1.2,0.5-2.1,0.5c0.1-0.3,0.2-0.7,0.2-1c0.1-0.4,0.1-0.7,0.1-1
			c0-0.9-0.2-1.7-0.7-2.4c-0.4-0.7-1.2-1-2.3-1c-1.1,0-2.3,0.4-3.4,1.2c-1.2,0.8-2.3,1.8-3.4,3.1c-1.1,1.3-2,2.7-2.9,4.2
			c-0.8,1.5-1.5,3-2,4.5c-0.5,1.5-0.7,2.8-0.7,4c0,1.6,0.5,2.3,1.6,2.3c0.9,0,1.9-0.4,3-1.3c1.1-0.9,2.2-2,3.3-3.3
			c1.1-1.3,2.2-2.7,3.3-4.2s2-2.8,2.8-4c0.2-0.2,0.3-0.4,0.3-0.4c0.2,0,0.5,0.1,0.9,0.2c0.4,0.1,0.7,0.3,1,0.5
			c0.3,0.2,0.4,0.5,0.4,0.8c0,0.4-0.2,0.8-0.5,1.5c-0.4,0.6-0.8,1.3-1.2,2.1c-0.4,0.8-0.8,1.6-1.2,2.4c-0.4,0.8-0.5,1.6-0.5,2.3
			c0,0.6,0.2,1.2,0.5,1.8c0.3,0.6,0.8,0.9,1.6,0.9c1.1,0,2.5-0.8,4.2-2.4c1.8-1.6,3.5-3.9,5.3-7.1l0.6,0.6c-0.8,2.2-1.9,4-3.2,5.7
			c-1.3,1.6-2.7,2.9-4.2,3.8s-3,1.4-4.4,1.4c-1.5,0-2.6-0.4-3.3-1.3s-1-1.8-1-2.9c0-0.2,0-0.5,0.1-0.8c0-0.3,0.1-0.6,0.1-0.9
			c-1.7,2.3-3.3,4.1-4.7,5.2C447.3,219.5,445.9,220.1,444.4,220.1z"/>
		<path id="XMLID_299_" class="st1" d="M485.4,219.6c-1.1,0-2.1-0.4-2.9-1.1c-0.8-0.8-1.4-1.7-1.9-2.9s-0.8-2.3-1-3.6
			c-0.2-1.2-0.3-2.3-0.3-3.2c0.4,0,1.1-0.1,1.9-0.3s1.7-0.6,2.6-1c0.9-0.5,1.6-1.1,2.2-1.8c0.6-0.7,0.9-1.6,0.9-2.6
			c0-0.8-0.3-1.5-0.9-2c-0.6-0.5-1.3-0.7-2.1-0.7c-1.2,0-2.4,0.4-3.5,1.3c-1.1,0.9-2,2-2.9,3.4c-0.9,1.4-1.6,2.8-2.3,4.4
			c-0.7,1.6-1.3,3-1.7,4.4c-0.5,1.4-0.9,2.6-1.2,3.5c-0.2,0.7-0.6,1.2-1,1.5c-0.4,0.3-0.9,0.4-1.4,0.4c-0.7,0-1.2-0.3-1.5-0.8
			c-0.3-0.6-0.5-1.3-0.5-2.1c-0.1-0.9-0.1-1.7-0.1-2.7c0-2.1,0.3-4.5,1-7.2c0.7-2.7,1.6-5.5,2.7-8.5c1.1-2.9,2.4-5.8,3.7-8.5
			c1.4-2.8,2.7-5.2,4.1-7.5s2.6-4,3.8-5.3s2.1-2,2.8-2c0.6,0,1,0.4,1.3,1.1c0.3,0.8,0.5,1.7,0.5,2.8c0,1.4-0.3,2.9-0.9,4.6
			s-1.4,3.4-2.5,5.1c-1.1,1.7-2.4,3.3-3.9,4.8c-1.5,1.5-3.1,2.8-4.9,3.9c-1.3,3.2-2.3,6.4-3,9.4c-0.7,3.1-1,5.6-1,7.7
			c0.6-1.6,1.4-3.4,2.3-5.3s1.9-3.8,3.1-5.5c1.2-1.8,2.4-3.2,3.8-4.3c1.4-1.1,2.8-1.7,4.2-1.7c1.5,0,2.7,0.5,3.8,1.6
			c1,1,1.6,2.3,1.6,3.8c0,1.3-0.3,2.4-1,3.3s-1.5,1.6-2.4,2.2c-0.9,0.5-1.9,0.9-2.8,1.2c-0.9,0.3-1.7,0.4-2.3,0.4
			c0,0.3,0.2,0.9,0.4,1.7c0.2,0.8,0.5,1.7,0.9,2.6c0.4,0.9,0.8,1.7,1.4,2.4c0.6,0.7,1.2,1,2,1c1.2,0,2.3-0.4,3.3-1.3
			c1-0.9,2-2,3-3.5s1.8-3.1,2.6-4.9l0.6,0.6c-0.6,2-1.4,3.8-2.6,5.5c-1.2,1.7-2.4,3.2-3.9,4.2C488.2,219,486.8,219.6,485.4,219.6z
			 M476.7,194.5c1.8-1.5,3.4-3.2,4.8-5c1.4-1.9,2.4-3.7,3.2-5.4c0.8-1.7,1.1-3.1,1.1-4.1c0-0.2,0-0.3,0-0.4c0-0.1-0.1-0.1-0.1-0.1
			c-0.4,0-1.1,0.7-2.1,2.1s-2.1,3.2-3.3,5.5C479,189.3,477.8,191.8,476.7,194.5z"/>
		<path id="XMLID_302_" class="st1" d="M500.8,219.9c-2.4,0-4.3-0.7-5.5-2c-1.2-1.3-1.8-3-1.8-4.9c0-1.8,0.4-3.7,1.3-5.7
			c0.9-2,2.1-3.9,3.6-5.6s3.1-3.2,4.9-4.3c1.8-1.1,3.6-1.6,5.3-1.6c0.9,0,1.8,0.2,2.5,0.7s1.2,1.5,1.2,2.9c0,1.5-0.4,2.9-1.3,4.3
			s-2.1,2.5-3.5,3.6c-1.5,1-3.1,1.9-4.8,2.5c-1.7,0.7-3.5,1.1-5.2,1.2c-0.1,0.4-0.1,0.8-0.2,1.1c0,0.4-0.1,0.7-0.1,1
			c0,0.6,0.1,1.2,0.2,1.8c0.1,0.6,0.4,1.1,0.7,1.6c0.4,0.5,0.8,0.9,1.5,1.2c0.6,0.3,1.4,0.4,2.3,0.4c1.7,0,3.4-0.5,5.1-1.5
			c1.7-1,3.2-2.3,4.7-3.9c1.4-1.6,2.7-3.4,3.7-5.3l0.7,0.5c-1.1,2.4-2.4,4.5-4.1,6.2c-1.7,1.8-3.5,3.1-5.4,4.1
			C504.7,219.4,502.8,219.9,500.8,219.9z M497.8,209.9c1.1-0.4,2.3-0.9,3.7-1.6s2.7-1.5,3.9-2.5c1.3-1,2.3-2,3.1-3.2
			c0.8-1.2,1.2-2.4,1.2-3.7c0-0.4-0.1-0.8-0.2-1s-0.5-0.4-1-0.4c-1,0-2,0.4-3.1,1.1c-1.1,0.7-2.1,1.7-3.1,2.9c-1,1.2-1.9,2.5-2.7,4
			S498.2,208.4,497.8,209.9z"/>
	</g>
</g>
</svg>
