<?xml version="1.0" encoding="utf-8"?>
<!-- Generator: Adobe Illustrator 19.0.0, SVG Export Plug-In . SVG Version: 6.00 Build 0)  -->
<svg version="1.1" id="Layer_1" xmlns="http://www.w3.org/2000/svg" xmlns:xlink="http://www.w3.org/1999/xlink" x="0px" y="0px"
	 viewBox="0 0 586.4 630.4" style="enable-background:new 0 0 586.4 630.4;" xml:space="preserve">
<style type="text/css">
	.st0{fill:#541408;}
	.st1{fill:#722006;}
	.st2{opacity:0.7;fill:#9E2D0A;}
	.st3{opacity:0.7;fill:#B13316;}
	.st4{opacity:0.5;fill:#B13316;}
	.st5{opacity:0.3;fill:#FFFFFF;}
	.st6{opacity:0.4;fill:#FFFFFF;}
	.st7{fill:url(#XMLID_54_);}
	.st8{fill:url(#XMLID_55_);}
	.st9{fill:url(#XMLID_56_);}
	.st10{fill:url(#XMLID_57_);}
	.st11{fill:url(#XMLID_58_);}
	.st12{fill:url(#XMLID_59_);}
	.st13{fill:url(#XMLID_60_);}
	.st14{fill:url(#XMLID_61_);}
	.st15{fill:url(#XMLID_62_);}
	.st16{fill:url(#XMLID_63_);}
	.st17{fill:url(#XMLID_64_);}
	.st18{fill:url(#XMLID_65_);}
	.st19{fill:url(#XMLID_66_);}
	.st20{fill:url(#XMLID_67_);}
	.st21{fill:url(#XMLID_68_);}
	.st22{fill:#FFFFFF;}
	.st23{opacity:0.25;}
	.st24{fill:url(#XMLID_69_);}
	.st25{opacity:0.2;fill:#FFDB0D;}
	.st26{opacity:0.3;}
	.st27{opacity:0.2;}
	.st28{fill:url(#XMLID_70_);}
	.st29{opacity:0.2;fill:#FFF7EF;}
	.st30{fill:#3B8D14;}
	.st31{fill:#D50506;}
	.st32{fill:#FF9E0C;}
	.st33{opacity:0.4;fill:#FF9E0C;}
</style>
<g id="XMLID_1232_">
	<path id="XMLID_1306_" class="st0" d="M11.9,347.9c0.1,1.8,0,0,0.1,1.8c3.1,162.5,124.7,276.6,280.2,276.6
		c155.4,0,288.3-121,281.2-261.9C573,359.8,11.9,347.9,11.9,347.9z"/>
	<path id="XMLID_1384_" class="st1" d="M562.5,395.9c1.7-7.5,12.2-16.2,12.2-24.1c0-21.2-10.5-23.8-22.4-42.5
		C511.8,265.2,413.1,209.8,292,209.8c-105.2,0-202.2,44.4-251.1,95.4c-13.6,14.2-25.2,25.3-28.2,38.1c0,0.1,0,0.1-0.1,0.1
		c-0.2,0.6-0.4,1.9-0.6,3.5c0,0.1,0,0.2,0,0.2c-1.3,14.5,0.4,62.5,9.3,73c0,0,0,0,0.1,0.1c0.1,0.3,0.3,0.6,0.5,0.9
		c0.6,6.1,3,15.3,9,29.3c5,11.8,20.9,46.8,24.7,45.7c3.4-0.9-24.2-53.1-12.4-62.4c1.1-0.9,3.1-0.5,5.1,0.2c1.6,1,3.1,2.1,4.2,3.7
		c4.3,6.3,1,14.1,0.6,21.4c-3.4,5.7-1.5,19.4,24.3,59.8c12.5,19.6,33.8,49,40.3,45.7c5.7-2.8-21.3-39.8-31.9-79.3
		c-1.2-4.6,7-2.4,9.9-4.3c2.9-0.3,4.9-0.2,5.4,0.8c2.6,4.8,2.7,10.4,4.2,16c-0.4,9,6,25.9,33.2,64.8c16.5,23.7,44.2,47.5,52,45.1
		c6.2-1.8-36.1-37-45.4-88c-0.4-2.4,2.5-5.1,5.9-7.9c8.5-4,16.1-8.9,23.1-8.1c6.8,0.7,6.1,16.7,9.6,28.3c0,9.2,5.9,25.3,24.9,55.4
		c14.2,22.6,35.1,39.9,45.2,35c10-4.9,4.5-15.9-2-41.8c-3.9-15.4-13.8-28-6.4-39.3c1.1-1.7,1.9-3.3,2.4-4.9c6.6-4.6,11.2-9,16.5-8.7
		c4.6,0.2,8.8,9,15,16.9c3.7,8.3,3.1,20.4,4,29.5c2.7,26.2,17.6,50.9,28.7,50.7c11-0.2,23.9-24.8,23.9-51.2c0-16-2.9-22.6,4.3-37
		c0.2-0.4,0.3-0.8,0.5-1.3c4-6,7.1-11.2,12.3-11.9c9.7-1.4,17.2,4.2,26.4,9.1c0,0,0,0,0.1,0.1c8.8,10,3,21,1.3,36.7
		c-2.8,26.2-6.7,37.7,3.8,41.2c10.5,3.5,28.6-16.4,39.5-40.4c12.8-28.4,17.1-44.6,17-54.2c5.8-10.4,9.6-22,19.2-29.3
		c4.5-3.4,10.2-1.1,16.2,2.2c1.3,2.1,2.2,4.3,2.2,6.6c-1.3,46.9-32.7,80.3-25.9,83c6.8,2.7,24.3-17,35.4-40
		c12.4-25.7,17.9-40.8,19.7-50c7.3-12.6,6-31.3,13.2-38c3.3-3.1,7.1-5.2,10.9-6.9c2.9,0,5.6,0,5.1,2.8c-7.3,40.3-28.2,76-22.3,78.4
		c6.8,2.7,22.5-25,33.4-45.6c20.6-39,22.9-53.7,20.2-60.1C567,411.6,561.2,401.7,562.5,395.9z M23.4,395.8c-0.9-7.8-2-16-2.8-22.8
		c0.9,1.4,1.9,2.7,3,4.2C26.9,381.4,25.4,388.5,23.4,395.8z"/>
	<g id="XMLID_1381_">
		<path id="XMLID_1303_" class="st2" d="M28.1,326.6c0.6-1.1,1.1-2.1,1.8-3.2C29.9,323.4,29.1,324.6,28.1,326.6z"/>
		<path id="XMLID_1302_" class="st3" d="M485.2,461.2c-28.3,26.3-118.8,45.5-163.6,47.6c-44.8,2.1-141.8,3.6-238.1-58.3
			C22,410.9,17.2,370,21.8,345.6c0.4-1.9,0.8-3.7,1.2-5.3c1.6-6.1,3.7-10.9,5.1-13.7c-1.3,2.2-2.3,4.3-3.4,6.5c0.2-0.6,0.3-1,0.3-1
			c-19.8,8.5-5.7,79.7-7.2,67.3c-1.1-8.6,0.3-18.7,1.2-24c1.8,10.5,5.8,21,11.8,31.2c-2.6,4.5-8.2,16.8-2.7,33.3
			c6.9,20.9,21,42.2,21,42.2s-24.1-49-7.9-60.4c4.3,5.5,9.2,10.8,14.5,16c0,0-0.1,0-0.1,0c0,0,3,14.6,0,23.5
			c-3,9,16.8,56.9,39.6,82.3c22.7,25.3-6.8-20.3-13.6-36.8c-6.8-16.5-10.4-38.5,16.2-31.2c9.9,2.7,11.3,27.2,14.2,36
			c3.3,10.1,27.8,56.6,52.9,80.8c25.1,24.3-32.5-60-33.1-69.6c-0.5-9.6,10.4-20.7,27.4-22.4c0,0,15.9-2.1,20.5,8.2
			c4.5,10.3,4.5,29.7,12,42.4c9.1,15.5,33.5,54.8,46.4,63.5c12.9,8.7-35.9-82.7,2.4-92.7c38.3-10,0,0,0,0
			c42.9-3.1,49.8,25.6,48.7,33c-1.5,10.1,9.3,51.5,17.7,60.4c8.4,8.9,6.4-41.7,5.9-50.8c-0.5-7.9,3.4-34.9,15.6-39.1
			c37.3-13,69.3,3.4,63.7,25.8c-5.6,22.4-9.6,54.4-5.6,52c3.9-2.3,36.9-59.8,23.7-91.9C495.4,485.8,507.3,440.8,485.2,461.2z"/>
	</g>
	<path id="XMLID_1301_" class="st4" d="M494.9,487.2c2.9,9.8-3.6,44-21.9,65.8c-18.2,21.8,14.7-39.2,9.9-58.8
		C478.2,474.5,492,477.4,494.9,487.2z"/>
	<path id="XMLID_1300_" class="st3" d="M561.7,347.9c0,0,14.4,13.1,4.3,30.7C555.9,396.2,555.6,346.5,561.7,347.9z"/>
	<path id="XMLID_1299_" class="st4" d="M556.8,434.1c1.4,10-6.8,41.4-25.8,66.2c-16.3,21.3,16.7-40.4,14.8-60.4
		C544,420,555.4,424.1,556.8,434.1z"/>
	<path id="XMLID_1298_" class="st5" d="M491.8,493.6c0.3,7.9-5.9,34.6-16.2,50.9c-10.3,16.2,10.4-30.2,10.2-46
		C485.6,482.7,491.4,485.7,491.8,493.6z"/>
	<path id="XMLID_1297_" class="st5" d="M563.1,348.1c0,0,8.6,7.9,2.6,18.4C559.5,377.1,559.4,347.2,563.1,348.1z"/>
	<path id="XMLID_1374_" class="st6" d="M379.6,509.8c-0.8-0.1-1.6-0.3-2.4-0.4c20.5-5.8,32.4-11.2,32.4-11.2
		c-246,61.9-366.4-79.2-366.4-79.2c-17.1-20.3-22.7-40.1-23.9-54.8c0.2-1.9,0.3-3.6-0.1-4.9c-0.1-0.4-0.2-0.8-0.2-1.2
		c0-2.5,0-4.8,0.2-6.8c0.6-6,2.1-12.5,2.1-12.5c-7.9,11.1-4.8,45.3-4.8,45.3c-0.1-5.4,1.1-10.6,2-15c2.3,15.1,9,29.3,14.6,39
		c-15.5,14.9,7.1,59,7.1,59c-13.3-35.5-2.7-48,2.5-44.6c19.7,12.6,13.9,33.5,14.2,40.6c1.3,38.1,40.8,82.6,40.6,78.8
		c-0.2-2.4-19.4-28.8-25.2-53.2c-3.8-16.3,10.9-18.6,23.1-17.2c12.2,1.5,15,24.7,16.8,33.4c8.3,39.6,49.9,81.8,49.4,78.2
		c-0.4-2.3-28-34.3-35.8-58.2c-6.1-18.8,16.9-26,23.2-27.5c6.3-1.4,26.7,1.7,30.7,9.9c4,8.2,6.3,22.8,10.2,34.7
		c4.6,13.8,37.6,59,41.6,62.6c4,3.6-24.4-44-26.4-58c-2-14,7.7-28.5,14.5-29.5c10.7-1.6,49.4,0.3,56.3,5.8c5.1,4.1,17,11,17,22.2
		c0,25.6,7.9,62.4,13.4,59.8c7.9-3.7-24.8-87.4,45.9-88.6c11.1-0.2,50.6,7.9,41.9,37.7C385.2,583.8,424.4,517.7,379.6,509.8z"/>
	<path id="XMLID_1295_" class="st5" d="M81,464.1c-2.6,3.3-9.7,3.9-13.6-1c-4.6-5.8-6.9-9.6-4.3-12.9c2.6-3.3,6.6-2.1,13.6,1
		C82.4,453.8,83.5,460.8,81,464.1z"/>
	<linearGradient id="XMLID_54_" gradientUnits="userSpaceOnUse" x1="26.3893" y1="280.6772" x2="540.0742" y2="280.6772">
		<stop  offset="0" style="stop-color:#FFC8BE"/>
		<stop  offset="1" style="stop-color:#C0989C"/>
	</linearGradient>
	<path id="XMLID_1294_" class="st7" d="M304.4,71.4c4.1-1-5.1,51.4,7.2,51.4c12.3,0,26.3,13.3,28.1,19.5c1.7,6.2,21.2,1,30.5,9.2
		c9.2,8.2,104.7,12.3,114,69.8c9.3,57.5,33.9,55.5,33.9,55.5s31.4-24.6,19.3,71.9c-12.1,96.5-229.8,157.1-344.8,137.6
		c-90-15.3-175-76.4-165.4-139.7c1.4-9.1,0.9-26.1,7.3-34.4c10.8-13.9,15.2-9.7,24.5-17.9l24.7-34.9c0,0,23.7-26,22.2-50.4
		c-0.5-8.2,9.5-26.2,32.9-17.6c71.4,26.3,24,35.1,24,35.1s9.2-97.6,64.7-62.6c55.4,34.9,20.2,5.2,20.2,5.2S242.8,86.7,304.4,71.4z"
		/>
	<linearGradient id="XMLID_55_" gradientUnits="userSpaceOnUse" x1="179.4785" y1="384.838" x2="558.4692" y2="384.838">
		<stop  offset="0" style="stop-color:#FF6754"/>
		<stop  offset="0.2949" style="stop-color:#EC574A"/>
		<stop  offset="0.8909" style="stop-color:#BB2E2F"/>
		<stop  offset="1" style="stop-color:#B1262A"/>
	</linearGradient>
	<path id="XMLID_1293_" class="st8" d="M179.5,483.7c0,0,253.8,26.7,337.7-110.4c25-40.8,9.2-81.8,0.8-96.5
		c-12.7-22.1,80.9,0.5,19.3,125.8C474.1,531.2,176,502.5,179.5,483.7z"/>
	<linearGradient id="XMLID_56_" gradientUnits="userSpaceOnUse" x1="81.4229" y1="288.4275" x2="514.6564" y2="288.4275">
		<stop  offset="0" style="stop-color:#FF6754"/>
		<stop  offset="0.2949" style="stop-color:#EC574A"/>
		<stop  offset="0.8909" style="stop-color:#BB2E2F"/>
		<stop  offset="1" style="stop-color:#B1262A"/>
	</linearGradient>
	<path id="XMLID_1292_" class="st9" d="M83,249.3c3.6-8.2,17.2,116.7,256.6,88.1C532.9,314.3,476,211.6,479,205.9
		c3-5.6,53.7,21.5,28.7,82.2c-31.6,76.7-188.5,92.9-269,79.1C131.4,348.7,70.5,277.9,83,249.3z"/>
	<linearGradient id="XMLID_57_" gradientUnits="userSpaceOnUse" x1="251.9699" y1="132.5763" x2="338.6017" y2="132.5763">
		<stop  offset="0" style="stop-color:#FFCAC7"/>
		<stop  offset="1" style="stop-color:#D992AA"/>
	</linearGradient>
	<path id="XMLID_1291_" class="st10" d="M271.4,180.5c0,0-32.7-18.6-13.2-59.9c19.5-41.3,38.1-43.8,39.9-42.3
		c1.7,1.5-18.4,47.8-3.5,61.6c15,13.9,4-11,15.5-12.8c11.5-1.9,42.4,16.4,21.5,43.4C310.5,197.4,272.7,184.6,271.4,180.5z"/>
	<linearGradient id="XMLID_58_" gradientUnits="userSpaceOnUse" x1="152.6864" y1="218.3776" x2="449.932" y2="218.3776">
		<stop  offset="0" style="stop-color:#FF6754"/>
		<stop  offset="0.2949" style="stop-color:#EC574A"/>
		<stop  offset="0.8909" style="stop-color:#BB2E2F"/>
		<stop  offset="1" style="stop-color:#B1262A"/>
	</linearGradient>
	<path id="XMLID_1290_" class="st11" d="M170.9,178.7c8.7,1-15.7,32.9,4.1,50.8c28.1,25.5,87.6,50.2,166.6,19.8
		c119.4-46,12.6-95.8,37.1-97.4c95.6-6.3,103.8,106.8-30.2,128.8c-85.9,14.1-155.1-7.1-184.9-41.3
		C139.1,211.1,162.2,177.7,170.9,178.7z"/>
	<linearGradient id="XMLID_59_" gradientUnits="userSpaceOnUse" x1="83.5528" y1="255.3877" x2="485.2361" y2="255.3877">
		<stop  offset="0" style="stop-color:#FF6A71"/>
		<stop  offset="1" style="stop-color:#B73840"/>
	</linearGradient>
	<path id="XMLID_1365_" class="st12" d="M437.7,170.5c18.2,20.9,19.9,65.8-48,97.6c-87.2,40.8-202.7,9.9-198.5,12.7
		c22.9,15.3,164.1,44.4,241.7-21.3c13.7-11.7,22.7-22,28.3-31c-10.1,29.6-47.8,63.2-140.5,82.6c-156.1,32.7-236.5-75.8-236.5-75.8
		c-6.5,42.6,49.9,96.4,143.9,104.1c94,7.7,226.2-27.5,251.6-90.2C504.9,186.3,437.7,170.5,437.7,170.5z M441.8,172.1
		c-0.9-0.4-1.8-0.7-2.5-1C440.2,171.4,441,171.8,441.8,172.1z"/>
	<linearGradient id="XMLID_60_" gradientUnits="userSpaceOnUse" x1="173.3376" y1="197.0269" x2="383.7055" y2="197.0269">
		<stop  offset="0" style="stop-color:#FFE7BE"/>
		<stop  offset="0.3172" style="stop-color:#FFCA98"/>
		<stop  offset="0.7737" style="stop-color:#FFA567"/>
		<stop  offset="1" style="stop-color:#FF9654"/>
	</linearGradient>
	<path id="XMLID_1287_" class="st13" d="M197.6,161.3c0,0-50.8,45.2,22.1,66.8c72.9,21.6,172.2-22,136.8-80.4
		c0,0,51.7,8.4,12.5,63.5C327.5,269.3,99.6,257.3,197.6,161.3z"/>
	<linearGradient id="XMLID_61_" gradientUnits="userSpaceOnUse" x1="223.2381" y1="164.7986" x2="365.8764" y2="164.7986">
		<stop  offset="0" style="stop-color:#FF6754"/>
		<stop  offset="0.3453" style="stop-color:#EE5448"/>
		<stop  offset="1" style="stop-color:#C5262A"/>
	</linearGradient>
	<path id="XMLID_1286_" class="st14" d="M339.7,142.3c2.7,7,2.1,12.9-0.6,18c-10.9,15.5-26.3,10.8-32.9,7.8
		c-29.7-15.1-37.1-52.6-37.1-52.6c-17.1,43.1-3.3,58.5,5.8,66c-14.5-3.5-25.5-13.5-27-28.9c0,0-30.8-1.1-23.6,33.8
		c4.1,20,42,31.1,74.7,26.7c29.8-3.7,57.5-22.9,64.6-40.4C374.9,145.3,339.7,142.3,339.7,142.3z"/>
	<g id="XMLID_1360_">
		<linearGradient id="XMLID_62_" gradientUnits="userSpaceOnUse" x1="28.0136" y1="355.1415" x2="534.7034" y2="355.1415">
			<stop  offset="0" style="stop-color:#FF6A71"/>
			<stop  offset="1" style="stop-color:#B73840"/>
		</linearGradient>
		<path id="XMLID_1285_" class="st15" d="M513.7,249.3c0,3.9,13.9,118.6-196,169.4C98.3,471.9,34.6,327.5,29.2,337.5
			c-5.4,10,5.4,58.4,77,96.4c71.6,38,296.4,54,395.6-72.9C568.1,276.3,513.7,245.5,513.7,249.3z"/>
		<linearGradient id="XMLID_63_" gradientUnits="userSpaceOnUse" x1="62.3678" y1="323.4222" x2="507.3427" y2="323.4222">
			<stop  offset="0" style="stop-color:#FF6A71"/>
			<stop  offset="1" style="stop-color:#B73840"/>
		</linearGradient>
		<path id="XMLID_1284_" class="st16" d="M267.4,384.8C413,385,489.5,348.8,507.3,289c0,0-40.4,97.4-247,81
			c0,0-140.4-11.6-178.6-108c0,0-22.4,0.2-19.1,27C66.3,317.9,121.8,384.7,267.4,384.8z"/>
	</g>
	<linearGradient id="XMLID_64_" gradientUnits="userSpaceOnUse" x1="36.7746" y1="399.4733" x2="527.5869" y2="399.4733">
		<stop  offset="0" style="stop-color:#FFE7BE"/>
		<stop  offset="0.3172" style="stop-color:#FFCA98"/>
		<stop  offset="0.7737" style="stop-color:#FFA567"/>
		<stop  offset="1" style="stop-color:#FF9654"/>
	</linearGradient>
	<path id="XMLID_1283_" class="st17" d="M36.8,371.7c0,0,40.1,84.3,193.6,89.1c153.5,4.8,233.8-17.7,297.2-137.3
		c0,0-4.5,64.1-118.5,120.5C295.2,500.3,79.5,484.3,36.8,371.7z"/>
	<linearGradient id="XMLID_65_" gradientUnits="userSpaceOnUse" x1="115.3303" y1="237.374" x2="315.2899" y2="237.374">
		<stop  offset="0" style="stop-color:#FFE7BE"/>
		<stop  offset="0.3172" style="stop-color:#FFCA98"/>
		<stop  offset="0.7737" style="stop-color:#FFA567"/>
		<stop  offset="1" style="stop-color:#FF9654"/>
	</linearGradient>
	<path id="XMLID_1282_" class="st18" d="M155.9,195.3c0,0-26.3-19.8-38.6,1.7c-12.3,21.5,32.7,106.8,198,88.1
		C315.3,285.1,133.4,280.7,155.9,195.3z"/>
	<linearGradient id="XMLID_66_" gradientUnits="userSpaceOnUse" x1="83.346" y1="265.4778" x2="466.3854" y2="265.4778">
		<stop  offset="0" style="stop-color:#FFE7BE"/>
		<stop  offset="0.3172" style="stop-color:#FFCA98"/>
		<stop  offset="0.7737" style="stop-color:#FFA567"/>
		<stop  offset="1" style="stop-color:#FF9654"/>
	</linearGradient>
	<path id="XMLID_1281_" class="st19" d="M105.8,209c0,0,28.1,89.1,142.1,97.3c114,8.2,201.6-53.7,209.1-92.2c8-41,29.5,29.1-41.6,75
		c-71.1,45.9-204.9,62.4-293.4-4C47.9,229.6,102.5,186.4,105.8,209z"/>
	<linearGradient id="XMLID_67_" gradientUnits="userSpaceOnUse" x1="52.3942" y1="343.5336" x2="525.5557" y2="343.5336">
		<stop  offset="0" style="stop-color:#FFE7BE"/>
		<stop  offset="0.3172" style="stop-color:#FFCA98"/>
		<stop  offset="0.7737" style="stop-color:#FFA567"/>
		<stop  offset="1" style="stop-color:#FF9654"/>
	</linearGradient>
	<path id="XMLID_1280_" class="st20" d="M513.7,249.3c0,0,15,29.1-28.2,74.2c-43.1,36.9-136.9,72.4-253.3,59.5
		C104.6,369,62.7,289,62.7,289c-40.6,14.3,40.6,115.8,212.1,114.3c61.9-0.6,85.7-10.9,80.1-9.1C190,445.2,81.4,363.8,81.4,363.8
		c-28.3-12.2-26.3,31.5,82.9,63.1c109.3,31.7,250.9-9.7,320.5-80.7C554.4,275.2,513.7,249.3,513.7,249.3z"/>
	<linearGradient id="XMLID_68_" gradientUnits="userSpaceOnUse" x1="178.2683" y1="191.3999" x2="371.5278" y2="191.3999">
		<stop  offset="0" style="stop-color:#FFE7BE"/>
		<stop  offset="0.3172" style="stop-color:#FFCA98"/>
		<stop  offset="0.7737" style="stop-color:#FFA567"/>
		<stop  offset="1" style="stop-color:#FF9654"/>
	</linearGradient>
	<path id="XMLID_1279_" class="st21" d="M214,169.6c0,0-29.9,36.9,48.2,47.4c78.2,10.5,121.5-51.6,94.2-69.3c0,0,22.4,5,12.5,39.4
		c-10,34.3-105.9,67.6-166.5,34.5c-32.4-17.7-27.1-42.2-14-54.1C199.9,157,217.9,156.9,214,169.6z"/>
	<path id="XMLID_1278_" class="st22" d="M289,80.6c0,0-28.1,20.7-34.2,48.6C248.6,157.1,271.9,97.1,289,80.6z"/>
	<path id="XMLID_1277_" class="st22" d="M202.9,170.5c0,0-19,12.5-5.7,26.5c13.3,14,33.4,25.3,70.8,24.8c37.5-0.5-39,10-67.8-11.8
		c-28.7-21.9-11.8-39.5-5.7-42.1C200.8,165.3,208.5,165.4,202.9,170.5z"/>
	<path id="XMLID_1276_" class="st22" d="M140.5,195.1c0,0-18.5,17.6,8.5,42.3C175.9,262.1,87.1,209.4,140.5,195.1z"/>
	<path id="XMLID_1275_" class="st22" d="M101.9,214.1c0,0,4.8,61.2,90.2,88.1c85.4,26.9-52.6,5.6-83.6-37.9
		C77.5,220.9,93.9,209.6,101.9,214.1z"/>
	<path id="XMLID_1274_" class="st22" d="M62.4,300.4c0,0,13.2,40.4,80.9,71.3c67.8,30.9-24.7-3.4-52.9-25.1
		C60.1,323.4,55.4,309.1,62.4,300.4z"/>
	<path id="XMLID_1273_" class="st22" d="M59.5,347.1c-2.9,3.2-9.5-3.4-16.3-9.6c-6.9-6.2-7.3-17-4.4-20.2c2.9-3.2,7.9,2.5,14.8,8.7
		C60.5,332.2,62.4,343.9,59.5,347.1z"/>
	<path id="XMLID_1272_" class="st22" d="M101.9,384.8c0,0,80,49,208.3,27.5c128.4-21.6-13.3,18.7-75,15.6
		c-61.6-3.1-86.8-7.9-129.4-28.4C90.9,392.3,79.5,374.2,101.9,384.8z"/>
	<path id="XMLID_1271_" class="st22" d="M240.7,156.6c0,0-9.9,23.5,24.8,35.3C300.1,203.7,197.6,191.2,240.7,156.6z"/>
	<path id="XMLID_1270_" class="st22" d="M173.3,227.9c0,0,31.9,44.1,121.2,35.7C294.6,263.6,209.3,289.2,173.3,227.9z"/>
	<path id="XMLID_1269_" class="st22" d="M83.6,399.5c0,0,64.3,52.7,191.3,43.6C274.9,443.1,155.8,477,83.6,399.5z"/>
	<path id="XMLID_1268_" class="st23" d="M206.2,197c0,0,40.7,32.7,90.4,30.8c49.6-1.8,53.9-8.2,59-4c5.1,4.3,19.9-2,25.8,4.6
		c5.9,6.6,116.7-11.5,78.5-42.5C421.6,155,212,184,206.2,197z"/>
	<path id="XMLID_1267_" class="st22" d="M238.3,249.3c0,0,50.2,10.3,95.3-11.4C360.1,225.2,325,271.4,238.3,249.3z"/>
	<path id="XMLID_1266_" class="st22" d="M244.3,287.8c0,0,84.2,14.4,161.6-28.3C405.8,259.5,348.9,315.2,244.3,287.8z"/>
	<path id="XMLID_1265_" class="st22" d="M110.3,306.7c0,0,127.2,91.7,327.5,3.8C437.8,310.6,271.1,425.7,110.3,306.7z"/>
	<path id="XMLID_1264_" class="st22" d="M191,360.9c0,0-68.9-19.4-110.8-75.2C55.6,253,69.6,332.7,191,360.9z"/>
	<path id="XMLID_1263_" class="st22" d="M160.6,463.9c0,0,166.8,38,281.1-38.1C441.7,425.8,342.9,520.4,160.6,463.9z"/>
	
		<linearGradient id="XMLID_69_" gradientUnits="userSpaceOnUse" x1="253.6142" y1="223.5834" x2="345.7545" y2="218.6962" gradientTransform="matrix(0.8629 0.5054 -0.5054 0.8629 237.0647 -169.1473)">
		<stop  offset="0" style="stop-color:#6F951A"/>
		<stop  offset="0.4892" style="stop-color:#7EAC24"/>
		<stop  offset="1" style="stop-color:#8BBF2D"/>
	</linearGradient>
	<path id="XMLID_1262_" class="st24" d="M463.4,189.1c-4.7,18.5-44.1,35.9-89.4,26.3c-45.3-9.5-78.2-46.1-74.8-60.8
		c2.7-11.9,44.1-35.8,89.4-26.3C434,137.8,467.4,173.5,463.4,189.1z"/>
	<path id="XMLID_1261_" class="st25" d="M455.4,178.8c-3.5,10.7-31.2,10.9-61.4,5.3c-31.9-6-55-27.4-52.5-36
		c2.1-6.9,31.2-18.5,62.7-10C435.6,146.5,458.4,169.8,455.4,178.8z"/>
	<g id="XMLID_1332_">
		<path id="XMLID_1260_" class="st26" d="M299.1,155.3c0,0,0.1-0.1,0.1-0.2C299,154.8,299.1,155.3,299.1,155.3z"/>
		<path id="XMLID_1259_" class="st26" d="M460.9,178.2c0.4,0.6,0.6,1.2,0.7,2C461.3,178.9,460.9,178.2,460.9,178.2z"/>
		<path id="XMLID_1258_" class="st26" d="M461.6,180.2C461.6,180.2,461.6,180.2,461.6,180.2C461.6,180.2,461.6,180.2,461.6,180.2z"
			/>
		<path id="XMLID_1257_" class="st27" d="M461.6,180.2c1,10.9-30.9,31.3-80.8,20.8c-29.6-6.3-58.9-29.3-72.3-40.3
			c-10.9-14.8,60.3-34.7,60.3-34.7c-50.8,3-65.9,22.4-69.1,27.8c-1.1-1.1-1.7-1.8-1.7-1.8c0.3,1,0.8,2,1.1,3
			c8.1,47.3,95.2,74.6,134,58C463.2,200.2,462.9,185.5,461.6,180.2z"/>
	</g>
	<path id="XMLID_1256_" class="st6" d="M460.7,179.6c-4,3.2-47.6-5.5-71.2-16.5c9.3-2.1,31.7-9.5,40.6-3.3c11.1,7.6-1.9-9-23.6-5.3
		c-14,2.4-20.3,4.9-22.6,6.5c-11.2-3.7-27.2-5.2-41.9-5.7c6.8-3.1,12.9-10.3,15.8-12.5c11.5-8.7,32.3-3.3,17.1-7.7
		c-15.2-4.4-40.9,20-40.9,20l0,0c-15.5-0.2-27.6,0.6-27.6,0.6c-2.3,7.4,28.5,1.2,68.2,10.8c0.5,5.5,22.1,19.3,30.8,23.2
		c10.5,4.8,34.4,5.2,27.3,3.2c-4.8-1.3-9.3-2.1-21.4-5.9c-8.5-2.7-21.7-12.7-28.9-18.5c5.5,1.6,11.1,3.5,16.8,5.8
		C450.1,195,464.7,176.4,460.7,179.6z"/>
	
		<linearGradient id="XMLID_70_" gradientUnits="userSpaceOnUse" x1="472.5664" y1="77.6711" x2="474.0246" y2="34.8995" gradientTransform="matrix(0.8996 -0.4367 0.4367 0.8996 -100.176 255.2365)">
		<stop  offset="0" style="stop-color:#6F951A"/>
		<stop  offset="0.4892" style="stop-color:#7EAC24"/>
		<stop  offset="1" style="stop-color:#8BBF2D"/>
	</linearGradient>
	<path id="XMLID_1255_" class="st28" d="M395.9,54.4c9.5,11,3.7,44.2-21.3,69.6c-25,25.5-61.5,31.2-69.2,22.7
		c-6.3-6.9-3.7-44.2,21.3-69.7C351.7,51.5,387.9,45,395.9,54.4z"/>
	<path id="XMLID_1254_" class="st25" d="M386.1,55.1c5.1,6.9-6.4,25.1-22.6,42.3c-17.1,18.3-40.2,24.1-44.4,18.8
		c-3.4-4.3,1.6-28.3,20.1-45.2C357.8,54.2,381.8,49.3,386.1,55.1z"/>
	<g id="XMLID_1324_">
		<path id="XMLID_1253_" class="st26" d="M305.7,147c0,0-0.1-0.1-0.1-0.1C305.4,146.9,305.8,147.1,305.7,147z"/>
		<path id="XMLID_1252_" class="st26" d="M388.1,51.3c0.5,0,1,0.2,1.5,0.4C388.6,51.4,388.1,51.3,388.1,51.3z"/>
		<path id="XMLID_1251_" class="st26" d="M389.6,51.7C389.6,51.7,389.6,51.7,389.6,51.7C389.6,51.7,389.6,51.7,389.6,51.7z"/>
		<path id="XMLID_1250_" class="st27" d="M389.6,51.7c7.2,4,6.4,33.6-21.1,61.7c-16.3,16.7-42.9,25.9-55.4,29.9
			C299.4,144,317,89,317,89c-19.5,34.4-13.8,52.7-11.8,57c-1.2,0.2-1.8,0.3-1.8,0.3c0.8,0.2,1.5,0.3,2.3,0.6
			c32.7,15.1,86.3-30,92.3-62.5C402.7,59.2,393.4,53.1,389.6,51.7z"/>
	</g>
	<path id="XMLID_1249_" class="st6" d="M388.8,52c0.3,4-23.5,28.7-40.2,39.4c2.6-7,7.4-24.7,15-27.9c9.4-4-6.4-2.6-13.2,13.1
		c-4.4,10.2-5.5,15.3-5.4,17.5c-7,5.8-14.7,15.6-21.1,24.9c0.9-5.8-1-12.8-1.1-15.7c-0.6-11.2,11.5-22.5,2.5-14.4
		c-9.1,8-4.8,35.3-4.8,35.3l0,0c-6.6,10-11.2,18.3-11.2,18.3c3.6,4.7,12.7-18.1,35.4-39.8c3.6,2,21.3-6.1,27.4-10.1
		c7.4-4.8,17.7-20.2,13.5-16.4c-2.8,2.5-5.2,5.2-12.7,11.4c-5.2,4.4-17,8.7-23.6,10.9c3.3-2.9,6.8-5.8,10.6-8.5
		C393.9,65.5,388.6,48,388.8,52z"/>
	<path id="XMLID_1248_" class="st29" d="M374.8,58.1c2,3.2-6.3,13.2-17,23.1c-11.3,10.5-24.3,15-26,12.5c-1.3-2,4.1-14.6,16-24.4
		C359.6,59.4,373.1,55.4,374.8,58.1z"/>
	<path id="XMLID_1247_" class="st30" d="M184.6,105.5c0,0-27,21.5-65.3-23.6c0,0,34.5-6.7,41.4-5.7c6.9,1-15.6-14.6-22.6-50.2
		c0,0,34.4,10.2,41.9,20.1c0,0,9.4-10.6-4.6-42.1c0,0,55.8,13.8,36.8,63.7C193.2,117.6,199.4,100.9,184.6,105.5z"/>
	<path id="XMLID_1246_" class="st26" d="M179.1,104c0,0-27.4-14.8-37.4-16.7c-9.9-1.8,34.1-0.7,32.7-5.8
		c-1.4-5.1-16.2-37.5-25.5-43.3c-9.3-5.8,31,2.2,36.2,23.6c5.2,21.4,16.3-33.4,6.6-42C181.8,11.2,252.3,59.8,179.1,104z"/>
	<path id="XMLID_1245_" class="st31" d="M308.6,202.8c-32,27.1-80,9.5-134-23.4c-44.3-27-14.4-78.9,17.6-106
		c32-27.1,89.5-43.4,108.1,5C319.9,129.1,340.6,175.7,308.6,202.8z"/>
	<path id="XMLID_1244_" class="st32" d="M197.8,170.9c-2.2,2.8-8.5,1.4-14.1-3c-5.6-4.4-8.4-10.2-6.2-13c2.2-2.8,8.5-1.4,14.1,3
		C197.3,162.3,200,168.1,197.8,170.9z"/>
	<path id="XMLID_1243_" class="st32" d="M200,118.8c-2.5,2.5-8.6,0.4-13.6-4.7c-5-5.1-7-11.2-4.5-13.7c2.5-2.5,8.6-0.4,13.6,4.7
		C200.5,110.2,202.5,116.4,200,118.8z"/>
	<path id="XMLID_1242_" class="st32" d="M250.5,112.7c-3,1.9-8.5-1.6-12.2-7.7c-3.7-6.1-4.3-12.5-1.3-14.3c3-1.8,8.5,1.6,12.2,7.7
		C253,104.4,253.5,110.9,250.5,112.7z"/>
	<path id="XMLID_1241_" class="st32" d="M271.4,71.6c-2.4,2.6-8.6,0.7-13.8-4.2c-5.2-4.9-7.4-10.9-5-13.5c2.4-2.6,8.6-0.7,13.8,4.2
		C271.6,62.9,273.8,69,271.4,71.6z"/>
	<path id="XMLID_1240_" class="st32" d="M241.7,159.7c-2.1,2.8-8.4,1.7-14.2-2.5c-5.7-4.2-8.7-9.9-6.6-12.8
		c2.1-2.9,8.5-1.7,14.2,2.5C240.8,151.1,243.8,156.9,241.7,159.7z"/>
	<path id="XMLID_1239_" class="st32" d="M295.8,140.7c-3.3,1.1-7.9-3.5-10.1-10.3c-2.2-6.8-1.3-13.2,2.1-14.2
		c3.4-1.1,7.9,3.5,10.1,10.3C300.1,133.2,299.2,139.6,295.8,140.7z"/>
	<path id="XMLID_1236_" class="st32" d="M295.1,190c-2.8,2.2-8.6-0.6-13-6.2c-4.4-5.6-5.8-11.9-3-14.1c2.8-2.2,8.6,0.6,13,6.2
		C296.5,181.5,297.9,187.8,295.1,190z"/>
	<path id="XMLID_1235_" class="st27" d="M272.7,64.5c-7.8,8.8,42.9,96.8,7.8,120c-22.1,14.5-71.3-10.1-72.6-2.4
		c-1.2,7.7,35.8,32.6,76.4,27.8c40.5-4.8,40-37,34.9-66.2C314,114.4,284.9,50.9,272.7,64.5z"/>
	<path id="XMLID_1234_" class="st33" d="M275.9,163.9c-19.6,18.6-51.1,9-87-10.2c-29.5-15.8-12.1-50.2,7.5-68.8
		c19.6-18.6,56-31.1,69.7-0.7C280.5,116.1,295.5,145.3,275.9,163.9z"/>
	<path id="XMLID_1233_" class="st29" d="M250.6,140c-12.4,11.8-32.4,5.7-55.1-6.5c-18.6-10-7.6-31.8,4.8-43.6
		c12.4-11.8,35.5-19.7,44.1-0.4C253.5,109.7,263,128.2,250.6,140z"/>
</g>
</svg>
